<?xml version="1.0" standalone="no"?>
<!DOCTYPE svg PUBLIC "-//W3C//DTD SVG 1.1//EN" "http://www.w3.org/Graphics/SVG/1.1/DTD/svg11.dtd" >
<svg>
<metadata>
Created by FontForge 20090914 at Mon Feb 27 09:59:42 2012
 By www-data
Digitized data (C) 2004 Agfa Monotype Corporation. Neo Tech(TM) is a trademark of Agfa Monotype Corporation and may be registered in certain jurisdictions.  All rights reserved. Neo Tech is designed by Sebastian Lester.
</metadata>
<defs>
<font id="NeoTechAlt" horiz-adv-x="1239" >
  <font-face 
    font-family="Neo Tech Alt"
    font-weight="400"
    font-stretch="normal"
    units-per-em="2048"
    panose-1="2 11 5 3 2 2 2 2 2 4"
    ascent="1638"
    descent="-410"
    x-height="1126"
    cap-height="1522"
    bbox="-254 -441.997 2230 2007"
    underline-thickness="102"
    underline-position="-154"
    unicode-range="U+0020-U+F006"
  />
<missing-glyph horiz-adv-x="1024" 
d="M51 0v1536h922v-1536h-922zM179 128h666v1280h-666v-1280z" />
    <glyph glyph-name=".notdef" horiz-adv-x="1024" 
d="M51 0v1536h922v-1536h-922zM179 128h666v1280h-666v-1280z" />
    <glyph glyph-name="space" unicode=" " horiz-adv-x="559" 
 />
    <glyph glyph-name="exclam" unicode="!" horiz-adv-x="444" 
d="M315 1501l-15.999 -1065c0 -10.667 -3.83301 -19.834 -11.5 -27.501s-16.834 -11.5 -27.501 -11.5h-74c-9.33301 0 -18.5 3.83301 -27.5 11.5s-13.5 16.834 -13.5 27.501l-14 1065c0 11.333 4.33301 20.666 13 27.999s18 11 28 11h102c11.333 0 21 -3.66699 29 -11
s12 -16.666 12 -27.999zM311.001 39c0 -11.333 -3.66699 -20.6689 -11 -28.002s-16.666 -11 -27.999 -11h-98c-10.667 0 -19.834 3.83301 -27.501 11.5s-11.5 16.834 -11.5 27.501v192c0 10.667 3.66699 19.834 11 27.501s16.666 11.5 27.999 11.5h98
c10.667 0 19.834 -3.5 27.501 -10.5s11.5 -16.5 11.5 -28.5v-192z" />
    <glyph glyph-name="quotedbl" unicode="&#x22;" horiz-adv-x="778" 
d="M709 1518c0 -7.33301 -0.666992 -13 -2 -17l-119 -387c-7.33301 -26 -20.333 -39 -39 -39h-96c-12.667 0 -19 7 -19 21c0 8 0.666992 14 2 18l94 387c6 26 19.667 39 41 39h115c15.333 0 23 -7.33301 23 -22zM360 1518c0 -7.33301 -0.666992 -13 -2 -17l-118 -387
c-8 -26 -21 -39 -39 -39h-97c-12 0 -18 7 -18 21c0 8 0.666992 14 2 18l94 387c5.33301 26 19 39 41 39h115c14.667 0 22 -7.33301 22 -22z" />
    <glyph glyph-name="numbersign" unicode="#" horiz-adv-x="1352" 
d="M1249 1049l0.00292969 -5.00098l-4 -45c-2 -25.333 -15.667 -38 -41 -38h-198l-37 -414h200c10 0 18 -3.66699 24 -11s9 -16.666 9 -27.999v-4l-4 -43c-2 -26 -15.667 -39 -41 -39h-201l-32 -383c-2.66699 -26 -15 -39 -37 -39h-90c-22 0 -33 11.667 -33 35v4l33 383
h-318l-33 -383c-2.66699 -26 -14.667 -39 -36 -39h-93c-8.66699 -0 -16.167 3.83301 -22.5 11.5s-9.5 15.5 -9.5 23.5v4l32 383h-190c-10 0 -18 3.83301 -24 11.5s-9 16.834 -9 27.501v4l4 43c1.33301 11.333 5.66602 20.666 12.999 27.999s16.666 11 27.999 11h191l37 414
h-193c-9.33301 0 -17.166 3.83301 -23.499 11.5s-9.5 16.5 -9.5 26.5v5l4 45c1.33301 11.333 5.66602 20.5 12.999 27.5s16.666 10.5 27.999 10.5h191l35 396c0.666992 10 4.83398 19 12.501 27s16.5 12 26.5 12h92c9.33301 0 16.666 -3.5 21.999 -10.5s8 -15.167 8 -24.5
v-4l-34 -396h317l35 396c2.66699 26 15.667 39 39 39h90c20.667 0 31 -11.667 31 -35v-4l-35 -396h201c10 0 17.833 -3.66699 23.5 -11s8.5 -16.333 8.5 -27zM846.003 960.999h-318l-36 -414h317z" />
    <glyph glyph-name="dollar" unicode="$" 
d="M1081 395c0 -100.667 -28.1631 -187.83 -84.4961 -261.497s-152.833 -120.167 -289.5 -139.5v-193c0 -10 -4.33301 -19.333 -13 -28s-18 -13 -28 -13h-97c-10 0 -19.333 4.33301 -28 13s-13 18 -13 28v185c-98.667 1.33301 -196 10.666 -292 27.999
c-16 2.66699 -26.5 6.5 -31.5 11.5s-7.5 13.5 -7.5 25.5v84c0 22 11.333 33 34 33h7c141.333 -12 253.666 -18 336.999 -18c115.333 0 196.166 21 242.499 63s69.5 102.667 69.5 182c0 33.333 -7.5 63.666 -22.5 90.999s-39.833 55 -74.5 83s-84.334 61.667 -149.001 101
l-199 121c-64 39.333 -116.667 77.833 -158 115.5s-72.333 78.167 -93 121.5s-31 92 -31 146c0 69.333 14.333 129 43 179s70 89.5 124 118.5s121 48.5 201 58.5v176c0 11.333 4 21 12 29s17.667 12 29 12h97c11.333 0 21 -4 29 -12s12 -17.667 12 -29v-170
c113.333 -4 213 -13 299 -27c22.667 -4.66699 34 -16 34 -34v-89c0 -10 -3 -17.833 -9 -23.5s-14.333 -8.5 -25 -8.5h-5c-180 12 -297.333 18 -352 18c-73.333 0 -131.5 -6.33301 -174.5 -19s-74.833 -33.334 -95.5 -62.001s-31 -67.667 -31 -117
c0 -46 16.5 -86.167 49.5 -120.5s90.833 -76.833 173.5 -127.5l189 -113c117.333 -68.667 200.166 -135 248.499 -199s72.5 -137 72.5 -219z" />
    <glyph glyph-name="percent" unicode="%" horiz-adv-x="1626" 
d="M1534 317c0 -110 -23.667 -192.667 -71 -248s-115 -83 -203 -83c-57.333 0 -106.833 12 -148.5 36s-73.5 60.833 -95.5 110.5s-33 111.167 -33 184.5v191c0 74.667 11 136.667 33 186s53.833 86 95.5 110s91.167 36 148.5 36c58 0 107.5 -12.167 148.5 -36.5
s72.167 -61 93.5 -110s32 -110.833 32 -185.5v-191zM1331 1509c0 -4 -3.33398 -12.665 -10.001 -25.998l-856 -1450c-10 -16.667 -17.667 -27.667 -23 -33s-12.666 -8 -21.999 -8h-101c-13.333 0 -20 5.33301 -20 16c0 9.33301 2.66699 17.666 8 24.999l856 1450
c12 17.333 20.333 28.166 25 32.499s12 6.5 22 6.5h105c10.667 0 16 -4.33301 16 -13zM642.999 1016c0 -109.333 -23.667 -192 -71 -248s-115 -84 -203 -84c-57.333 0 -106.833 12.333 -148.5 37s-73.5 62 -95.5 112s-33 111 -33 183v190
c0 111.333 24.167 194.166 72.5 248.499s116.5 81.5 204.5 81.5s155.667 -27.167 203 -81.5s71 -137.166 71 -248.499v-190zM1407 317.002v191c0 143.333 -49 215 -147 215c-100 0 -150 -71.667 -150 -215v-191c0 -143.333 50 -215 150 -215c98 0 147 71.667 147 215z
M515.999 1016v190c0 143.333 -49 215 -147 215c-100 0 -150 -71.667 -150 -215v-190c0 -143.333 50 -215 150 -215c98 0 147 71.667 147 215z" />
    <glyph glyph-name="ampersand" unicode="&#x26;" horiz-adv-x="1303" 
d="M1266 729c0 -10.667 -3.66699 -19.168 -11 -25.501s-16.666 -9.5 -27.999 -9.5h-187v-653c0 -8.66699 -2.66699 -17 -8 -25s-12.666 -12.667 -21.999 -14c-53.333 -4 -100.833 -7.16699 -142.5 -9.5s-79.334 -4 -113.001 -5s-81.167 -1.5 -142.5 -1.5
c-70 0 -135.667 8.66699 -197 26s-115.666 44.833 -162.999 82.5s-84.5 87 -111.5 148s-40.5 133.833 -40.5 218.5c0 58.667 11.167 115.834 33.5 171.501s52.833 103.5 91.5 143.5c-37.333 44.667 -67.166 95.5 -89.499 152.5s-33.5 115.5 -33.5 175.5
c0 160.667 43.5 272.834 130.5 336.501s213.5 95.5 379.5 95.5c72 0 136.167 -1.66699 192.5 -5s101.5 -7.5 135.5 -12.5s59.333 -10.167 76 -15.5c11.333 -3.33301 18.166 -6.33301 20.499 -9s3.5 -8.33398 3.5 -17.001v-86c0 -8.66699 -2.83301 -15.667 -8.5 -21
s-12.834 -8 -21.501 -8h-398c-84 0 -148.667 -6.16699 -194 -18.5s-78.5 -37 -99.5 -74s-31.5 -92.167 -31.5 -165.5c0 -44.667 7.5 -89.5 22.5 -134.5s35.5 -84.167 61.5 -117.5h856c11.333 0 20.666 -3.33301 27.999 -10s11 -15.667 11 -27v-86zM864 157.999v535.999h-493
c-30 -36 -51.5 -72.333 -64.5 -109s-19.5 -78 -19.5 -124c0 -111.333 29.167 -189.666 87.5 -234.999s137.5 -68 237.5 -68h252z" />
    <glyph glyph-name="quotesingle" unicode="'" horiz-adv-x="430" 
d="M360 1518c0 -7.33301 -0.666992 -13 -2 -17l-118 -387c-8 -26 -21 -39 -39 -39h-97c-12 0 -18 7 -18 21c0 8 0.666992 14 2 18l94 387c5.33301 26 19 39 41 39h115c14.667 0 22 -7.33301 22 -22z" />
    <glyph glyph-name="parenleft" unicode="(" horiz-adv-x="625" 
d="M573 -412c0 -10.667 -6.66699 -16.001 -20 -16.001h-96c-10.667 0 -19.5 1.5 -26.5 4.5s-13.833 8.83301 -20.5 17.5c-90 110 -160.333 250 -211 420s-76 346.333 -76 529v26c0 182.667 25.333 359 76 529s121 310 211 420c12 14.667 27.667 22 47 22h96
c13.333 0 20 -5.33301 20 -16c0 -8 -2 -15 -6 -21c-44.667 -66.667 -83.5 -136.167 -116.5 -208.5s-60.333 -146.833 -82 -223.5s-38 -157.667 -49 -243s-16.5 -171.666 -16.5 -258.999v-26c0 -364 88 -675.333 264 -934c4 -6 6 -13 6 -21z" />
    <glyph glyph-name="parenright" unicode=")" horiz-adv-x="625" 
d="M530 543c0 -92.667 -6.50098 -184.003 -19.501 -274.003s-31.5 -175.333 -55.5 -256s-54.167 -157.334 -90.5 -230.001s-76.5 -135.667 -120.5 -189c-6.66699 -8.66699 -13.5 -14.5 -20.5 -17.5s-15.833 -4.5 -26.5 -4.5h-97c-13.333 0 -20 5.33301 -20 16c0 8 2 15 6 21
c176 258.667 264 570 264 934v26c0 94.667 -5.83301 184.334 -17.5 269.001s-28.5 165.334 -50.5 242.001s-49.5 150.834 -82.5 222.501s-70.833 138.5 -113.5 200.5c-4 6 -6 13 -6 21c0 10.667 6.66699 16 20 16h97c18.667 0 34.334 -7.33301 47.001 -22
c59.333 -73.333 110.5 -160.166 153.5 -260.499s75.833 -209.833 98.5 -328.5s34 -238.667 34 -360v-26z" />
    <glyph glyph-name="asterisk" unicode="*" horiz-adv-x="952" 
d="M858 1225c0 -14 -9.66699 -24.333 -29 -31l-256 -80l158 -217c6.66699 -8.66699 10 -17.667 10 -27c0 -8.66699 -4 -16 -12 -22l-49 -37c-6 -4 -11.333 -6 -16 -6c-12 0 -22.333 6.66699 -31 20l-156 217l-155 -217c-10 -13.333 -20.333 -20 -31 -20
c-4 0 -9.66699 2 -17 6l-51 37c-8 6 -12 13.333 -12 22c0 9.33301 3.33301 18.333 10 27l160 217l-254 80c-20.667 8 -31 18.333 -31 31c0.666992 2 1.16699 3.66699 1.5 5s0.5 3 0.5 5l19 59c4 14 12.667 21 26 21c4.66699 0 11 -1.33301 19 -4l256 -84l-2 268
c0 26 10 39 30 39h62c20.667 0 31 -13 31 -39l-2 -268l256 84c8 2.66699 14 4 18 4c14 0 23 -7 27 -21l18 -59c1.33301 -2.66699 2 -6 2 -10z" />
    <glyph glyph-name="plus" unicode="+" 
d="M1085 760c0 -22 -13.667 -33 -41 -33h-352v-350c0 -27.333 -11 -41 -33 -41h-81c-22 0 -33 13.667 -33 41v350h-350c-27.333 0 -41 11 -41 33v82c0 21.333 13.667 32 41 32h350v353c0 27.333 11 41 33 41h81c22 0 33 -13.667 33 -41v-353h352c27.333 0 41 -10.667 41 -32
v-82z" />
    <glyph glyph-name="comma" unicode="," horiz-adv-x="438" 
d="M346 242c0 -3.33301 -1.33301 -9.00195 -4 -17.002l-154 -387c-6 -15.333 -11.333 -25.666 -16 -30.999s-12 -8 -22 -8h-84c-16.667 0 -25 8.33301 -25 25c0 6.66699 0.666992 11.334 2 14.001l117 387c8 26 21.667 39 41 39h118c18 0 27 -7.33301 27 -22z" />
    <glyph glyph-name="hyphen" unicode="-" horiz-adv-x="682" 
d="M584 559c0 -10.667 -3.83105 -19.167 -11.498 -25.5s-16.834 -9.5 -27.501 -9.5h-408c-26 0 -39 11.667 -39 35v80c0 10 3.66699 18.667 11 26s16.666 11 27.999 11h408c12 0 21.5 -3.16699 28.5 -9.5s10.5 -15.5 10.5 -27.5v-80z" />
    <glyph glyph-name="period" unicode="." horiz-adv-x="438" 
d="M307 43c0 -12 -3.83203 -21.834 -11.499 -29.501s-16.834 -11.5 -27.501 -11.5h-98c-10 0 -19 4 -27 12s-12 17.667 -12 29v190c0 10.667 3.66699 19.834 11 27.501s16.666 11.5 27.999 11.5h98c10.667 0 19.834 -3.5 27.501 -10.5s11.5 -16.5 11.5 -28.5v-190z" />
    <glyph glyph-name="slash" unicode="/" horiz-adv-x="727" 
d="M682 1493c0 -5.33301 -0.666992 -9.33301 -2 -12l-463 -1440c-8 -27.333 -20.333 -41 -37 -41h-104c-8.66699 0 -15.667 3 -21 9s-8 12.667 -8 20c0 5.33301 0.666992 9.33301 2 12l465 1440c8 27.333 19.667 41 35 41h104c8.66699 0 15.667 -2.83301 21 -8.5
s8 -12.5 8 -20.5z" />
    <glyph glyph-name="zero" unicode="0" 
d="M1122 623c0 -220 -43.1641 -381.165 -129.497 -483.498s-210.166 -153.5 -371.499 -153.5c-78 0 -147.833 12 -209.5 36s-114.334 61.667 -158.001 113s-77.334 117.666 -101.001 198.999s-35.5 177.666 -35.5 288.999v276c0 219.333 43.667 380.333 131 483
s211.666 154 372.999 154s285.166 -51.167 371.499 -153.5s129.5 -263.5 129.5 -483.5v-276zM936.003 623.002v276c0 110.667 -12.5 201.834 -37.5 273.501s-61.167 123.834 -108.5 156.501s-103.666 49 -168.999 49s-121.833 -16.333 -169.5 -49s-84 -84.834 -109 -156.501
s-37.5 -162.834 -37.5 -273.501v-276c0 -111.333 12.5 -202.833 37.5 -274.5s61.333 -123.834 109 -156.501s104.167 -49 169.5 -49s121.666 16.333 168.999 49s83.5 84.834 108.5 156.501s37.5 163.167 37.5 274.5z" />
    <glyph glyph-name="one" unicode="1" horiz-adv-x="879" 
d="M600 41c0 -12 -3.33398 -21.833 -10.001 -29.5s-15.667 -11.5 -27 -11.5h-112c-11.333 0 -20.333 4 -27 12s-10 17.667 -10 29v1288l-264 -115c-10.667 -4 -19.667 -6 -27 -6c-12.667 0 -19 7.66699 -19 23v104c0 10 7 19 21 27l309 147c16.667 8.66699 31 13 43 13h84
c10.667 0 19.834 -3.5 27.501 -10.5s11.5 -16.5 11.5 -28.5v-1442z" />
    <glyph glyph-name="two" unicode="2" 
d="M1077 1169c0 -80 -19.8311 -148.999 -59.498 -206.999s-108.5 -120.667 -206.5 -188l-197 -133c-74 -50 -131.833 -96.833 -173.5 -140.5s-70.834 -88.667 -87.501 -135s-25 -99.833 -25 -160.5v-43h690c11.333 0 21 -3.16699 29 -9.5s12 -14.833 12 -25.5v-90
c0 -11.333 -4.16699 -20.333 -12.5 -27s-17.833 -10 -28.5 -10h-813c-12 0 -21.833 3.83301 -29.5 11.5s-11.5 16.834 -11.5 27.501v166c0 54 6.16699 105.667 18.5 155s30.666 95.666 54.999 138.999s56.333 85.5 96 126.5s87.5 80.167 143.5 117.5l207 140
c86.667 58 143.5 105 170.5 141s40.5 84.333 40.5 145c0 75.333 -23.833 129.333 -71.5 162s-126.167 49 -235.5 49c-98 0 -219 -10 -363 -30h-8c-22 0 -33 12 -33 36v72c0 19.333 13 31.666 39 36.999c106 27.333 227.667 41 365 41c166 0 289 -29.667 369 -89
s120 -152 120 -278z" />
    <glyph glyph-name="three" unicode="3" 
d="M1067 424c0 -98.667 -21.3291 -180.832 -63.9961 -246.499s-101.834 -114 -177.501 -145s-165.167 -46.5 -268.5 -46.5c-114 0 -229.333 13.667 -346 41c-26 4.66699 -39 17.667 -39 39v69c0 23.333 11.667 35 35 35h6c148.667 -19.333 263.334 -29 344.001 -29
c111.333 0 192.5 22.5 243.5 67.5s76.5 116.833 76.5 215.5v43c0 40 -7.5 78.833 -22.5 116.5s-40.5 69.334 -76.5 95.001s-83 38.5 -141 38.5h-352c-26 0 -39 12.333 -39 37v71c0 11.333 3.66699 20.666 11 27.999s16.666 11 27.999 11h352c61.333 0 109.833 12 145.5 36
s60.334 54.5 74.001 91.5s20.5 75.833 20.5 116.5v29c0 85.333 -24.667 147.166 -74 185.499s-131.333 57.5 -246 57.5c-26.667 0 -61.834 -1.5 -105.501 -4.5s-83.834 -6.83301 -120.501 -11.5s-76 -9.33398 -118 -14.001h-6c-23.333 0 -35 11.333 -35 34v72
c0 8.66699 3.83301 16.834 11.5 24.501s16.834 12.5 27.501 14.5c127.333 27.333 242.666 41 345.999 41c106 0 196.833 -12.667 272.5 -38s134.167 -67.666 175.5 -126.999s62 -137.333 62 -234v-29c0 -35.333 -4.16699 -68.5 -12.5 -99.5s-20.833 -60.333 -37.5 -88
s-37.334 -52.834 -62.001 -75.501s-52.334 -41.667 -83.001 -57c68 -32.667 117.5 -77.667 148.5 -135s46.5 -119.333 46.5 -186v-43z" />
    <glyph glyph-name="four" unicode="4" 
d="M1161 442c0 -24 -13 -36 -39 -36h-178v-365c0 -11.333 -3.16699 -21 -9.5 -29s-14.833 -12 -25.5 -12h-118c-23.333 0 -35 13.667 -35 41v365h-592c-31.333 0 -53.166 6 -65.499 18s-18.5 32.333 -18.5 61v78c0 28.667 8 54 24 76l607 850c14 22 33.667 33 59 33h121
c35.333 0 53 -15 53 -45v-916h178c11.333 0 20.666 -3.16699 27.999 -9.5s11 -15.5 11 -27.5v-82zM758 561v701c0 8 -2.66699 12 -8 12h-2c-6 0 -11.667 -4 -17 -12l-473 -672c-4 -6 -6 -11.667 -6 -17c0 -8 5.33301 -12 16 -12h490z" />
    <glyph glyph-name="five" unicode="5" 
d="M1081 463c0 -100 -20.3301 -185.831 -60.9971 -257.498s-100.167 -126.167 -178.5 -163.5s-172.5 -56 -282.5 -56c-139.333 0 -259.333 12.333 -360 37c-26 6.66699 -39 20 -39 40v76c0 20.667 10 31 30 31h11c108.667 -19.333 228 -29 358 -29
c222.667 0 334 107.333 334 322v31c0 100.667 -32.833 171.5 -98.5 212.5s-175.5 61.5 -329.5 61.5h-246c-8.66699 0 -16.334 3.66699 -23.001 11s-10 15.333 -10 24v2l58 682c1.33301 10 6 18.333 14 25s17 10 27 10h704c12.667 0 22.667 -3 30 -9s11 -14.667 11 -26v-90
c0 -22 -13.667 -33 -41 -33h-588l-32 -442h96c133.333 0 245.166 -13.333 335.499 -40s159.666 -71.834 207.999 -135.501s72.5 -147.834 72.5 -252.501v-31z" />
    <glyph glyph-name="six" unicode="6" 
d="M1118 504c0 -109.333 -18.4971 -202.666 -55.4971 -279.999s-92.667 -136.333 -167 -177s-166.833 -61 -277.5 -61c-77.333 0 -146.5 11.833 -207.5 35.5s-113 59.667 -156 108s-75.667 108.833 -98 181.5s-33.5 158 -33.5 256v359
c0 144.667 19.833 261.834 59.5 351.501s99.167 155.167 178.5 196.5s178 62 296 62c132 0 249.667 -11.667 353 -35c16 -4 27.833 -8.66699 35.5 -14s11.5 -13.666 11.5 -24.999v-80c0 -24 -12.333 -36 -37 -36c-2 0.666992 -3.83301 1.16699 -5.5 1.5
s-3.83398 0.5 -6.50098 0.5c-112 21.333 -229 32 -351 32c-98.667 0 -173.834 -18.333 -225.501 -55s-85.334 -86.834 -101.001 -150.501s-23.5 -146.5 -23.5 -248.5v-23c120.667 27.333 223.667 41 309 41c95.333 0 180.5 -13.333 255.5 -40
s134.833 -71.834 179.5 -135.501s67 -147.834 67 -252.501v-12zM934.003 504l-0.00195312 12c0 69.333 -14.5 125 -43.5 167s-67.333 71.833 -115 89.5s-100.834 26.5 -159.501 26.5c-46.667 0 -100.167 -3.83301 -160.5 -11.5s-109.833 -16.167 -148.5 -25.5v-195
c0 -109.333 11.833 -195.333 35.5 -258s58.334 -107 104.001 -133s102.834 -39 171.501 -39c66.667 0 123.334 11.667 170.001 35s82.667 62.5 108 117.5s38 126.5 38 214.5z" />
    <glyph glyph-name="seven" unicode="7" horiz-adv-x="1079" 
d="M1016 1393c0 -34 -9 -69.667 -27 -107l-590 -1255c-10 -20.667 -25 -31 -45 -31h-123c-20 -0 -30 10.333 -30 31c0 6.66699 2 14 6 22l618 1286c1.33301 1.33301 2 4.33301 2 9c0 9.33301 -4.66699 14 -14 14h-698c-27.333 0 -41 11.667 -41 35v86c0 10 4 19 12 27
s17.667 12 29 12h747c54 0 93.167 -12 117.5 -36s36.5 -55 36.5 -93z" />
    <glyph glyph-name="eight" unicode="8" 
d="M1128 424c0 -95.333 -21.9971 -176.166 -65.9971 -242.499s-103.5 -115.5 -178.5 -147.5s-159.167 -48 -252.5 -48h-21c-93.333 0 -177.5 16 -252.5 48s-134.5 81.167 -178.5 147.5s-66 147.166 -66 242.499v39c0 66 17.333 129 52 189s83.334 107.667 146.001 143
c-43.333 22 -79.333 49.167 -108 81.5s-50.167 68.666 -64.5 108.999s-21.5 83.166 -21.5 128.499v19c0 92 21.167 167.833 63.5 227.5s100.166 103.834 173.499 132.501s158.666 43 255.999 43h21c97.333 0 182.666 -14.333 255.999 -43s131.166 -72.834 173.499 -132.501
s63.5 -135.5 63.5 -227.5v-19c0 -45.333 -7.16699 -88.166 -21.5 -128.499s-35.833 -76.666 -64.5 -108.999s-64.667 -59.5 -108 -81.5c62 -34.667 110.5 -82.167 145.5 -142.5s52.5 -123.5 52.5 -189.5v-39zM944.003 1114v19c0 81.333 -26.833 143.5 -80.5 186.5
s-131.167 64.5 -232.5 64.5h-21c-100.667 0 -178 -21.667 -232 -65s-81 -105.333 -81 -186v-19c0 -70 21.333 -128.5 64 -175.5s108 -70.5 196 -70.5h127c87.333 0 152.5 23.5 195.5 70.5s64.5 105.5 64.5 175.5zM942.003 424v38.999c0 41.333 -8.83301 81.833 -26.5 121.5
s-46 72.334 -85 98.001s-87.833 38.5 -146.5 38.5h-127c-44 0 -82.667 -7.5 -116 -22.5s-60.5 -35.333 -81.5 -61s-36.333 -54 -46 -85s-14.5 -60.833 -14.5 -89.5v-39c0 -89.333 26.833 -158.833 80.5 -208.5s130.5 -74.5 230.5 -74.5h21c99.333 0 176 24.833 230 74.5
s81 119.167 81 208.5z" />
    <glyph glyph-name="nine" unicode="9" 
d="M1100 596c0 -110 -11.333 -203.33 -34 -279.997s-56.334 -139.334 -101.001 -188.001s-100.334 -84.5 -167.001 -107.5s-144.334 -34.5 -233.001 -34.5c-73.333 0 -139.5 3.33301 -198.5 10s-110.167 14.667 -153.5 24c-32.667 8.66699 -49 21.667 -49 39v80
c0 24.667 12.333 37 37 37c2.66699 0 4.83398 -0.166992 6.50098 -0.5s3.5 -0.833008 5.5 -1.5c114.667 -22 231.334 -33 350.001 -33c100 0 175.833 18.333 227.5 55s85.334 87.167 101.001 151.5s23.5 147.166 23.5 248.499v22c-38.667 -8 -73.334 -14.833 -104.001 -20.5
s-62.167 -10.334 -94.5 -14.001s-69.166 -5.5 -110.499 -5.5c-72 0 -137.333 7.16699 -196 21.5s-111.334 38 -158.001 71s-83.334 77.5 -110.001 133.5s-40 123.333 -40 202v12c0 79.333 10.333 151.333 31 216s52 119.5 94 164.5s94.333 79.167 157 102.5
s135.334 35 218.001 35c78.667 0 148.334 -11.5 209.001 -34.5s112.667 -58.333 156 -106s76.333 -108.5 99 -182.5s34 -160.333 34 -259v-358zM913 760.003l2 193.999c0 160.667 -25.5 272.5 -76.5 335.5s-129.167 94.5 -234.5 94.5c-66.667 0 -123.5 -11.667 -170.5 -35
s-83.167 -62.166 -108.5 -116.499s-38 -125.833 -38 -214.5v-12c0 -102.667 29.667 -175.5 89 -218.5s135.333 -64.5 228 -64.5c42.667 0 94.167 3.5 154.5 10.5s111.833 15.833 154.5 26.5z" />
    <glyph glyph-name="colon" unicode=":" horiz-adv-x="449" 
d="M313 895c0 -11.333 -3.83301 -20.666 -11.5 -27.999s-17.5 -11 -29.5 -11h-96c-10 0 -19.333 3.66699 -28 11s-13 16.666 -13 27.999v190c0 10.667 4.16699 20.167 12.5 28.5s17.833 12.5 28.5 12.5h96c12 0 21.833 -3.83301 29.5 -11.5s11.5 -17.5 11.5 -29.5v-190z
M313 39c0 -11.333 -3.83301 -20.667 -11.5 -28s-17.5 -11 -29.5 -11h-96c-10 0 -19.333 3.66699 -28 11s-13 16.666 -13 27.999v192c0 10 4 19 12 27s17.667 12 29 12h96c11.333 0 21 -3.66699 29 -11s12 -16.666 12 -27.999v-192z" />
    <glyph glyph-name="semicolon" unicode=";" horiz-adv-x="449" 
d="M313 895c0 -11.333 -3.66504 -20.668 -10.998 -28.001s-16.666 -11 -27.999 -11h-100c-10.667 0 -19.834 3.83301 -27.501 11.5s-11.5 16.834 -11.5 27.501v190c0 11.333 3.66699 21 11 29s16.666 12 27.999 12h100c11.333 0 20.666 -3.66699 27.999 -11
s11 -17.333 11 -30v-190zM322.002 239.998c0 -1.33301 -1.66699 -7.00098 -5 -17.001l-153 -387c-6 -15.333 -11.5 -26 -16.5 -32s-12.5 -9 -22.5 -9h-82c-16.667 0 -25 9 -25 27c0 6.66699 0.666992 11.334 2 14.001l117 387c8 26 21.667 39 41 39h117
c18 0 27 -7.33301 27 -22z" />
    <glyph glyph-name="less" unicode="&#x3c;" 
d="M987 307c0 -13.333 -7.99902 -20.001 -23.999 -20.001h-119c-20.667 0 -42 8.66699 -64 26l-493 418c-24.667 20.667 -37 44 -37 70s12.333 49 37 69l493 418c21.333 18 42.666 27 63.999 27h119c16 0 24 -7 24 -21c0 -11.333 -6.66699 -22.666 -20 -33.999l-537 -459
l537 -459c13.333 -11.333 20 -23 20 -35z" />
    <glyph glyph-name="equal" unicode="=" 
d="M1055 987c0 -10 -4.16699 -18 -12.5 -24s-17.833 -9 -28.5 -9h-789c-10.667 0 -20.167 3 -28.5 9s-12.5 14 -12.5 24v82c0 22 13.667 33 41 33h789c27.333 0 41 -11 41 -33v-82zM1055 535c0 -22 -13.667 -33 -41 -33h-789c-27.333 0 -41 11 -41 33v81
c0 22 13.667 33 41 33h789c27.333 0 41 -11 41 -33v-81z" />
    <glyph glyph-name="greater" unicode="&#x3e;" 
d="M989 801c0 -26 -12.333 -49.332 -37 -69.999l-493 -418c-21.333 -17.333 -42.666 -26 -63.999 -26h-119c-16 0 -24 6.66699 -24 20c0 12 6.66699 23.667 20 35l537 459l-537 459c-13.333 11.333 -20 22.666 -20 33.999c0 14 8 21 24 21h119
c21.333 0 42.666 -9 63.999 -27l493 -418c24.667 -20 37 -43 37 -69z" />
    <glyph glyph-name="question" unicode="?" horiz-adv-x="913" 
d="M791 1202c0 -33.333 -5 -65.668 -15 -97.001s-28.333 -66.666 -55 -105.999s-65.667 -88.333 -117 -147l-92 -104c-44 -50 -73.167 -87.333 -87.5 -112s-21.5 -57.667 -21.5 -99v-101c0 -11.333 -3.83301 -20.666 -11.5 -27.999s-17.5 -11 -29.5 -11h-90
c-10.667 0 -19.834 3.83301 -27.501 11.5s-11.5 16.834 -11.5 27.501v101c0 66 9.33301 119.5 28 160.5s54.667 90.5 108 148.5l94 104c50.667 56.667 84.5 102.167 101.5 136.5s25.5 72.833 25.5 115.5v25c0 53.333 -16.833 91.166 -50.5 113.499s-86.5 33.5 -158.5 33.5
c-73.333 0 -165.666 -6 -276.999 -18h-6c-20 0 -30 11.667 -30 35v71c0 14 2 24.667 6 32s13.333 12.333 28 15c88.667 18 181.667 27 279 27c128 0 228.333 -23.833 301 -71.5s109 -126.834 109 -237.501v-25zM406 38.998c0 -11.333 -3.66699 -20.666 -11 -27.999
s-16.666 -11 -27.999 -11h-99c-10 0 -19.333 3.66699 -28 11s-13 16.666 -13 27.999v190c0 10.667 4.16699 20.167 12.5 28.5s17.833 12.5 28.5 12.5h99c11.333 0 20.666 -4 27.999 -12s11 -17.667 11 -29v-190z" />
    <glyph glyph-name="at" unicode="@" horiz-adv-x="1571" 
d="M1491 750c0 -86 -7.16797 -160.664 -21.501 -223.997s-35.666 -118.333 -63.999 -165s-64.166 -86.334 -107.499 -119.001c-60.667 -46 -137 -79.333 -229 -100s-200 -31 -324 -31c-102 0 -182.333 25 -241 75s-88 119.667 -88 209c0 16.667 0.666992 29 2 37l22 240
c11.333 105.333 48.833 185.833 112.5 241.5s150.5 83.5 260.5 83.5c77.333 0 164.666 -10 261.999 -30c14 -2.66699 24.667 -7.33398 32 -14.001s11 -16.334 11 -29.001v-9l-61 -641c80.667 11.333 143 37.833 187 79.5s73.667 94.834 89 159.501s23 143.667 23 237
c0 66.667 -10.5 128.5 -31.5 185.5s-52.667 107.333 -95 151s-95 77.667 -158 102s-136.167 36.5 -219.5 36.5c-176 0 -316.333 -46.833 -421 -140.5s-165 -220.167 -181 -379.5l-31 -312c-2.66699 -29.333 -4 -51 -4 -65c0 -60.667 10.667 -117.667 32 -171
s53.5 -100 96.5 -140s97 -71 162 -93s140.167 -33 225.5 -33c74 0 172.333 5 295 15h2c7.33301 0 12.333 -1.83301 15 -5.5s4 -6.83398 4 -9.50098v-65c0 -17.333 -11 -27 -33 -29c-94 -10.667 -189 -16 -285 -16c-95.333 0 -183.333 13 -264 39s-149.5 63.667 -206.5 113
s-100.333 107.833 -130 175.5s-44.5 141.5 -44.5 221.5c0 28.667 0.666992 49.667 2 63l31 320c12 124.667 49 234.334 111 329.001s147 168.5 255 221.5s233 79.5 375 79.5c102.667 0 193.5 -15.833 272.5 -47.5s145.5 -75.5 199.5 -131.5s94.333 -119.333 121 -190
s40 -145.334 40 -224.001zM935.999 838.003c-57.333 8 -103.665 11.999 -138.998 11.999c-59.333 0 -103.5 -14.5 -132.5 -43.5s-47.167 -75.167 -54.5 -138.5l-22 -234c-1.33301 -8 -2 -19.667 -2 -35c0 -47.333 13.667 -82.666 41 -105.999s69.666 -35 126.999 -35h43
c39.333 0 68.666 1.33301 87.999 4z" />
    <glyph glyph-name="A" unicode="A" horiz-adv-x="1319" 
d="M1159 41c0 -11.333 -3.49902 -20.999 -10.499 -28.999s-15.833 -12 -26.5 -12h-112c-10.667 0 -19.5 3.83301 -26.5 11.5s-10.5 17.5 -10.5 29.5v606h-627v-606c0 -12 -3.33301 -21.833 -10 -29.5s-15.667 -11.5 -27 -11.5h-112c-10.667 0 -19.5 4 -26.5 12
s-10.5 17.667 -10.5 29v1071c0 103.333 16 186 48 248s80.167 106.833 144.5 134.5s146.833 41.5 247.5 41.5h119c100 0 182.167 -13.833 246.5 -41.5s112.666 -72.334 144.999 -134.001s48.5 -144.5 48.5 -248.5v-1071zM973.001 811.001v301c0 71.333 -8 125.333 -24 162
s-41.833 62.167 -77.5 76.5s-86.5 21.5 -152.5 21.5h-119c-95.333 0 -161.5 -17.333 -198.5 -52s-55.5 -104 -55.5 -208v-301h627z" />
    <glyph glyph-name="B" unicode="B" horiz-adv-x="1262" 
d="M1159 420c0 -289.333 -199.332 -434.001 -597.999 -434.001c-144.667 0 -256 6 -334 18c-24 3.33301 -41.167 10.5 -51.5 21.5s-15.5 29.167 -15.5 54.5v1364c0 46.667 21.667 72 65 76c90.667 10.667 199.334 16 326.001 16c118.667 0 222.167 -12 310.5 -36
s158.666 -65.167 210.999 -123.5s78.5 -136.833 78.5 -235.5v-33c0 -75.333 -19.333 -141.166 -58 -197.499s-92.334 -97.833 -161.001 -124.5c70 -23.333 125.333 -64.5 166 -123.5s61 -128.167 61 -207.5v-35zM965.001 1108v33.001c0 91.333 -34.333 153.666 -103 186.999
s-172.334 50 -311.001 50c-31.333 0 -52 -0.166992 -62 -0.5l-59 -2c-29.333 -1 -56.666 -2.16699 -81.999 -3.5v-508h316c200.667 0 301 81.333 301 244zM973.001 420l0.000976562 35.001c0 77.333 -23.5 140 -70.5 188s-126.5 72 -238.5 72h-316v-563
c21.333 -0.666992 56.166 -2.33398 104.499 -5.00098s84.5 -4 108.5 -4c90.667 0 165.667 8 225 24s105.333 44.167 138 84.5s49 96.5 49 168.5z" />
    <glyph glyph-name="C" unicode="C" horiz-adv-x="1116" 
d="M1044 53c0 -22.667 -13.3359 -36.3311 -40.0029 -40.998c-93.333 -17.333 -206.666 -26 -339.999 -26c-66.667 0 -132.167 10.667 -196.5 32s-122.166 55.666 -173.499 102.999s-92.666 112.5 -123.999 195.5s-47 183.5 -47 301.5v285c0 156 26.167 281.333 78.5 376
s118.833 161.167 199.5 199.5s168.334 57.5 263.001 57.5c97.333 0 212 -11 344 -33c21.333 -2.66699 32 -11.334 32 -26.001v-105c0 -14.667 -8 -22 -24 -22h-6c-148 12 -262.667 18 -344 18c-110 0 -197 -36.5 -261 -109.5s-96 -191.5 -96 -355.5v-285
c0 -162.667 32.167 -280.667 96.5 -354s151.166 -110 260.499 -110c94 0 206.667 5.33301 338 16h8c21.333 0 32 -11 32 -33v-84z" />
    <glyph glyph-name="D" unicode="D" horiz-adv-x="1313" 
d="M1196 623c0 -214 -54.668 -373.663 -164.001 -478.996s-261.666 -158 -456.999 -158c-52 0 -105.5 1.16699 -160.5 3.5s-96.833 4.66602 -125.5 6.99902s-57.334 5.5 -86.001 9.5s-43 21 -43 51v1407c0 29.333 14.333 46.666 43 51.999
c28.667 4 57.334 7.16699 86.001 9.5s70.5 4.66602 125.5 6.99902s108.5 3.5 160.5 3.5c130 0 241 -22.667 333 -68s163 -115.833 213 -211.5s75 -214.834 75 -357.501v-276zM1010 623.004l-0.000976562 276c0 118 -18.5 212.333 -55.5 283s-87.667 120.667 -152 150
s-140.166 44 -227.499 44c-83.333 0 -159 -2 -227 -6v-1220c44 -3.33301 119.667 -5 227 -5c136 0 242.5 36.333 319.5 109s115.5 195.667 115.5 369z" />
    <glyph glyph-name="E" unicode="E" horiz-adv-x="1128" 
d="M1016 25c0 -17.333 -7.00098 -26.9961 -21.001 -28.9961c-64 -6.66699 -197 -10 -399 -10c-146 0 -255.167 30 -327.5 90s-108.5 157 -108.5 291v788c0 133.333 36 230.166 108 290.499s181.333 90.5 328 90.5c58.667 0 107 -0.333008 145 -1s84.333 -2.16699 139 -4.5
s93 -4.5 115 -6.5c6.66699 -0.666992 11.834 -3.83398 15.501 -9.50098s5.5 -12.167 5.5 -19.5v-102c0 -16.667 -7.66699 -25 -23 -25h-395c-72 0 -126 -6.83301 -162 -20.5s-60 -35.334 -72 -65.001s-18 -72.167 -18 -127.5v-285h629c11.333 0 21 -4 29 -12
s12 -17.667 12 -29v-77c0 -11.333 -4.33301 -21 -13 -29s-18 -12 -28 -12h-629v-344c0 -55.333 6 -97.833 18 -127.5s36 -51.334 72 -65.001s90 -20.5 162 -20.5h395c15.333 0 23 -8.33301 23 -25v-104z" />
    <glyph glyph-name="F" unicode="F" horiz-adv-x="1128" 
d="M1016 752c0 -11.333 -4.33398 -20.9971 -13.001 -28.9971s-18 -12 -28 -12h-629v-670c0 -12 -4 -21.833 -12 -29.5s-17.667 -11.5 -29 -11.5h-104c-11.333 0 -21 4 -29 12s-12 17.667 -12 29v1114c0 133.333 36 230.166 108 290.499s181.333 90.5 328 90.5
c58.667 0 107 -0.333008 145 -1s84.333 -2.16699 139 -4.5s93 -4.5 115 -6.5c6.66699 -0.666992 11.834 -3.83398 15.501 -9.50098s5.5 -12.167 5.5 -19.5v-102c0 -16.667 -7.66699 -25 -23 -25h-395c-72 0 -126 -6.83301 -162 -20.5s-60 -35.334 -72 -65.001
s-18 -72.167 -18 -127.5v-285h629c11.333 0 21 -4 29 -12s12 -17.667 12 -29v-77z" />
    <glyph glyph-name="G" unicode="G" horiz-adv-x="1253" 
d="M1094 61c0 -10.667 -3.66211 -20.333 -10.9951 -29s-16 -14 -26 -16c-53.333 -8.66699 -114.5 -15.834 -183.5 -21.501s-143.833 -8.5 -224.5 -8.5c-90.667 0 -176.334 21.5 -257.001 64.5s-146.334 112.167 -197.001 207.5s-76 217 -76 365v274
c0 119.333 15.667 220.833 47 304.5s73.166 149.834 125.499 198.501s110.666 83.5 174.999 104.5s131.5 31.5 201.5 31.5c143.333 0 273 -9.66699 389 -29c23.333 -2.66699 35 -12.667 35 -30v-103c0 -13.333 -9 -20 -27 -20h-8c-112.667 9.33301 -242.334 14 -389.001 14
c-70 0 -131.833 -14.333 -185.5 -43s-96.667 -78 -129 -148s-48.5 -163.333 -48.5 -280v-274c0 -108 15 -197.167 45 -267.5s71 -121.833 123 -154.5s110.667 -49 176 -49c74 0 160 4 258 12v586c0 10.667 3.66699 20.167 11 28.5s16 12.5 26 12.5h111
c10 0 19 -4.33301 27 -13s12 -18 12 -28v-689z" />
    <glyph glyph-name="H" unicode="H" horiz-adv-x="1393" 
d="M1233 41c0 -11.333 -4.33301 -21 -13 -29s-18 -12 -28 -12h-105c-10.667 0 -20 4 -28 12s-12 17.667 -12 29v680h-701v-680c0 -12 -4 -21.833 -12 -29.5s-17.667 -11.5 -29 -11.5h-104c-11.333 0 -21 4 -29 12s-12 17.667 -12 29v1440c0 10 4 19.333 12 28
s17.667 13 29 13h104c11.333 0 21 -4 29 -12s12 -17.667 12 -29v-594h701v594c0 10 4 19.333 12 28s17.333 13 28 13h105c10 0 19.333 -4.33301 28 -13s13 -18 13 -28v-1440z" />
    <glyph glyph-name="I" unicode="I" horiz-adv-x="547" 
d="M367 41c0 -10.667 -3.5 -20.168 -10.5 -28.501s-15.833 -12.5 -26.5 -12.5h-113c-9.33301 0 -17.833 3.83301 -25.5 11.5s-11.5 17.5 -11.5 29.5v1442c0 10 3.66699 19 11 27s16 12 26 12h113c10 0 18.667 -3.66699 26 -11s11 -16.666 11 -27.999v-1442z" />
    <glyph glyph-name="J" unicode="J" horiz-adv-x="537" 
d="M356 227c0 -92.667 -4.5 -164.17 -13.5 -214.503s-30.167 -105.166 -63.5 -164.499l-109 -196c-11.333 -19.333 -20.833 -32.666 -28.5 -39.999s-18.5 -11 -32.5 -11h-115c-16.667 0 -25 6.66699 -25 20c0 10.667 3.66699 22.334 11 35.001l124 238
c32 60 51 107.667 57 143s9 98.666 9 189.999v1256c0 10 3.33301 19 10 27s15 12 25 12h117c10 0 18.167 -3.66699 24.5 -11s9.5 -16.666 9.5 -27.999v-1256z" />
    <glyph glyph-name="K" unicode="K" horiz-adv-x="1243" 
d="M1153 16c0 -10.667 -6.00098 -16.001 -18.001 -16.001h-164c-18.667 0 -33.667 6.66699 -45 20l-580 709v-688c0 -12 -3.33301 -21.833 -10 -29.5s-15.667 -11.5 -27 -11.5h-112c-10.667 0 -19.5 3.83301 -26.5 11.5s-10.5 17.5 -10.5 29.5v1442
c0 10.667 3.83301 19.834 11.5 27.501s16.834 11.5 27.501 11.5h108c10.667 0 19.834 -3.5 27.501 -10.5s11.5 -16.5 11.5 -28.5v-660l590 680c12 12.667 25.667 19 41 19h143c11.333 0 19.666 -2.5 24.999 -7.5s8 -10.833 8 -17.5c0 -4 -2.66699 -10 -8 -18l-619 -697
l621 -749c4 -6 6 -11.667 6 -17z" />
    <glyph glyph-name="L" unicode="L" horiz-adv-x="1053" 
d="M1016 33c0 -17.333 -7 -26.998 -21 -28.998c-24 -4 -77.5 -8 -160.5 -12s-162.5 -6 -238.5 -6c-84.667 0 -158.667 9 -222 27s-114.833 55.167 -154.5 111.5s-59.5 137.166 -59.5 242.499v1114c0 10 4 19.333 12 28s17.667 13 29 13h104c11.333 0 21 -4 29 -12
s12 -17.667 12 -29v-1114c0 -55.333 6 -97.833 18 -127.5s36 -51.334 72 -65.001s90 -20.5 162 -20.5h395c15.333 0 23 -8.33301 23 -25v-96z" />
    <glyph glyph-name="M" unicode="M" horiz-adv-x="1788" 
d="M1634 41c0 -12 -3.33496 -21.832 -10.002 -29.499s-15.667 -11.5 -27 -11.5h-114c-10.667 0 -19.5 3.83301 -26.5 11.5s-10.5 17.5 -10.5 29.5v895c0 98 -7 175.167 -21 231.5s-37.833 99 -71.5 128s-78.5 48.667 -134.5 59s-133.333 15.5 -232 15.5v-1329
c0 -12 -3.33301 -21.833 -10 -29.5s-15.667 -11.5 -27 -11.5h-112c-11.333 0 -20.333 4 -27 12s-10 17.667 -10 29v1329c-98.667 0 -176 -5.16699 -232 -15.5s-100.667 -30 -134 -59s-57.166 -71.667 -71.499 -128s-21.5 -133.5 -21.5 -231.5v-895
c0 -12 -3.33301 -21.833 -10 -29.5s-15.667 -11.5 -27 -11.5h-115c-10 0 -18.5 3.83301 -25.5 11.5s-10.5 17.5 -10.5 29.5v895c0 129.333 13.833 233.833 41.5 313.5s70.834 140.167 129.501 181.5s133.167 69.166 223.5 83.499s205.833 21.5 346.5 21.5
c191.333 0 337.833 -14.333 439.5 -43s177 -85.5 226 -170.5s73.5 -213.833 73.5 -386.5v-895z" />
    <glyph glyph-name="N" unicode="N" horiz-adv-x="1393" 
d="M1233 160c0 -68.667 -13.833 -113.834 -41.5 -135.501s-66.5 -32.5 -116.5 -32.5h-45c-35.333 0 -64 7.33301 -86 22s-43 44.667 -63 90l-521 1211c-6.66699 14.667 -11.334 22 -14.001 22c-5.33301 0 -8 -7.33301 -8 -22v-1280c0 -10.667 -3.5 -19.167 -10.5 -25.5
s-15.167 -9.5 -24.5 -9.5h-108c-23.333 0 -35 13.667 -35 41v1317c0 68 13.833 113 41.5 135s66.167 33 115.5 33h45c33.333 0 62.333 -8.16699 87 -24.5s46.334 -47.166 65.001 -92.499l514 -1208c2.66699 -6 5.5 -11.333 8.5 -16s6.5 -7 10.5 -7c5.33301 0 8 10.333 8 31
v1278c0 10 3.66699 18.333 11 25s15.333 10 24 10h108c23.333 0 35 -13.667 35 -41v-1321z" />
    <glyph glyph-name="O" unicode="O" horiz-adv-x="1354" 
d="M1231 629c0 -111.333 -13.332 -207.834 -39.999 -289.501s-64.667 -148.667 -114 -201s-107.833 -90.833 -175.5 -115.5s-142.167 -37 -223.5 -37c-80.667 0 -155.167 12.333 -223.5 37s-127.333 63.5 -177 116.5s-87.834 120.667 -114.501 203s-40 177.833 -40 286.5
v264c0 109.333 13.333 205 40 287s65 149.5 115 202.5s108.833 91.833 176.5 116.5s142.167 37 223.5 37c82 0 156.5 -12.333 223.5 -37s125.167 -63.167 174.5 -115.5s87.5 -119.166 114.5 -200.499s40.5 -178 40.5 -290v-264zM1042 628.999l0.00195312 264
c0 83.333 -8.5 156 -25.5 218s-40.833 111.5 -71.5 148.5s-68.167 64.333 -112.5 82s-95.833 26.5 -154.5 26.5c-244.667 0 -367 -158.333 -367 -475v-264c0 -110.667 14.667 -201.5 44 -272.5s71.166 -122.5 125.499 -154.5s120.166 -48 197.499 -48
c242.667 0 364 158.333 364 475z" />
    <glyph glyph-name="P" unicode="P" horiz-adv-x="1214" 
d="M1122 1065c0 -306 -191 -459 -573 -459c-48 0 -116.333 3.33301 -205 10v-575c0 -12 -3.33301 -21.833 -10 -29.5s-15.667 -11.5 -27 -11.5h-110c-10.667 -0 -19.5 3.83301 -26.5 11.5s-10.5 17.5 -10.5 29.5v1427c0 30.667 16.333 48 49 52c94 10.667 207.333 16 340 16
c382 0 573 -148 573 -444v-27zM936 1065l-0.00292969 27.001c0 102 -30.833 175.167 -92.5 219.5s-159.834 66.5 -294.501 66.5c-71.333 0 -139.666 -2.66699 -204.999 -8v-600c7.33301 0 19.5 -0.5 36.5 -1.5s35.333 -1.83301 55 -2.5s40.334 -1.5 62.001 -2.5
s38.834 -1.5 51.501 -1.5c138.667 0 237.834 23.667 297.501 71s89.5 124.666 89.5 231.999z" />
    <glyph glyph-name="Q" unicode="Q" horiz-adv-x="1354" 
d="M1231 629c0 -132 -19.1689 -243.835 -57.502 -335.502s-92.166 -162 -161.499 -211s-150.666 -79.167 -243.999 -90.5v-330c0 -11.333 -3.16699 -21 -9.5 -29s-14.833 -12 -25.5 -12h-110c-10.667 0 -19.167 4 -25.5 12s-9.5 17.667 -9.5 29v330
c-94 12.667 -175.833 43.334 -245.5 92.001s-123.667 118.667 -162 210s-57.5 203 -57.5 335v264c0 109.333 13.333 205 40 287s65 149.5 115 202.5s108.833 91.833 176.5 116.5s142.167 37 223.5 37c82 0 156.5 -12.333 223.5 -37s125.167 -63.167 174.5 -115.5
s87.5 -119.166 114.5 -200.499s40.5 -178 40.5 -290v-264zM1042 628.998l0.00195312 264c0 83.333 -8.5 156 -25.5 218s-40.833 111.5 -71.5 148.5s-68.167 64.333 -112.5 82s-95.833 26.5 -154.5 26.5c-244.667 0 -367 -158.333 -367 -475v-264
c0 -110.667 14.667 -201.5 44 -272.5s71.166 -122.5 125.499 -154.5s120.166 -48 197.499 -48c242.667 0 364 158.333 364 475z" />
    <glyph glyph-name="R" unicode="R" horiz-adv-x="1280" 
d="M1204 20c0 -13.333 -8.66699 -19.999 -26 -19.999h-144c-12.667 0 -21 1.16699 -25 3.5s-10.667 10.166 -20 23.499l-366 610h-19h-35c-48 0 -123 2 -225 6v-602c0 -12 -3.33301 -21.833 -10 -29.5s-15.667 -11.5 -27 -11.5h-110c-10.667 -0 -19.5 3.83301 -26.5 11.5
s-10.5 17.5 -10.5 29.5v1434c0 26.667 16.333 41.667 49 45c40.667 4.66699 93.167 8.5 157.5 11.5s131.833 4.5 202.5 4.5c114 0 213.667 -14.167 299 -42.5s152.5 -75.5 201.5 -141.5s73.5 -151.333 73.5 -256v-15c0 -109.333 -29.167 -199 -87.5 -269
s-136.5 -118 -234.5 -144l377 -629c4 -6 6 -12.333 6 -19zM958 1081l0.00292969 15.001c0 66 -14.333 119.167 -43 159.5s-71.334 69.166 -128.001 86.499s-129.334 26 -218.001 26c-117.333 0 -192.333 -2 -225 -6v-561c14 0 51 -0.666992 111 -2s98 -2 114 -2
c88 0 160.167 8.5 216.5 25.5s99.166 46.333 128.499 88s44 98.5 44 170.5z" />
    <glyph glyph-name="S" unicode="S" horiz-adv-x="1126" 
d="M1024 395c0 -116 -38.166 -213.168 -114.499 -291.501s-206.833 -117.5 -391.5 -117.5c-106.667 0 -220 9.33301 -340 28c-16 2.66699 -26.5 6.5 -31.5 11.5s-7.5 13.5 -7.5 25.5v82c0 22 11.667 33 35 33h6c94 -8 206.667 -12 338 -12c115.333 0 196 20.5 242 61.5
s69 100.833 69 179.5c0 50.667 -17 94.667 -51 132s-98.667 85 -194 143l-199 121c-98.667 60 -170.5 119.167 -215.5 177.5s-67.5 126.833 -67.5 205.5c0 120.667 42.167 211.167 126.5 271.5s205.5 90.5 363.5 90.5c46 0 90.833 -1.16699 134.5 -3.5s82.167 -5 115.5 -8
s68.666 -7.5 105.999 -13.5c23.333 -4.66699 35 -16 35 -34v-88c0 -22 -11.667 -33 -35 -33h-4c-120 8 -237.333 12 -352 12c-108.667 0 -186 -14.167 -232 -42.5s-69 -78.833 -69 -151.5c0 -46 16.333 -86.333 49 -121s90.667 -77 174 -127l188 -113
c78 -46.667 140.667 -91.5 188 -134.5s81.5 -87.167 102.5 -132.5s31.5 -95.666 31.5 -150.999z" />
    <glyph glyph-name="T" unicode="T" horiz-adv-x="1208" 
d="M1137 1395c0 -22 -13 -33 -39 -33h-400v-1321c0 -12 -3.33301 -21.833 -10 -29.5s-15.334 -11.5 -26.001 -11.5h-113c-10.667 -0 -19.5 3.83301 -26.5 11.5s-10.5 17.5 -10.5 29.5v1321h-399c-27.333 0 -41 11 -41 33v90c0 9.33301 3.83301 17.833 11.5 25.5
s17.5 11.5 29.5 11.5h985c10.667 0 19.834 -3.5 27.501 -10.5s11.5 -15.833 11.5 -26.5v-90z" />
    <glyph glyph-name="U" unicode="U" horiz-adv-x="1356" 
d="M1196 74c0 -24 -3.99902 -40.166 -11.999 -48.499s-23 -14.166 -45 -17.499c-49.333 -7.33301 -118.833 -13.166 -208.5 -17.499s-165.834 -6.5 -228.501 -6.5c-94 0 -175.667 10 -245 30s-127.5 53 -174.5 99s-82 106.667 -105 182s-34.5 168.666 -34.5 279.999v906
c0 10 3.5 19.333 10.5 28s15.833 13 26.5 13h115c10 0 18.333 -4.16699 25 -12.5s10 -17.833 10 -28.5v-906c0 -114.667 13.333 -203.334 40 -266.001s67 -105.334 121 -128.001s126 -34 216 -34c89.333 0 190.333 4.33301 303 13v1321c0 10 3.33301 19.333 10 28
s15.667 13 27 13h112c11.333 0 20.333 -3.83301 27 -11.5s10 -17.5 10 -29.5v-1407z" />
    <glyph glyph-name="V" unicode="V" horiz-adv-x="1317" 
d="M1247 1487c0 -5.33301 -0.666992 -9.33301 -2 -12l-377 -1334c-16 -58 -43.167 -98.333 -81.5 -121s-80.833 -34 -127.5 -34c-110 0 -179.333 51.667 -208 155l-379 1334c-1.33301 2.66699 -2 6.66699 -2 12c0 10.667 3.5 19.167 10.5 25.5s15.5 9.5 25.5 9.5h119
c8.66699 0 16.5 -3 23.5 -9s11.5 -13.333 13.5 -22l356 -1305c9.33301 -28.667 23 -43 41 -43s31 14.333 39 43l359 1305c5.33301 20.667 17 31 35 31h120c23.333 0 35 -11.667 35 -35z" />
    <glyph glyph-name="W" unicode="W" horiz-adv-x="1829" 
d="M1669 545c0 -183.333 -34.6699 -322.336 -104.003 -417.003s-179.333 -142 -330 -142c-55.333 0 -108.5 3.66699 -159.5 11s-105.167 20.666 -162.5 39.999c-55.333 -19.333 -108.666 -32.666 -159.999 -39.999s-104.333 -11 -159 -11
c-150.667 0 -260.667 47.333 -330 142s-104 233.667 -104 417v938c0 10.667 3.83301 19.834 11.5 27.501s16.834 11.5 27.501 11.5h108c10 0 19 -3.66699 27 -11s12 -16.666 12 -27.999v-938c0 -68.667 4.33301 -128.834 13 -180.501s23.5 -93.667 44.5 -126
s50.167 -56.333 87.5 -72s84.666 -23.5 141.999 -23.5c78 0 140.667 6.33301 188 19v1321c0 10.667 3.83301 19.834 11.5 27.501s16.834 11.5 27.501 11.5h111c10 0 18.667 -3.66699 26 -11s11 -16 11 -26v-1323c22.667 -6 55 -10.667 97 -14s72.333 -5 91 -5
c75.333 0 134 14 176 42s71 70.667 87 128s24 134.666 24 231.999v938c0 10.667 3.83301 19.834 11.5 27.501s16.834 11.5 27.501 11.5h108c10 0 19 -3.66699 27 -11s12 -16.666 12 -27.999v-938z" />
    <glyph glyph-name="X" unicode="X" horiz-adv-x="1323" 
d="M1237 29c0 -19.333 -10.999 -29 -32.999 -29h-129c-10 -0 -17.167 1.83301 -21.5 5.5s-11.5 12.167 -21.5 25.5l-375 596l-366 -596c-13.333 -20.667 -27.666 -31 -42.999 -31h-121c-22 -0 -33 10.333 -33 31c0 7.33301 2 14 6 20l455 723l-451 699c-4 6 -6 12.667 -6 20
c0 19.333 10.333 29 31 29h133c17.333 0 29.666 -7 36.999 -21l369 -583l356 583c8.66699 14 21.667 21 39 21h121c9.33301 0 17.166 -2.83301 23.499 -8.5s9.5 -13.167 9.5 -22.5c0 -4.66699 -2.33301 -10.667 -7 -18l-440 -703l461 -719c4 -6 6 -13.333 6 -22z" />
    <glyph glyph-name="Y" unicode="Y" horiz-adv-x="1221" 
d="M1139 1493c0 -6 -2 -13.666 -6 -22.999l-428 -852v-577c0 -10.667 -3.5 -20.167 -10.5 -28.5s-15.833 -12.5 -26.5 -12.5h-117c-10 0 -18.333 4 -25 12s-10 17.667 -10 29v577l-428 852c-4 11.333 -6 19.666 -6 24.999c0 18 11 27 33 27h129c14 0 25.667 -9.66699 35 -29
l331 -694l332 694c8 19.333 19.667 29 35 29h127c23.333 0 35 -9.66699 35 -29z" />
    <glyph glyph-name="Z" unicode="Z" horiz-adv-x="1214" 
d="M1112 37c0 -11.333 -3.83301 -20.333 -11.5 -27s-17.5 -10 -29.5 -10h-788c-55.333 0 -97.5 14.5 -126.5 43.5s-43.5 65.167 -43.5 108.5c0 40 10 75.333 30 106l734 1067c4 6 6 11.333 6 16c0 10 -7 15 -21 15h-680c-10.667 0 -20.167 3.16699 -28.5 9.5
s-12.5 14.833 -12.5 25.5v96c0 10 4.16699 18.333 12.5 25s17.833 10 28.5 10h729c38 0 70.167 -6.66699 96.5 -20s45.833 -31.333 58.5 -54s19 -47.334 19 -74.001c0 -40 -10.667 -76 -32 -108l-731 -1067c-4.66699 -5.33301 -7 -11.666 -7 -18.999c0 -8 7 -12 21 -12h735
c27.333 0 41 -11.667 41 -35v-96z" />
    <glyph glyph-name="bracketleft" unicode="[" horiz-adv-x="670" 
d="M621 -356c0 -11.333 -4.33301 -21 -13 -29s-18 -12 -28 -12h-381c-10 0 -18.333 4 -25 12s-10 17 -10 27v1841c0 10 3.33301 19 10 27s15 12 25 12h381c10 0 19.333 -4.33301 28 -13s13 -18 13 -28v-68c0 -10 -4.33301 -19.333 -13 -28s-18 -13 -28 -13h-234v-1620h234
c11.333 0 21 -4 29 -12s12 -17.667 12 -29v-67z" />
    <glyph glyph-name="backslash" unicode="\" horiz-adv-x="727" 
d="M682 29c0 -8.66699 -2.66699 -15.667 -8 -21s-12.333 -8 -21 -8h-104c-16.667 0 -29 13.667 -37 41l-463 1440c-1.33301 2.66699 -2 6.66699 -2 12c0 6.66699 2.66699 13.167 8 19.5s12.333 9.5 21 9.5h104c15.333 0 27 -13.667 35 -41l465 -1440
c1.33301 -2.66699 2 -6.66699 2 -12z" />
    <glyph glyph-name="bracketright" unicode="]" horiz-adv-x="670" 
d="M506 -358c0 -11.333 -3.33301 -20.668 -10 -28.001s-15 -11 -25 -11h-381c-10 0 -19.333 4 -28 12s-13 17.667 -13 29v67c0 11.333 4 21 12 29s17.667 12 29 12h234v1620h-234c-10 0 -19.333 4.33301 -28 13s-13 18 -13 28v68c0 10 4.33301 19.333 13 28s18 13 28 13h381
c10 0 18.333 -3.66699 25 -11s10 -16.666 10 -27.999v-1841z" />
    <glyph glyph-name="asciicircum" unicode="^" 
d="M1034 1171c0 -12 -7.33496 -18 -22.002 -18h-123c-13.333 0 -22.166 1.66699 -26.499 5s-14.833 14 -31.5 32l-210 246l-211 -246c-12.667 -15.333 -22.167 -25.333 -28.5 -30s-16.166 -7 -29.499 -7h-123c-14.667 0 -22 6 -22 18c0 8 2.66699 15.667 8 23l236 305
c11.333 15.333 20.833 25.333 28.5 30s18.5 7 32.5 7h217c14 0 25.167 -2.5 33.5 -7.5s17.833 -14.833 28.5 -29.5l235 -305c5.33301 -7.33301 8 -15 8 -23z" />
    <glyph glyph-name="underscore" unicode="_" horiz-adv-x="1012" 
d="M1075 -184c0 -22 -13.667 -32.999 -41 -32.999h-1054c-27.333 0 -41 11 -41 33v51c0 10 3.83301 18 11.5 24s17.5 9 29.5 9h1054c12 0 21.833 -2.83301 29.5 -8.5s11.5 -13.834 11.5 -24.501v-51z" />
    <glyph glyph-name="grave" unicode="`" horiz-adv-x="762" 
d="M498 1290c0 -9.33301 -6.33203 -13.998 -18.999 -13.998h-110c-10 0 -17.333 1.83301 -22 5.5s-13 12.167 -25 25.5l-232 258c-5.33301 5.33301 -8 10.666 -8 15.999c0 9.33301 7.33301 14 22 14h136c11.333 0 20.166 -1.83301 26.499 -5.5s14.5 -11.834 24.5 -24.501
l198 -254c6 -5.33301 9 -12.333 9 -21z" />
    <glyph glyph-name="a" unicode="a" horiz-adv-x="1063" 
d="M924 78c0 -25.333 -10.332 -40.3369 -30.999 -45.0039c-106.667 -31.333 -222 -47 -346 -47c-108 0 -194.833 11.833 -260.5 35.5s-113.5 60.334 -143.5 110.001s-45 113.834 -45 192.501v18c0 76.667 16.167 139.334 48.5 188.001s84.833 84.834 157.5 108.501
s168.667 35.5 288 35.5h151v82c0 85.333 -16.333 144.5 -49 177.5s-89.334 49.5 -170.001 49.5c-126.667 0 -231 -4 -313 -12c-31.333 -2.66699 -47 8.33301 -47 33v71c0 22 14.333 35 43 39c108 18 213.667 27 317 27c266.667 0 400 -128.333 400 -385v-678z
M743.001 153.996v388.999h-151c-82 0 -145.5 -6.5 -190.5 -19.5s-76.333 -33.833 -94 -62.5s-26.5 -67.667 -26.5 -117v-18c0 -48 7.33301 -85.667 22 -113s41.5 -47.166 80.5 -59.499s93.5 -18.5 163.5 -18.5c30 0 65.333 2 106 6s70.667 8.33301 90 13z" />
    <glyph glyph-name="b" unicode="b" horiz-adv-x="1108" 
d="M1006 492c0 -104.667 -15.998 -194.667 -47.998 -270s-81.833 -133.5 -149.5 -174.5s-150.834 -61.5 -249.501 -61.5c-131.333 0 -257 11.333 -377 34c-18.667 4 -30.5 9.16699 -35.5 15.5s-7.5 17.166 -7.5 32.499v1433c0 10 3.5 19 10.5 27s15.833 12 26.5 12h105
c10.667 0 19.667 -3.66699 27 -11s11 -16.666 11 -27.999v-381c72.667 14 152.667 21 240 21c75.333 0 140.833 -11.167 196.5 -33.5s102.167 -54.5 139.5 -96.5s65.166 -94 83.499 -156s27.5 -134 27.5 -216v-147zM825.002 492l-0.00195312 147
c0 116 -20.167 202.333 -60.5 259s-108.833 85 -205.5 85c-49.333 0 -93.5 -0.833008 -132.5 -2.5s-74.833 -5.5 -107.5 -11.5v-813c101.333 -8.66699 181.333 -13 240 -13c64.667 0 116.834 13.167 156.501 39.5s67.834 65 84.501 116s25 115.5 25 193.5z" />
    <glyph glyph-name="c" unicode="c" horiz-adv-x="926" 
d="M836 53c0 -24.667 -13.668 -39.6689 -41.001 -45.002c-83.333 -14.667 -168.666 -22 -255.999 -22c-90 0 -168.333 20.333 -235 61s-117 98.334 -151 173.001s-51 162.334 -51 263.001v160c0 100 16.833 187.5 50.5 262.5s83.5 133 149.5 174s145 61.5 237 61.5
c84 0 169.333 -7.66699 256 -23c16 -2.66699 26.833 -7.16699 32.5 -13.5s8.5 -16.833 8.5 -31.5v-74c0 -20 -11.667 -30 -35 -30h-8c-84.667 9.33301 -169.334 14 -254.001 14c-170.667 0 -256 -113.333 -256 -340v-160c0 -112.667 21.833 -197.5 65.5 -254.5
s107.167 -85.5 190.5 -85.5c86.667 0 171.334 5 254.001 15h8c23.333 0 35 -10.333 35 -31v-74z" />
    <glyph glyph-name="d" unicode="d" horiz-adv-x="1108" 
d="M969 68c0 -15.333 -2.83203 -26.3369 -8.49902 -33.0039s-17.167 -11.667 -34.5 -15c-120 -22.667 -245.667 -34 -377 -34c-99.333 0 -182.5 20.5 -249.5 61.5s-116.667 99.667 -149 176s-48.5 165.833 -48.5 268.5v147c0 82 9.16699 153.833 27.5 215.5
s46.333 113.834 84 156.501s84.334 75 140.001 97s120.834 33 195.501 33c41.333 0 82.666 -1.66699 123.999 -5s79.666 -8.66602 114.999 -15.999v381c0 10.667 3.66699 19.834 11 27.501s16.666 11.5 27.999 11.5h105c10 0 18.667 -3.66699 26 -11s11 -16.666 11 -27.999
v-1433zM788.001 155.996l0.000976562 812.999c-31.333 6 -66.333 9.83301 -105 11.5s-83.334 2.5 -134.001 2.5c-64 0 -116 -13.167 -156 -39.5s-68.333 -64.666 -85 -114.999s-25 -113.5 -25 -189.5v-147c0 -117.333 20 -204.833 60 -262.5s108.667 -86.5 206 -86.5
c60 0 139.667 4.33301 239 13z" />
    <glyph glyph-name="e" unicode="e" horiz-adv-x="1114" 
d="M1012 551c0 -30 -13 -44.9971 -39 -44.9971h-686v-25c0 -76.667 11.667 -140.834 35 -192.501s57.166 -89.834 101.499 -114.501s98.5 -37 162.5 -37c50.667 0 109.5 3 176.5 9s124.833 12.667 173.5 20h10c22 0 33 -9.66699 33 -29v-69c0 -14 -2.83301 -24.5 -8.5 -31.5
s-16.5 -12.5 -32.5 -16.5c-56.667 -10.667 -113 -19 -169 -25s-117 -9 -183 -9c-87.333 0 -166.666 15.667 -237.999 47s-129.5 84.666 -174.5 159.999s-67.5 175 -67.5 299v143c0 96.667 17.667 183.5 53 260.5s87.5 137.167 156.5 180.5s150.833 65 245.5 65
c97.333 0 179.833 -21.5 247.5 -64.5s118.5 -102.5 152.5 -178.5s51 -163 51 -261v-86zM829 643.003v10c0 110 -22.333 192.5 -67 247.5s-111.667 82.5 -201 82.5c-58 0 -107.5 -12.667 -148.5 -38s-72.167 -63 -93.5 -113s-32 -109.667 -32 -179v-10h542z" />
    <glyph glyph-name="f" unicode="f" horiz-adv-x="731" 
d="M680 1438c0 -19.333 -14.334 -29 -43.001 -29h-182c-39.333 0 -68.333 -3.16699 -87 -9.5s-31.5 -19.5 -38.5 -39.5s-10.5 -50 -10.5 -90v-144h320c26 0 39 -12 39 -36v-70c0 -11.333 -3.66699 -20.333 -11 -27s-16.666 -10 -27.999 -10h-320v-942
c0 -12 -4 -21.833 -12 -29.5s-17.333 -11.5 -28 -11.5h-99c-10 0 -19.333 4 -28 12s-13 17.667 -13 29v1229c0 104.667 26.833 178.167 80.5 220.5s132.167 63.5 235.5 63.5c70.667 0 132 -4 184 -12c27.333 -3.33301 41 -15 41 -35v-69z" />
    <glyph glyph-name="g" unicode="g" horiz-adv-x="1108" 
d="M969 2c0 -102 -15.168 -182.501 -45.501 -241.501s-76 -101 -137 -126s-138.833 -37.5 -233.5 -37.5c-71.333 0 -138.333 3.66699 -201 11s-111.667 15.666 -147 24.999c-16.667 6 -27.667 11.667 -33 17s-8 14 -8 26v60c0 10 3.33301 18 10 24s15.667 9 27 9h6
c72 -8 135.667 -14.167 191 -18.5s107 -6.5 155 -6.5c65.333 0 114.333 6.66699 147 20s55.5 37.5 68.5 72.5s19.5 87.5 19.5 157.5v20c-26.667 -6.66699 -63.667 -13 -111 -19s-86.666 -9 -117.999 -9c-304.667 0 -457 167.667 -457 503v150
c0 169.333 37.667 295.333 113 378s190 124 344 124c106.667 0 229 -15.667 367 -47c17.333 -3.33301 28.833 -8.16602 34.5 -14.499s8.5 -17.166 8.5 -32.499v-1045zM787.999 159.999l-0.000976562 807c-80.667 14.667 -157 22 -229 22
c-51.333 0 -94.333 -6.33301 -129 -19s-62.834 -32.667 -84.501 -60s-37.5 -63.5 -47.5 -108.5s-15 -99.167 -15 -162.5v-150c0 -86.667 10.167 -155.667 30.5 -207s50.833 -88.333 91.5 -111s92 -34 154 -34c32.667 0 71.334 2.16699 116.001 6.5
s82.334 9.83301 113.001 16.5z" />
    <glyph glyph-name="h" unicode="h" horiz-adv-x="1141" 
d="M1001 41c0 -12 -4.00195 -21.834 -12.002 -29.501s-17.333 -11.5 -28 -11.5h-99c-10 0 -19.333 4 -28 12s-13 17.667 -13 29v688c0 172 -88.667 258 -266 258c-88 0 -166.667 -10.333 -236 -31v-915c0 -12 -4 -21.833 -12 -29.5s-17.333 -11.5 -28 -11.5h-99
c-10 0 -19.333 4 -28 12s-13 17.667 -13 29v1460c0 10 3.5 19 10.5 27s15.833 12 26.5 12h105c10.667 0 19.667 -3.66699 27 -11s11 -16.666 11 -27.999v-389c84.667 19.333 163.334 29 236.001 29c76.667 0 142.834 -9.5 198.501 -28.5s102 -47 139 -84
s64.333 -80.833 82 -131.5s26.5 -106.667 26.5 -168v-688z" />
    <glyph glyph-name="i" unicode="i" horiz-adv-x="506" 
d="M346 1348c0 -12 -4 -21.833 -12 -29.5s-17.667 -11.5 -29 -11.5h-104c-11.333 0 -21 4 -29 12s-12 17.667 -12 29v163c0 11.333 3.83301 21 11.5 29s17.5 12 29.5 12h104c12.667 0 22.667 -3.66699 30 -11s11 -17.333 11 -30v-163zM342 41c0 -12 -4 -21.833 -12 -29.5
s-17.667 -11.5 -29 -11.5h-98c-11.333 0 -21 4 -29 12s-12 17.667 -12 29v1044c0 11.333 3.83301 21 11.5 29s17.5 12 29.5 12h98c12.667 0 22.667 -3.66699 30 -11s11 -17.333 11 -30v-1044z" />
    <glyph glyph-name="j" unicode="j" horiz-adv-x="506" 
d="M346 1348c0 -12 -3.99902 -21.835 -11.999 -29.502s-17.667 -11.5 -29 -11.5h-106c-10 0 -19 4 -27 12s-12 17.667 -12 29v165c0 10.667 3.66699 19.834 11 27.501s16.666 11.5 27.999 11.5h106c11.333 0 21 -3.66699 29 -11s12 -16.666 12 -27.999v-165z
M342.001 -131.002c0 -69.333 -9.83203 -123.833 -29.499 -163.5s-48.667 -67.667 -87 -84s-85.5 -24.5 -141.5 -24.5c-37.333 0 -74.333 2.66699 -111 8c-24 4 -36 15 -36 33v75c0 19.333 14.333 29 43 29h86c39.333 0 65.166 8.5 77.499 25.5s18.5 50.833 18.5 101.5v1216
c0 11.333 3.83301 21 11.5 29s17.5 12 29.5 12h98c12.667 0 22.667 -3.66699 30 -11s11 -17.333 11 -30v-1216z" />
    <glyph glyph-name="k" unicode="k" horiz-adv-x="1016" 
d="M944 27c0 -18 -7.33301 -26.998 -22 -26.998h-148c-10 0 -18.167 1.66699 -24.5 5s-13.833 10.666 -22.5 21.999l-408 503v-489c0 -12 -4 -21.833 -12 -29.5s-17.333 -11.5 -28 -11.5h-99c-10 0 -19.333 4 -28 12s-13 17.667 -13 29v1458c0 11.333 4 21 12 29
s17.667 12 29 12h99c12 0 21.667 -3.66699 29 -11s11 -17.333 11 -30v-852l410 461c10 12 23.667 18 41 18h143c20.667 0 31 -7.33301 31 -22c0 -8.66699 -3.33301 -16.334 -10 -23.001l-451 -487l455 -549c4 -4 6 -10 6 -18z" />
    <glyph glyph-name="l" unicode="l" horiz-adv-x="500" 
d="M340 41c0 -12 -3.33301 -21.834 -10 -29.501s-15.667 -11.5 -27 -11.5h-106c-10.667 0 -19.5 3.83301 -26.5 11.5s-10.5 17.5 -10.5 29.5v1460c0 10 3.16699 19 9.5 27s15.5 12 27.5 12h106c11.333 0 20.333 -3.66699 27 -11s10 -16.666 10 -27.999v-1460z" />
    <glyph glyph-name="m" unicode="m" horiz-adv-x="1634" 
d="M1495 41c0 -12.667 -3.33105 -22.6631 -9.99805 -29.9961s-15.667 -11 -27 -11h-106c-11.333 0 -20.333 4 -27 12s-10 17.667 -10 29v741c0 81.333 -15.167 135.166 -45.5 161.499s-76.833 39.5 -139.5 39.5h-47c-47.333 0 -83 -3.5 -107 -10.5s-41.5 -20.667 -52.5 -41
s-16.5 -49.5 -16.5 -87.5v-803c0 -12.667 -3.33301 -22.667 -10 -30s-15.667 -11 -27 -11h-106c-11.333 0 -20.333 4 -27 12s-10 17.667 -10 29v803c0 56.667 -12 94 -36 112s-70.667 27 -140 27h-47c-62 0 -108.333 -13.333 -139 -40s-46 -80.334 -46 -161.001v-741
c0 -12.667 -3.33301 -22.667 -10 -30s-15.334 -11 -26.001 -11h-107c-10 0 -18.667 4 -26 12s-11 17.667 -11 29v741c0 52.667 7.66699 101.167 23 145.5s38.166 82.5 68.499 114.5s68.333 56.5 114 73.5s98.834 25.5 159.501 25.5h47c65.333 0 118.666 -5.5 159.999 -16.5
s76.666 -30.167 105.999 -57.5c30 26 66.167 44.833 108.5 56.5s94.833 17.5 157.5 17.5h47c60.667 0 114 -8.5 160 -25.5s84.333 -41.833 115 -74.5s53.334 -70.334 68.001 -113.001s22 -91.334 22 -146.001v-741z" />
    <glyph glyph-name="n" unicode="n" horiz-adv-x="1141" 
d="M1001 41c0 -12.667 -3.33496 -22.667 -10.002 -30s-15.334 -11 -26.001 -11h-107c-10 0 -18.667 4 -26 12s-11 17.667 -11 29v731c0 54 -5.16699 96 -15.5 126s-28.666 52 -54.999 66s-62.166 21 -107.499 21h-145c-68.667 0 -115.667 -16 -141 -48s-38 -87 -38 -165
v-731c0 -12.667 -3.33301 -22.667 -10 -30s-15.334 -11 -26.001 -11h-107c-10 0 -18.667 4 -26 12s-11 17.667 -11 29v731c0 96.667 18.833 172.5 56.5 227.5s83.334 92.333 137.001 112s108.834 29.5 165.501 29.5h145c94 0 177.167 -26.5 249.5 -79.5
s108.5 -149.5 108.5 -289.5v-731z" />
    <glyph glyph-name="o" unicode="o" horiz-adv-x="1116" 
d="M1014 485c0 -101.333 -17.332 -189.333 -51.999 -264s-86.334 -132.5 -155.001 -173.5s-152 -61.5 -250 -61.5c-146.667 0 -259.167 44.833 -337.5 134.5s-117.5 211.167 -117.5 364.5v156c0 154 39.167 275.833 117.5 365.5s190.833 134.5 337.5 134.5
c76 0 142.167 -11.667 198.5 -35s103.833 -56.833 142.5 -100.5s67.667 -96.5 87 -158.5s29 -130.667 29 -206v-156zM834.001 485v156.002c0 108 -22.667 192 -68 252s-115 90 -209 90c-92 0 -160.667 -29.833 -206 -89.5s-68 -143.834 -68 -252.501v-156
c0 -228 91.333 -342 274 -342c93.333 0 162.833 29.667 208.5 89s68.5 143.666 68.5 252.999z" />
    <glyph glyph-name="p" unicode="p" horiz-adv-x="1108" 
d="M1006 487c0 -162 -37.6709 -285.998 -113.004 -371.998s-186.666 -129 -333.999 -129c-76 0 -156 7.33301 -240 22v-370c0 -10.667 -3.5 -19.834 -10.5 -27.501s-16.167 -11.5 -27.5 -11.5h-105c-10 0 -18.667 3.66699 -26 11s-11 16.666 -11 27.999v1409
c0 14 3 24.333 9 31s17.333 12 34 16c34.667 8.66699 74.334 16.667 119.001 24s88.334 13 131.001 17s85 6 127 6c99.333 0 182.333 -20.5 249 -61.5s116.334 -99.5 149.001 -175.5s49 -165.667 49 -269v-148zM824.996 487.002v147.999
c0 114.667 -20.333 202.334 -61 263.001s-109 91 -205 91c-82.667 0 -162.667 -6.66699 -240 -20v-811c73.333 -14 153.333 -21 240 -21c96 0 164.333 29.333 205 88s61 146 61 262z" />
    <glyph glyph-name="q" unicode="q" horiz-adv-x="1108" 
d="M969 -362c0 -10 -3.66602 -19.002 -10.999 -27.002s-16 -12 -26 -12h-105c-10.667 0 -19.834 3.83301 -27.501 11.5s-11.5 16.834 -11.5 27.501v370c-80.667 -14.667 -160.334 -22 -239.001 -22c-146.667 0 -257.834 43.167 -333.501 129.5
s-113.5 210.166 -113.5 371.499v148c0 77.333 9 147 27 209s45.5 115.333 82.5 160s83.333 78.667 139 102s121.834 35 198.501 35c41.333 0 83.5 -2 126.5 -6s86.833 -9.66699 131.5 -17s84.334 -15.333 119.001 -24c17.333 -3.33301 28.833 -8.16602 34.5 -14.499
s8.5 -17.166 8.5 -32.499v-1409zM788.001 157.998l-0.00195312 811c-29.333 4.66699 -52.166 8 -68.499 10s-41.666 4.16699 -75.999 6.5s-65.833 3.5 -94.5 3.5c-97.333 0 -166 -30.167 -206 -90.5s-60 -148.166 -60 -263.499v-148c0 -56.667 4.83301 -106.667 14.5 -150
s24.667 -79.5 45 -108.5s47.333 -51.5 81 -67.5s75.5 -24 125.5 -24c36 0 75 1.66699 117 5s82.667 8.66602 122 15.999z" />
    <glyph glyph-name="r" unicode="r" horiz-adv-x="725" 
d="M647 1016c0 -12.667 -2.83301 -21.333 -8.5 -26s-17.167 -7 -34.5 -7c-124.667 0 -219.667 -6.66699 -285 -20v-922c0 -12 -3.33301 -21.833 -10 -29.5s-15.334 -11.5 -26.001 -11.5h-107c-9.33301 -0 -17.833 3.83301 -25.5 11.5s-11.5 17.5 -11.5 29.5v995
c0 20 12.333 35.667 37 47c55.333 24 114.833 39.667 178.5 47s146.834 11 249.501 11c16 0 27.167 -1.83301 33.5 -5.5s9.5 -12.167 9.5 -25.5v-94z" />
    <glyph glyph-name="s" unicode="s" horiz-adv-x="954" 
d="M852 283c0 -101.333 -34 -176.166 -102 -224.499s-161.667 -72.5 -281 -72.5c-46.667 0 -101.667 2.66699 -165 8s-116.333 12.666 -159 21.999c-28.667 8 -43 21.667 -43 41v72c0 9.33301 3.66699 16.833 11 22.5s16 8.5 26 8.5h8c116.667 -15.333 224 -23 322 -23
c68.667 0 119.667 10.833 153 32.5s50 59.5 50 113.5c0 30.667 -11 58 -33 82s-62.333 53.333 -121 88l-207 122c-68.667 42 -120.667 86 -156 132s-53 99.667 -53 161c0 100 32.833 170.5 98.5 211.5s156.5 61.5 272.5 61.5c104 0 210.667 -9 320 -27
c25.333 -4 38 -17.667 38 -41v-67c0 -23.333 -11.333 -35 -34 -35h-6c-128 10.667 -234 16 -318 16c-66 0 -114.167 -7.83301 -144.5 -23.5s-45.5 -47.5 -45.5 -95.5c0 -28 10.667 -53.167 32 -75.5s57.666 -48.833 108.999 -79.5l203 -121
c82.667 -48.667 140.834 -97 174.501 -145s50.5 -102.667 50.5 -164z" />
    <glyph glyph-name="t" unicode="t" horiz-adv-x="731" 
d="M680 33c0 -20 -13.6689 -31.6689 -41.002 -35.002c-20.667 -3.33301 -51.667 -6.16602 -93 -8.49902s-76 -3.5 -104 -3.5c-67.333 0 -123 8.5 -167 25.5s-77.667 46.333 -101 88s-35 98.5 -35 170.5v1057c0 9.33301 3.83301 17.666 11.5 24.999s17.5 12 29.5 14l101 16h4
c10.667 0 19 -3.66699 25 -11s9 -16.666 9 -27.999v-217h320c26 0 39 -12 39 -36v-70c0 -11.333 -3.66699 -20.333 -11 -27s-16.666 -10 -27.999 -10h-320v-713c0 -28 2.83301 -51.667 8.5 -71s14 -33.666 25 -42.999s25.833 -15.833 44.5 -19.5s43.334 -5.5 74.001 -5.5
h166c28.667 0 43 -9.66699 43 -29v-69z" />
    <glyph glyph-name="u" unicode="u" horiz-adv-x="1141" 
d="M1001 467c0 -95.333 -14.165 -174.833 -42.498 -238.5s-64.5 -113 -108.5 -148s-89.833 -59.5 -137.5 -73.5s-91.834 -21 -132.501 -21h-19c-60 0 -121.667 13.5 -185 40.5s-118.666 76.333 -165.999 148s-71 169.167 -71 292.5v618c0 11.333 3.5 21 10.5 29
s15.833 12 26.5 12h107c11.333 0 20.166 -3.66699 26.499 -11s9.5 -17.333 9.5 -30v-618c0 -116 21.667 -199 65 -249s102.333 -75 177 -75h19c74.667 0 133.5 25 176.5 75s64.5 133 64.5 249v618c0 11.333 3.5 21 10.5 29s15.833 12 26.5 12h107
c11.333 0 20.166 -3.66699 26.499 -11s9.5 -17.333 9.5 -30v-618z" />
    <glyph glyph-name="v" unicode="v" horiz-adv-x="1085" 
d="M1006 1094c0 -7.33301 -0.667969 -13 -2.00098 -17l-263 -930c-30 -107.333 -96 -161 -198 -161c-45.333 0 -85.333 11.667 -120 35s-61 65.333 -79 126l-262 930c-1.33301 4 -2 9 -2 15c0 10.667 2.83301 19 8.5 25s13.834 9 24.501 9h112c20 0 33 -13 39 -39l230 -888
c6 -24.667 12.667 -41.5 20 -50.5s17 -13.5 29 -13.5c22.667 0 39 21.333 49 64l229 888c6 26 19 39 39 39h115c20.667 0 31 -10.667 31 -32z" />
    <glyph glyph-name="w" unicode="w" horiz-adv-x="1649" 
d="M1509 444c0 -166.667 -38.5 -284.667 -115.5 -354s-176.167 -104 -297.5 -104c-90 0 -180.333 16.333 -271 49c-90.667 -32.667 -181.334 -49 -272.001 -49c-121.333 0 -220.666 34.833 -297.999 104.5s-116 187.5 -116 353.5v641c0 11.333 4 21 12 29s17.667 12 29 12
h96c12.667 0 22.667 -3.66699 30 -11s11 -17.333 11 -30v-641c0 -73.333 9 -132.5 27 -177.5s45.5 -77.5 82.5 -97.5s84.5 -30 142.5 -30c24 0 47.167 2 69.5 6s53.833 11 94.5 21v919c0 11.333 4 21 12 29s17.667 12 29 12h100c12.667 0 22.667 -3.66699 30 -11
s11 -17.333 11 -30v-919c77.333 -18 132 -27 164 -27c86 0 149.5 23.5 190.5 70.5s61.5 125.167 61.5 234.5v641c0 11.333 4 21 12 29s17.667 12 29 12h96c12.667 0 22.667 -3.66699 30 -11s11 -17.333 11 -30v-641z" />
    <glyph glyph-name="x" unicode="x" horiz-adv-x="1059" 
d="M1016 23c0 -15.333 -9.00195 -23 -27.002 -23h-141c-12 -0 -21.667 5.33301 -29 16l-293 428l-293 -424c-6 -8.66699 -11 -14.167 -15 -16.5s-10.333 -3.5 -19 -3.5h-123c-16.667 0 -25 6.66699 -25 20c0 10 3.33301 19 10 27l369 526l-348 502
c-6.66699 11.333 -10 20.333 -10 27c0 16 10 24 30 24h134c14.667 0 28 -9.33301 40 -28l261 -385l262 385c8.66699 12.667 15.334 20.5 20.001 23.5s12.334 4.5 23.001 4.5h119c17.333 0 26 -8 26 -24c0 -6.66699 -3.33301 -15.667 -10 -27l-344 -489l375 -539
c5.33301 -7.33301 8 -15.333 8 -24z" />
    <glyph glyph-name="y" unicode="y" horiz-adv-x="1141" 
d="M1001 0c0 -78.667 -8.50098 -144.499 -25.501 -197.499s-43 -94.833 -78 -125.5s-77.667 -52.167 -128 -64.5s-112.166 -18.5 -185.499 -18.5c-134 0 -246.667 11.667 -338 35c-15.333 5.33301 -25.666 11 -30.999 17s-8 14.667 -8 26v58c0 10.667 3.33301 19 10 25
s15.667 9 27 9h6l75 -8c44 -4.66699 91.333 -8.5 142 -11.5s89.667 -4.5 117 -4.5c63.333 0 112.166 6.83301 146.499 20.5s58.666 39 72.999 76s21.5 91.5 21.5 163.5v10c-23.333 -6.66699 -59.166 -12.334 -107.499 -17.001s-88.166 -7 -119.499 -7
c-306 0 -459 141.333 -459 424v675c0 11.333 4 21 12 29s17.667 12 29 12h99c12 0 21.667 -3.66699 29 -11s11 -17.333 11 -30v-675c0 -103.333 23.167 -174.333 69.5 -213s116.166 -58 209.499 -58c72.667 0 147 9 223 27v919c0 11.333 4 21 12 29s17.667 12 29 12h99
c12 0 21.667 -3.66699 29 -11s11 -17.333 11 -30v-1085z" />
    <glyph glyph-name="z" unicode="z" horiz-adv-x="987" 
d="M885 41c0 -11.333 -4.33301 -21 -13 -29s-18 -12 -28 -12h-541c-64 0 -113.833 10.667 -149.5 32s-53.5 60.666 -53.5 117.999c0 52 15.667 97 47 135l529 657c5.33301 8 8 14.333 8 19c0 9.33301 -6.66699 14 -20 14h-498c-11.333 0 -21 4 -29 12s-12 17.667 -12 29v69
c0 11.333 3.83301 21 11.5 29s17.5 12 29.5 12h506c46 0 84.167 -4.5 114.5 -13.5s53 -23.667 68 -44s22.5 -48.166 22.5 -83.499c0 -48.667 -15.333 -91 -46 -127l-534 -668c-6.66699 -6.66699 -10 -14 -10 -22c0 -10.667 6.66699 -16 20 -16h537
c10 0 19.333 -4.33301 28 -13s13 -18 13 -28v-70z" />
    <glyph glyph-name="braceleft" unicode="{" horiz-adv-x="678" 
d="M623 -356c0 -11.333 -4.33398 -21.002 -13.001 -29.002s-18 -12 -28 -12h-105c-84.667 0 -149.334 8.5 -194.001 25.5s-75.667 45.5 -93 85.5s-26 97 -26 171v361c0 64.667 -8.5 115 -25.5 151s-49.5 71 -97.5 105v119c48.667 34.667 81.334 69.834 98.001 105.501
s25 84.834 25 147.501v365c0 74 8.83301 131.167 26.5 171.5s48.667 69 93 86s108.833 25.5 193.5 25.5h103c10 0 19.333 -4.33301 28 -13s13 -18 13 -28v-68c0 -10 -4.33301 -19.333 -13 -28s-18 -13 -28 -13h-93c-40 0 -70 -3.5 -90 -10.5s-33.5 -19.5 -40.5 -37.5
s-10.5 -46.333 -10.5 -85v-365c0 -73.333 -11 -135 -33 -185s-59.333 -93.333 -112 -130c52.667 -37.333 90 -80.333 112 -129s33 -110 33 -184v-361c0 -30 1.83301 -53 5.5 -69s10.334 -28.667 20.001 -38s24 -16 43 -20s43.167 -6 72.5 -6h95c11.333 0 21 -4 29 -12
s12 -17.667 12 -29v-67z" />
    <glyph glyph-name="bar" unicode="|" horiz-adv-x="510" 
d="M346 -358c0 -10.667 -3.5 -19.832 -10.5 -27.499s-15.833 -11.5 -26.5 -11.5h-106c-10 0 -19 4 -27 12s-12 17 -12 27v1841c0 10 4 19 12 27s17 12 27 12h106c10.667 0 19.5 -3.83301 26.5 -11.5s10.5 -16.834 10.5 -27.501v-1841z" />
    <glyph glyph-name="braceright" unicode="}" horiz-adv-x="678" 
d="M637 502c-48 -34 -80.499 -69.167 -97.499 -105.5s-25.5 -86.5 -25.5 -150.5v-361c0 -74 -8.66699 -131 -26 -171s-48.333 -68.5 -93 -85.5s-109.334 -25.5 -194.001 -25.5h-105c-10 0 -19.333 4 -28 12s-13 17.667 -13 29v67c0 11.333 4 21 12 29s17.667 12 29 12h94
c60 0 98.667 8.5 116 25.5s26 52.833 26 107.5v361c0 74 11 135.333 33 184s59.333 91.667 112 129c-52.667 36.667 -90 80 -112 130s-33 111.667 -33 185v365c0 55.333 -8.66699 91.333 -26 108s-56 25 -116 25h-92c-10 0 -19.333 4.33301 -28 13s-13 18 -13 28v68
c0 10 4.33301 19.333 13 28s18 13 28 13h103c84.667 0 149.167 -8.5 193.5 -25.5s75.333 -45.667 93 -86s26.5 -97.5 26.5 -171.5v-365c0 -62 8.5 -111.167 25.5 -147.5s49.5 -71.5 97.5 -105.5v-119z" />
    <glyph glyph-name="asciitilde" unicode="~" 
d="M1053 956c0 -87.333 -17.499 -152.832 -52.499 -196.499s-92.167 -65.5 -171.5 -65.5c-53.333 0 -105 19.333 -155 58l-150 118c-30.667 25.333 -52.834 42.333 -66.501 51s-27.5 13 -41.5 13c-35.333 0 -58.5 -9.5 -69.5 -28.5s-16.5 -49.833 -16.5 -92.5v-53
c0 -11.333 -4.33301 -21 -13 -29s-18 -12 -28 -12h-60c-10 0 -19.333 4 -28 12s-13 17.667 -13 29v53c0 57.333 8.83301 106 26.5 146s43.5 70 77.5 90s75.333 30 124 30c55.333 0 106.333 -19 153 -57l174 -139c16.667 -12.667 32.667 -22.667 48 -30s28 -11 38 -11
c24.667 0 43 3.66699 55 11s19.5 18.166 22.5 32.499s4.5 37.833 4.5 70.5v58c0 10 4.33301 19.333 13 28s18 13 28 13h60c10 0 19.333 -4.33301 28 -13s13 -18 13 -28v-58z" />
    <glyph glyph-name="uni00A0" unicode="&#xa0;" 
 />
    <glyph glyph-name="exclamdown" unicode="&#xa1;" horiz-adv-x="444" 
d="M313 895c0 -10.667 -3.83105 -19.833 -11.498 -27.5s-16.834 -11.5 -27.501 -11.5h-98c-10.667 0 -19.834 3.83301 -27.501 11.5s-11.5 16.834 -11.5 27.501v192c0 11.333 3.66699 20.666 11 27.999s16.666 11 27.999 11h98c10.667 0 19.834 -3.5 27.501 -10.5
s11.5 -16.5 11.5 -28.5v-192zM276.002 -415.999l-103.999 -0.000976562c-10.667 0 -19.834 3.83301 -27.501 11.5s-11.5 16.834 -11.5 27.501l14 1065c0 10 4 19 12 27s17.667 12 29 12h72c12 0 21.833 -3.83301 29.5 -11.5s11.5 -16.834 11.5 -27.501l16 -1065
c0 -11.333 -4 -20.666 -12 -27.999s-17.667 -11 -29 -11z" />
    <glyph glyph-name="cent" unicode="&#xa2;" 
d="M987 53c0 -14 -2.83398 -24.3301 -8.50098 -30.9971s-16.5 -11.334 -32.5 -14.001c-60.667 -9.33301 -124.667 -16 -192 -20v-185c0 -10 -4.33301 -19.333 -13 -28s-18 -13 -28 -13h-84c-11.333 0 -21 4.33301 -29 13s-12 18 -12 28v193
c-70 14 -130.167 42.667 -180.5 86s-88.5 99.166 -114.5 167.499s-39 146.166 -39 233.499v160c0 131.333 29.167 240.166 87.5 326.499s140.5 139.833 246.5 160.5v191c0 10 4 19.333 12 28s17.667 13 29 13h84c10 0 19.333 -4.33301 28 -13s13 -18 13 -28v-182
c60.667 -3.33301 124.667 -10.333 192 -21c16.667 -2.66699 27.667 -7.16699 33 -13.5s8 -16.833 8 -31.5v-74c0 -20 -11.667 -30 -35 -30h-8c-96 10.667 -180.667 16 -254 16c-82.667 0 -146 -28.5 -190 -85.5s-66 -142.5 -66 -256.5v-160
c0 -113.333 21.667 -198.666 65 -255.999s107 -86 191 -86c76.667 0 161.334 5.66699 254.001 17h8c23.333 0 35 -10.333 35 -31v-74z" />
    <glyph glyph-name="sterling" unicode="&#xa3;" 
d="M1075 35c0 -23.333 -13.668 -34.999 -41.001 -34.999h-817c-23.333 0 -35 10.333 -35 31v80c0 6.66699 1 12.167 3 16.5s4.5 8.83301 7.5 13.5l10.5 17c23.333 38.667 39.666 75.5 48.999 110.5s14 78.5 14 130.5v312h-106c-12 0 -21.167 3.5 -27.5 10.5
s-9.5 15.833 -9.5 26.5v86c0 9.33301 4 17.666 12 24.999s17.667 11 29 11h102v134c0 116 14 212 42 288s75.333 133 142 171s156.334 57 269.001 57c45.333 0 98.5 -2.66699 159.5 -8s113.5 -11.666 157.5 -18.999c16 -2.66699 26.5 -6.33398 31.5 -11.001
s7.5 -12.667 7.5 -24v-84c0 -23.333 -10.333 -35 -31 -35h-10c-125.333 15.333 -230.333 23 -315 23c-72 0 -126.833 -10.667 -164.5 -32s-64 -57.5 -79 -108.5s-22.5 -123.5 -22.5 -217.5v-134h440c10.667 0 19.834 -3.5 27.501 -10.5s11.5 -15.5 11.5 -25.5v-86
c0 -10.667 -4.16699 -19.5 -12.5 -26.5s-17.833 -10.5 -28.5 -10.5h-438v-312c0 -75.333 -24 -156.333 -72 -243h653c27.333 0 41 -10.333 41 -31v-90z" />
    <glyph glyph-name="currency" unicode="&#xa4;" 
d="M1122 1176c0 -11.333 -4.66602 -21.667 -13.999 -31l-168 -168c45.333 -64.667 68 -135.667 68 -213c0 -80 -23.333 -152.333 -70 -217l168 -168c9.33301 -9.33301 14 -19.666 14 -30.999c0 -9.33301 -3.33301 -17.333 -10 -24l-55 -56
c-6.66699 -6.66699 -14.334 -10 -23.001 -10c-10 0 -20.333 4.66699 -31 14l-172 172c-62.667 -44.667 -132 -67 -208 -67c-79.333 0 -150.333 22.333 -213 67l-168 -168c-12 -10.667 -23 -16 -33 -16c-6 0 -13 3.33301 -21 10l-55 58c-6.66699 8.66699 -10 16 -10 22
c0 11.333 4.66699 21.666 14 30.999l166 166c-46.667 62.667 -70 135 -70 217c0 78 22 148.333 66 211l-166 166c-9.33301 9.33301 -14 19.333 -14 30c0 12 3.33301 20.333 10 25l57 55c7.33301 7.33301 15 11 23 11s18.333 -5.66699 31 -17l163 -164
c65.333 46.667 137.666 70 216.999 70c78.667 0 151.334 -23.333 218.001 -70l168 168c10 10 20 15 30 15c9.33301 0 17 -3.66699 23 -11l55 -55c6.66699 -6.66699 10 -14 10 -22zM862.001 763.999c0 44 -10.999 84.832 -32.999 122.499s-52 67.334 -90 89.001
s-79 32.5 -123 32.5c-68 0 -125.833 -23.833 -173.5 -71.5s-71.5 -105.167 -71.5 -172.5c0 -44 11.167 -85 33.5 -123s52 -68 89 -90s77.833 -33 122.5 -33s85.667 11 123 33s67.166 52 89.499 90s33.5 79 33.5 123z" />
    <glyph glyph-name="yen" unicode="&#xa5;" 
d="M1165 473c0 -11.333 -4 -20.999 -12 -28.999s-17.667 -12 -29 -12h-409v-391c0 -10.667 -3.5 -20.167 -10.5 -28.5s-15.833 -12.5 -26.5 -12.5h-117c-10 0 -18.333 4 -25 12s-10 17.667 -10 29v391h-411c-11.333 0 -21 4.33301 -29 13s-12 18 -12 28v62
c0 10.667 3.83301 20 11.5 28s17.5 12 29.5 12h411v43l-112 226h-299c-11.333 0 -21 4 -29 12s-12 17.667 -12 29v61c0 11.333 3.83301 21 11.5 29s17.5 12 29.5 12h227l-244 483c-4 11.333 -6 19.666 -6 24.999c0 18 11 27 33 27h129c15.333 0 27 -9.66699 35 -29l332 -694
l331 694c8 19.333 19.667 29 35 29h127c23.333 0 35 -9.66699 35 -29c0 -6 -2 -13.667 -6 -23l-244 -483h225c12.667 0 22.667 -3.66699 30 -11s11 -17.333 11 -30v-61c0 -12 -4 -21.833 -12 -29.5s-17.667 -11.5 -29 -11.5h-297l-112 -226v-43h409
c12.667 0 22.667 -3.66699 30 -11s11 -17 11 -29v-62z" />
    <glyph glyph-name="brokenbar" unicode="&#xa6;" horiz-adv-x="510" 
d="M346 741c0 -10 -3.5 -19.333 -10.5 -28s-15.833 -13 -26.5 -13h-108c-10.667 0 -19.5 4.33301 -26.5 13s-10.5 18 -10.5 28v711c0 10.667 3.33301 19.834 10 27.501s15.667 11.5 27 11.5h108c11.333 0 20.333 -3.83301 27 -11.5s10 -16.834 10 -27.501v-711zM346 -391
c0 -11.333 -3.5 -21 -10.5 -29s-15.833 -12 -26.5 -12h-108c-10.667 0 -19.5 4 -26.5 12s-10.5 17.667 -10.5 29v710c0 10.667 3.33301 19.834 10 27.501s15.667 11.5 27 11.5h108c11.333 0 20.333 -3.83301 27 -11.5s10 -16.834 10 -27.501v-710z" />
    <glyph glyph-name="section" unicode="&#xa7;" horiz-adv-x="1120" 
d="M1022 -35c0 -119.333 -38.001 -216.997 -114.001 -292.997s-206.667 -114 -392 -114c-109.333 0 -224 9.33301 -344 28c-10 2 -19 6.5 -27 13.5s-12 15.5 -12 25.5v86c0 10.667 4.16699 19.167 12.5 25.5s17.833 9.5 28.5 9.5h4c148 -13.333 258.667 -20 332 -20h6
c115.333 0 195.333 20.5 240 61.5s67 100.167 67 177.5c0 36.667 -6 68.167 -18 94.5s-33.5 52.5 -64.5 78.5s-77.167 57 -138.5 93l-229 138c-51.333 31.333 -95.5 62.166 -132.5 92.499s-65.667 60.5 -86 90.5s-34.833 61.167 -43.5 93.5s-13 68.5 -13 108.5
c0 39.333 5.83301 75.666 17.5 108.999s29.167 68.666 52.5 105.999c-22.667 24.667 -40 55.167 -52 91.5s-18 74.833 -18 115.5c0 77.333 16.167 142.5 48.5 195.5s85 93.667 158 122s167.5 42.5 283.5 42.5c52 0 119 -3.33301 201 -10s134.333 -12.334 157 -17.001
c24.667 -4.66699 37 -17.667 37 -39v-88c0 -10 -3.5 -18.167 -10.5 -24.5s-15.833 -9.5 -26.5 -9.5h-2c-20.667 0.666992 -72.667 3.83398 -156 9.50098s-150 8.5 -200 8.5c-115.333 0 -193.333 -14.5 -234 -43.5s-61 -77.833 -61 -146.5c0 -32 5.83301 -59.833 17.5 -83.5
s31.834 -47.167 60.501 -70.5s71.667 -52 129 -86l223 -131c58 -33.333 107.333 -67 148 -101s71.667 -66.833 93 -98.5s36.333 -64.167 45 -97.5s13 -71 13 -113c0 -88 -19.667 -162.333 -59 -223c39.333 -57.333 59 -126.333 59 -207zM833.999 395.003
c0 38 -6.16992 69.667 -18.5029 95s-33.666 50.5 -63.999 75.5s-72.5 54.167 -126.5 87.5l-185 113c-4.66699 3.33301 -25.167 16.5 -61.5 39.5s-64.833 41.833 -85.5 56.5c-8 -24.667 -13.167 -42.5 -15.5 -53.5s-3.5 -29.167 -3.5 -54.5c0 -46 14.833 -87.167 44.5 -123.5
s75.834 -73.166 138.501 -110.499l225 -131c47.333 -28 93 -57.333 137 -88c6.66699 19.333 10.834 33.666 12.501 42.999s2.5 26.333 2.5 51z" />
    <glyph glyph-name="dieresis" unicode="&#xa8;" horiz-adv-x="764" 
d="M643 1352c0 -11.333 -4 -20.666 -12 -27.999s-17.667 -11 -29 -11h-80c-10 0 -19.333 3.66699 -28 11s-13 16.666 -13 27.999v166c0 10 4.33301 19.333 13 28s18 13 28 13h80c11.333 0 21 -4.33301 29 -13s12 -18 12 -28v-166zM285 1352
c0 -11.333 -4.33301 -20.666 -13 -27.999s-18 -11 -28 -11h-80c-11.333 0 -21 3.66699 -29 11s-12 16.666 -12 27.999v166c0 10 4 19.333 12 28s17.667 13 29 13h80c10 0 19.333 -4.33301 28 -13s13 -18 13 -28v-166z" />
    <glyph glyph-name="copyright" unicode="&#xa9;" horiz-adv-x="1536" 
d="M1434 766c0 -120 -30.002 -230.999 -90.002 -332.999s-141.5 -182.667 -244.5 -242s-214.167 -89 -333.5 -89s-230.166 29.667 -332.499 89s-183.166 140.166 -242.499 242.499s-89 213.166 -89 332.499c0 120 29.667 231.5 89 334.5s140 184.667 242 245
s213 90.5 333 90.5c90 0 176 -17.333 258 -52s153.833 -83.167 215.5 -145.5s109.5 -134.166 143.5 -215.499s51 -167 51 -257zM1343 766.001c0 104.667 -25.666 201.334 -76.999 290.001s-121.5 159.167 -210.5 211.5s-185.5 78.5 -289.5 78.5
c-103.333 0 -199.5 -26 -288.5 -78s-159.167 -122.5 -210.5 -211.5s-77 -185.833 -77 -290.5s25.667 -201 77 -289s121.333 -157.333 210 -208s185 -76 289 -76c78 0 152.167 14.5 222.5 43.5s132.166 69.667 185.499 122s94.833 113.666 124.5 183.999
s44.5 144.833 44.5 223.5zM974.999 375.001c0 -18 -10.334 -28.332 -31.001 -30.999c-48 -9.33301 -110 -14 -186 -14c-62 0 -116.333 12.667 -163 38s-83.5 66 -110.5 122s-40.5 127.667 -40.5 215v135c0 129.333 28.833 224.5 86.5 285.5s133.5 91.5 227.5 91.5
c65.333 0 127.333 -5.66699 186 -17c20.667 -2.66699 31 -12.334 31 -29.001v-57c0 -16 -9 -24 -27 -24h-6c-71.333 6.66699 -132.666 10 -183.999 10c-56.667 0 -102 -20.333 -136 -61s-51 -107 -51 -199v-135c0 -172.667 62.333 -259 187 -259
c44 0 105.333 3.66699 184 11h4c19.333 0 29 -9 29 -27v-55z" />
    <glyph glyph-name="ordfeminine" unicode="&#xaa;" horiz-adv-x="618" 
d="M541 922c0 -18.667 -6.99707 -29.665 -20.9971 -32.998c-60 -18 -127 -27 -201 -27c-90.667 0 -156.334 16.167 -197.001 48.5s-61 83.166 -61 152.499v14c0 65.333 23.5 113.166 70.5 143.499s120.5 45.5 220.5 45.5h66v26c0 48 -8.33301 81.5 -25 100.5
s-45.334 28.5 -86.001 28.5c-36 0 -93.333 -3.33301 -172 -10h-4c-19.333 0 -29 9 -29 27v43c0 16 10.333 25.333 31 28c63.333 12.667 121.333 19 174 19c81.333 0 140.666 -19.667 177.999 -59s56 -98.333 56 -177v-370zM420.003 969.002v211h-47h-19
c-42.667 -0.666992 -77 -4.5 -103 -11.5s-44.333 -17.833 -55 -32.5s-16 -34.334 -16 -59.001v-14c0 -37.333 9.83301 -64.166 29.5 -80.499s56.167 -24.5 109.5 -24.5c25.333 0 59 3.66699 101 11z" />
    <glyph glyph-name="guillemotleft" unicode="&#xab;" horiz-adv-x="1257" 
d="M1147 162c0 -12.667 -7.66699 -19 -23 -19h-118c-15.333 0 -29.666 7 -42.999 21l-347 346c-14.667 14.667 -22 33.667 -22 57c0 22.667 7.33301 42 22 58l347 346c13.333 13.333 27.666 20 42.999 20h118c15.333 0 23 -6 23 -18c0 -10 -4 -19 -12 -27l-365 -379
l365 -379c8 -8 12 -16.667 12 -26zM614 162c0 -12.667 -7.33301 -19 -22 -19h-119c-15.333 0 -29.666 7 -42.999 21l-346 346c-15.333 15.333 -23 34.333 -23 57c0 22 7.66699 41.333 23 58l346 346c13.333 13.333 27.666 20 42.999 20h119c7.33301 0 12.833 -1.5 16.5 -4.5
s5.5 -7.5 5.5 -13.5c0 -10 -4 -19 -12 -27l-364 -379l364 -379c8 -8 12 -16.667 12 -26z" />
    <glyph glyph-name="logicalnot" unicode="&#xac;" 
d="M1055 506c0 -11.333 -4.33301 -21 -13 -29s-18 -12 -28 -12h-66c-10 0 -19.333 4 -28 12s-13 17.667 -13 29v448h-682c-10.667 0 -20.167 3 -28.5 9s-12.5 14 -12.5 24v82c0 22 13.667 33 41 33h795c6.66699 0 12.667 -1.5 18 -4.5s9.5 -7.16699 12.5 -12.5
s4.5 -11.333 4.5 -18v-561z" />
    <glyph glyph-name="uni00AD" unicode="&#xad;" horiz-adv-x="682" 
d="M584 559c0 -10.667 -3.83105 -19.167 -11.498 -25.5s-16.834 -9.5 -27.501 -9.5h-408c-26 0 -39 11.667 -39 35v80c0 10 3.66699 18.667 11 26s16.666 11 27.999 11h408c12 0 21.5 -3.16699 28.5 -9.5s10.5 -15.5 10.5 -27.5v-80z" />
    <glyph glyph-name="registered" unicode="&#xae;" horiz-adv-x="1225" 
d="M1165 991c0 -100 -24.8311 -192 -74.498 -276s-116.834 -150.5 -201.501 -199.5s-177 -73.5 -277 -73.5c-99.333 0 -191.333 24.5 -276 73.5s-151.667 115.5 -201 199.5s-74 176 -74 276s24.667 192.167 74 276.5s116.166 151.166 200.499 200.499s176.5 74 276.5 74
c100.667 0 193.167 -24.667 277.5 -74s151.333 -116.166 201 -200.499s74.5 -176.5 74.5 -276.5zM1081 991c0 84.667 -20.998 162.998 -62.998 234.998s-99 129 -171 171s-150.333 63 -235 63c-85.333 0 -163.333 -21 -234 -63s-126.834 -99.167 -168.501 -171.5
s-62.5 -150.5 -62.5 -234.5c0 -84.667 20.667 -162.667 62 -234s97.666 -127.666 168.999 -168.999s149.333 -62 234 -62c84 0 162.167 20.833 234.5 62.5s129.5 97.834 171.5 168.501s63 148.667 63 234zM870.004 677.998c0 -18 -8 -26.998 -24 -26.998h-58
c-10.667 0 -18.667 5.66699 -24 17l-166 262l-20 6h-86v-254c0 -8 -2.83301 -15.167 -8.5 -21.5s-12.5 -9.5 -20.5 -9.5h-51c-8 0 -14.5 3.5 -19.5 10.5s-7.5 13.833 -7.5 20.5v618c0 28 12.333 43.333 37 46c31.333 4 83.333 6 156 6c88.667 0 155.5 -15.833 200.5 -47.5
s67.5 -84.834 67.5 -159.501v-8c0 -96.667 -45.667 -158.334 -137 -185.001l157 -256c2.66699 -5.33301 4 -11.333 4 -18zM743.004 1137v8c0 40.667 -12.167 69.167 -36.5 85.5s-65.166 24.5 -122.499 24.5h-66h-29v-229c20.667 0 38 -0.166992 52 -0.5
s28.333 -0.833008 43 -1.5c57.333 0 98.166 8.66699 122.499 26s36.5 46.333 36.5 87z" />
    <glyph glyph-name="uni00AF" unicode="&#xaf;" horiz-adv-x="1012" 
d="M1075 1655c0 -22 -13.667 -32.999 -41 -32.999h-1054c-27.333 0 -41 11 -41 33v51c0 10 3.83301 18 11.5 24s17.5 9 29.5 9h1054c12 0 21.833 -2.83301 29.5 -8.5s11.5 -13.834 11.5 -24.501v-51z" />
    <glyph glyph-name="degree" unicode="&#xb0;" horiz-adv-x="700" 
d="M643 1245c0 -53.333 -13 -102.168 -39 -146.501s-61.167 -79.5 -105.5 -105.5s-93.166 -39 -146.499 -39s-102.166 13.167 -146.499 39.5s-79.833 62 -106.5 107s-40 93.167 -40 144.5s13.333 99.5 40 144.5s62.167 80.667 106.5 107s93.166 39.5 146.499 39.5
s102.166 -13 146.499 -39s79.5 -61.167 105.5 -105.5s39 -93.166 39 -146.499zM532 1245c0 31.333 -8.16699 61 -24.5 89s-38.166 50.167 -65.499 66.5s-57.333 24.5 -90 24.5c-32 0 -61.833 -8.16699 -89.5 -24.5s-49.667 -38.333 -66 -66s-24.5 -57.5 -24.5 -89.5
s8.16699 -61.833 24.5 -89.5s38.333 -49.667 66 -66s57.5 -24.5 89.5 -24.5c32.667 0 62.667 8.16699 90 24.5s49.166 38.5 65.499 66.5s24.5 57.667 24.5 89z" />
    <glyph glyph-name="plusminus" unicode="&#xb1;" 
d="M1085 760c0 -22 -13.667 -33 -41 -33h-352v-350c0 -27.333 -11 -41 -33 -41h-81c-22 0 -33 13.667 -33 41v350h-350c-27.333 0 -41 11 -41 33v82c0 21.333 13.667 32 41 32h350v353c0 27.333 11 41 33 41h81c22 0 33 -13.667 33 -41v-353h352c27.333 0 41 -10.667 41 -32
v-82zM1085 18c0 -21.333 -13.667 -32 -41 -32h-849c-27.333 0 -41 10.667 -41 32v68c0 22 13.667 33 41 33h849c27.333 0 41 -11 41 -33v-68z" />
    <glyph glyph-name="twosuperior" unicode="&#xb2;" horiz-adv-x="698" 
d="M608 1325c0 -44 -11.667 -83.168 -35 -117.501s-62.666 -70.166 -117.999 -107.499l-107 -72c-56.667 -38.667 -93 -73.167 -109 -103.5s-24 -68.833 -24 -115.5v-8h360c18 0 27 -7 27 -21v-75c0 -14 -9 -21 -27 -21h-460c-16.667 0 -25 8.33301 -25 25v79
c0 72.667 13.167 133.167 39.5 181.5s73.833 96.5 142.5 144.5l113 78c28 19.333 47.833 34.833 59.5 46.5s19.667 23.834 24 36.501s6.5 29.334 6.5 50.001c0 37.333 -11.167 62.666 -33.5 75.999s-65.833 20 -130.5 20c-58.667 0 -119.334 -5.33301 -182.001 -16h-6
c-14 0 -21 6.66699 -21 20v64c0 9.33301 8.33301 16.666 25 21.999c65.333 16.667 131 25 197 25c94.667 0 165.667 -16.333 213 -49s71 -86.667 71 -162z" />
    <glyph glyph-name="threesuperior" unicode="&#xb3;" horiz-adv-x="692" 
d="M602 1311c0 -82.667 -33.333 -144.333 -100 -185c36.667 -21.333 62.167 -47.666 76.5 -78.999s21.5 -64.333 21.5 -99v-22c0 -82.667 -26.5 -143.667 -79.5 -183s-126.167 -59 -219.5 -59c-72 0 -135.333 8.33301 -190 25c-14 5.33301 -21 12.666 -21 21.999v60
c0 14.667 7 22 21 22h4c57.333 -8 107.666 -12 150.999 -12c75.333 0 128.333 8.5 159 25.5s46 50.167 46 99.5v22c0 33.333 -9.16699 62.5 -27.5 87.5s-50.166 37.5 -95.499 37.5h-205c-16 0 -24 7.66699 -24 23v63c0 15.333 8 23 24 23h201c84.667 0 127 39.333 127 118
v13c0 42.667 -16 71 -48 85s-81 21 -147 21h-12c-31.333 0 -80.333 -4.66699 -147 -14h-4c-14 0 -21 7.33301 -21 22v62c0 12 7.66699 19.333 23 22c58 16.667 120 25 186 25c95.333 0 169.333 -16.167 222 -48.5s79 -86.5 79 -162.5v-14z" />
    <glyph glyph-name="acute" unicode="&#xb4;" horiz-adv-x="764" 
d="M682 1581c0 -5.33301 -2.66895 -10.667 -8.00195 -16l-232 -258c-12 -13.333 -20.333 -21.833 -25 -25.5s-12 -5.5 -22 -5.5h-110c-12.667 0 -19 4.66699 -19 14c0 8.66699 2.66699 15.667 8 21l201 254c12.667 14 21.334 22.5 26.001 25.5s12.334 4.5 23.001 4.5h135
c15.333 0 23 -4.66699 23 -14z" />
    <glyph glyph-name="uni00B5" unicode="&#xb5;" horiz-adv-x="1141" 
d="M1001 90c0 -23.333 -12.665 -39.001 -37.998 -47.001c-50 -18 -109.333 -32 -178 -42s-135.667 -15 -201 -15c-108 0 -196.333 19.667 -265 59v-405c0 -12.667 -4 -22.667 -12 -30s-17.333 -11 -28 -11h-99c-10 0 -19.333 4 -28 12s-13 17.667 -13 29v1445
c0 11.333 3.66699 21 11 29s16.666 12 27.999 12h103c11.333 0 20.5 -3.83301 27.5 -11.5s10.5 -17.5 10.5 -29.5v-673c0 -95.333 21.333 -164.666 64 -207.999s109.667 -65 201 -65c40 0 82.167 2.66699 126.5 8s81.166 12.333 110.499 21v917
c0 10.667 4.16699 20.167 12.5 28.5s17.833 12.5 28.5 12.5h101c11.333 0 20.5 -3.83301 27.5 -11.5s10.5 -17.5 10.5 -29.5v-995z" />
    <glyph glyph-name="paragraph" unicode="&#xb6;" horiz-adv-x="1274" 
d="M1141 -360c0 -10 -3.33203 -19.002 -9.99902 -27.002s-15 -12 -25 -12h-47c-10 0 -18.333 4 -25 12s-10 17 -10 27v1771h-119v-1771c0 -11.333 -3.33301 -20.666 -10 -27.999s-15 -11 -25 -11h-47c-10 0 -18.333 4 -25 12s-10 17 -10 27v899h-213
c-93.333 0 -176.833 17.833 -250.5 53.5s-130.834 87.667 -171.501 156s-61 150.5 -61 246.5v70c0 96 20.333 178.333 61 247s97.667 120.834 171 156.501s157 53.5 251 53.5h533c22 0 33 -13 33 -39v-1843z" />
    <glyph glyph-name="uni00B7" unicode="&#xb7;" horiz-adv-x="438" 
d="M307 707c0 -12 -3.83203 -21.834 -11.499 -29.501s-16.834 -11.5 -27.501 -11.5h-98c-10 0 -19 4 -27 12s-12 17.667 -12 29v190c0 10.667 3.66699 19.834 11 27.501s16.666 11.5 27.999 11.5h98c10.667 0 19.834 -3.5 27.501 -10.5s11.5 -16.5 11.5 -28.5v-190z" />
    <glyph glyph-name="cedilla" unicode="&#xb8;" horiz-adv-x="750" 
d="M520 -80c0 -5.33301 -2.66699 -10.666 -8 -15.999l-231 -258c-11.333 -12 -19.666 -20.167 -24.999 -24.5s-13 -6.5 -23 -6.5h-110c-12.667 0 -19 4.66699 -19 14c0 8.66699 3 15.667 9 21l198 254c12 13.333 20.667 21.666 26 24.999s13.666 5 24.999 5h136
c14.667 0 22 -4.66699 22 -14z" />
    <glyph glyph-name="onesuperior" unicode="&#xb9;" horiz-adv-x="578" 
d="M393 707c0 -15.333 -6.66699 -23 -20 -23h-92c-12.667 0 -19 7.66699 -19 23v684l-147 -64c-8 -2.66699 -13 -4 -15 -4c-6.66699 0 -10 4 -10 12v86c0 8.66699 4.66699 15 14 19l150 67c19.333 10 36.333 15 51 15h66c6.66699 0 12 -2 16 -6s6 -9 6 -15v-794z" />
    <glyph glyph-name="ordmasculine" unicode="&#xba;" horiz-adv-x="659" 
d="M596 1159c0 -63.333 -10.001 -117.165 -30.001 -161.498s-49.667 -78 -89 -101s-87.666 -34.5 -144.999 -34.5c-86 0 -151.833 25.667 -197.5 77s-68.5 124.666 -68.5 219.999v72c0 95.333 22.833 168.666 68.5 219.999s111.5 77 197.5 77s151.5 -25.5 196.5 -76.5
s67.5 -124.5 67.5 -220.5v-72zM470.999 1159v72c0 64 -10.833 111.333 -32.5 142s-57.167 46 -106.5 46s-85.666 -15.5 -108.999 -46.5s-35 -78.167 -35 -141.5v-72c0 -63.333 11.667 -110.833 35 -142.5s59.666 -47.5 108.999 -47.5s84.833 15.833 106.5 47.5
s32.5 79.167 32.5 142.5z" />
    <glyph glyph-name="guillemotright" unicode="&#xbb;" horiz-adv-x="1257" 
d="M1196 567c0 -9.33301 -1.66699 -19.167 -5 -29.5s-9 -19.5 -17 -27.5l-347 -346c-13.333 -14 -27.666 -21 -42.999 -21h-118c-15.333 0 -23 6.33301 -23 19c0 9.33301 4 18 12 26l365 379l-365 379c-8 8 -12 17 -12 27c0 12 7.66699 18 23 18h118
c15.333 0 29.666 -6.66699 42.999 -20l347 -346c14.667 -16 22 -35.333 22 -58zM664 566.999c0 -22.667 -7.66699 -41.667 -23 -57l-346 -346c-13.333 -14 -27.666 -21 -42.999 -21h-119c-14.667 0 -22 6.33301 -22 19c0 9.33301 4 18 12 26l364 379l-364 379
c-8 8 -12 17 -12 27c0 12 7.33301 18 22 18h119c15.333 0 29.666 -6.66699 42.999 -20l346 -346c15.333 -16.667 23 -36 23 -58z" />
    <glyph glyph-name="onequarter" unicode="&#xbc;" horiz-adv-x="1528" 
d="M1438 233c0 -14.667 -8.33301 -21.999 -25 -21.999h-82v-184c0 -6.66699 -2.16699 -12.834 -6.5 -18.501s-9.5 -8.5 -15.5 -8.5h-86c-15.333 0 -23 9 -23 27v184h-317c-16.667 0 -25 7.33301 -25 22v89c0 22 4 39 12 51l322 452c6 8.66699 11.333 13 16 13h99
c16 0 24 -7.66699 24 -23v-496h82c6.66699 0 12.5 -2 17.5 -6s7.5 -9.33301 7.5 -16v-64zM1202 1509c0 -4 -3.33301 -12.665 -10 -25.998l-856 -1450c-8.66699 -15.333 -16 -26 -22 -32s-13.667 -9 -23 -9h-101c-13.333 0 -20 5.33301 -20 16
c0 9.33301 2.66699 17.666 8 24.999l856 1450c12 17.333 20.333 28.166 25 32.499s12 6.5 22 6.5h105c10.667 0 16 -4.33301 16 -13zM393 707.003c0 -15.333 -6.66699 -23 -20 -23h-92c-12.667 0 -19 7.66699 -19 23v684l-147 -64c-8 -2.66699 -13 -4 -15 -4
c-6.66699 0 -10 4 -10 12v86c0 8.66699 4.66699 15 14 19l150 67c19.333 10 36.333 15 51 15h66c6.66699 0 12 -2 16 -6s6 -9 6 -15v-794zM1200 319.003v315.999c0 8 -1.33301 12 -4 12s-6.66699 -3.33301 -12 -10l-211 -299c-2.66699 -5.33301 -4 -8.66602 -4 -9.99902
c0 -6 5.33301 -9 16 -9h215z" />
    <glyph glyph-name="onehalf" unicode="&#xbd;" horiz-adv-x="1542" 
d="M1452 635c0 -42 -11.833 -80.6699 -35.5 -116.003s-63.167 -71.666 -118.5 -108.999l-106 -74c-37.333 -25.333 -65.833 -48.666 -85.5 -69.999s-32.5 -42.5 -38.5 -63.5s-9 -46.167 -9 -75.5v-10h360c18 0 27 -7 27 -21v-76c0 -13.333 -9 -20 -27 -20h-461
c-16 0 -24 8.33301 -24 25v81c0 48 5.5 90 16.5 126s29.667 69.333 56 100s62.833 61.334 109.5 92.001l113 76c39.333 27.333 64.166 49.333 74.499 66s15.5 39.667 15.5 69c0 37.333 -11.333 62.333 -34 75s-66 19 -130 19c-66 0 -126.667 -4.66699 -182 -14h-6
c-14 0 -21 6.66699 -21 20v64c0 8 8.33301 14.667 25 20c70.667 16.667 136 25 196 25c63.333 0 115.833 -7 157.5 -21s73.334 -36.167 95.001 -66.5s32.5 -70.833 32.5 -121.5zM1202 1509c0 -4 -3.33301 -12.665 -10 -25.998l-856 -1450c-8.66699 -15.333 -16 -26 -22 -32
s-13.667 -9 -23 -9h-101c-13.333 0 -20 5.33301 -20 16c0 9.33301 2.66699 17.666 8 24.999l856 1450c12 17.333 20.333 28.166 25 32.499s12 6.5 22 6.5h105c10.667 0 16 -4.33301 16 -13zM393 706.999c0 -15.333 -6.66699 -23 -20 -23h-92c-12.667 0 -19 7.66699 -19 23
v684l-147 -64c-8 -2.66699 -13 -4 -15 -4c-6.66699 0 -10 4 -10 12v86c0 8.66699 4.66699 15 14 19l150 67c19.333 10 36.333 15 51 15h66c6.66699 0 12 -2 16 -6s6 -9 6 -15v-794z" />
    <glyph glyph-name="threequarters" unicode="&#xbe;" horiz-adv-x="1690" 
d="M1599 233c0 -14.667 -8.00098 -22.001 -24.001 -22.001h-82v-184c0 -7.33301 -2.33301 -13.666 -7 -18.999s-10 -8 -16 -8h-86c-14.667 0 -22 9 -22 27v184h-318c-16 0 -24 7.33301 -24 22v89c0 22 4 39 12 51l322 452c6 8.66699 11.333 13 16 13h98
c16.667 0 25 -7.66699 25 -23v-496h82c6.66699 0 12.334 -2.16699 17.001 -6.5s7 -9.5 7 -15.5v-64zM1364 1509c0 -4 -3.33301 -12.665 -10 -25.998l-856 -1450c-8.66699 -15.333 -16 -26 -22 -32s-13.667 -9 -23 -9h-101c-13.333 0 -20 5.33301 -20 16
c0 9.33301 2.66699 17.666 8 24.999l856 1450c9.33301 15.333 17 25.666 23 30.999s14 8 24 8h105c10.667 0 16 -4.33301 16 -13zM601.999 1311c0 -82.667 -33.333 -144.333 -100 -185c36.667 -21.333 62.167 -47.666 76.5 -78.999s21.5 -64.333 21.5 -99v-22
c0 -82.667 -26.5 -143.667 -79.5 -183s-126.167 -59 -219.5 -59c-72 0 -135.333 8.33301 -190 25c-14 5.33301 -21 12.666 -21 21.999v60c0 14.667 7 22 21 22h4c57.333 -8 107.666 -12 150.999 -12c75.333 0 128.333 8.5 159 25.5s46 50.167 46 99.5v22
c0 33.333 -9.16699 62.5 -27.5 87.5s-50.166 37.5 -95.499 37.5h-205c-16 0 -24 7.66699 -24 23v63c0 15.333 8 23 24 23h201c84.667 0 127 39.333 127 118v13c0 42.667 -16 71 -48 85s-81 21 -147 21h-12c-31.333 0 -80.333 -4.66699 -147 -14h-4c-14 0 -21 7.33301 -21 22
v62c0 12 7.66699 19.333 23 22c58 16.667 120 25 186 25c95.333 0 169.333 -16.167 222 -48.5s79 -86.5 79 -162.5v-14zM1362 319.002v316c0 8 -1.33301 12 -4 12s-6.66699 -3.33301 -12 -10l-211 -299l-5 -10c0 -6 5.66699 -9 17 -9h215z" />
    <glyph glyph-name="questiondown" unicode="&#xbf;" horiz-adv-x="913" 
d="M672 897c0 -9.33301 -4.16699 -18.501 -12.5 -27.501s-17.833 -13.5 -28.5 -13.5h-99c-9.33301 0 -18 4 -26 12s-12 17.667 -12 29v190c0 26 12.667 39 38 39h99c10 0 19.333 -3.66699 28 -11s13 -16.666 13 -27.999v-190zM831 -338.001
c0 -14.667 -1.83301 -25.5 -5.5 -32.5s-13.167 -11.833 -28.5 -14.5c-94.667 -18 -187.667 -27 -279 -27c-272.667 0 -409 103.333 -409 310v24c0 33.333 5.16699 66 15.5 98s28.166 67 53.499 105s64.333 87 117 147l92 105c44 50 73.167 87.333 87.5 112
s21.5 57.667 21.5 99v100c0 10.667 3.83301 19.834 11.5 27.501s17.5 11.5 29.5 11.5h90c10.667 0 19.834 -3.83301 27.501 -11.5s11.5 -16.834 11.5 -27.501v-100c0 -66 -9.16699 -119.5 -27.5 -160.5s-54.5 -90.5 -108.5 -148.5l-94 -105
c-50 -54.667 -83.667 -99.667 -101 -135s-26 -74.333 -26 -117v-24c0 -52.667 16.833 -90.5 50.5 -113.5s86.5 -34.5 158.5 -34.5c43.333 0 84.333 1.5 123 4.5s90 7.83301 154 14.5h6c20 0 30 -11.667 30 -35v-72z" />
    <glyph glyph-name="Agrave" unicode="&#xc0;" horiz-adv-x="1319" 
d="M1159 41c0 -11.333 -3.49902 -20.999 -10.499 -28.999s-15.833 -12 -26.5 -12h-112c-10.667 0 -19.5 3.83301 -26.5 11.5s-10.5 17.5 -10.5 29.5v606h-627v-606c0 -12 -3.33301 -21.833 -10 -29.5s-15.667 -11.5 -27 -11.5h-112c-10.667 0 -19.5 4 -26.5 12
s-10.5 17.667 -10.5 29v1071c0 103.333 16 186 48 248s80.167 106.833 144.5 134.5s146.833 41.5 247.5 41.5h119c100 0 182.167 -13.833 246.5 -41.5s112.666 -72.334 144.999 -134.001s48.5 -144.5 48.5 -248.5v-1071zM973.001 811.001v301c0 71.333 -8 125.333 -24 162
s-41.833 62.167 -77.5 76.5s-86.5 21.5 -152.5 21.5h-119c-95.333 0 -161.5 -17.333 -198.5 -52s-55.5 -104 -55.5 -208v-301h627zM788.001 1641c0 -9.33301 -6.33203 -13.998 -18.999 -13.998h-110c-10 0 -17.333 1.83301 -22 5.5s-13 12.167 -25 25.5l-232 258
c-5.33301 5.33301 -8 10.666 -8 15.999c0 9.33301 7.33301 14 22 14h136c11.333 0 20.166 -1.83301 26.499 -5.5s14.5 -11.834 24.5 -24.501l198 -254c6 -5.33301 9 -12.333 9 -21z" />
    <glyph glyph-name="Aacute" unicode="&#xc1;" horiz-adv-x="1319" 
d="M1159 41c0 -11.333 -3.49902 -20.999 -10.499 -28.999s-15.833 -12 -26.5 -12h-112c-10.667 0 -19.5 3.83301 -26.5 11.5s-10.5 17.5 -10.5 29.5v606h-627v-606c0 -12 -3.33301 -21.833 -10 -29.5s-15.667 -11.5 -27 -11.5h-112c-10.667 0 -19.5 4 -26.5 12
s-10.5 17.667 -10.5 29v1071c0 103.333 16 186 48 248s80.167 106.833 144.5 134.5s146.833 41.5 247.5 41.5h119c100 0 182.167 -13.833 246.5 -41.5s112.666 -72.334 144.999 -134.001s48.5 -144.5 48.5 -248.5v-1071zM973.001 811.001v301c0 71.333 -8 125.333 -24 162
s-41.833 62.167 -77.5 76.5s-86.5 21.5 -152.5 21.5h-119c-95.333 0 -161.5 -17.333 -198.5 -52s-55.5 -104 -55.5 -208v-301h627zM961.001 1932c0 -5.33301 -2.66895 -10.667 -8.00195 -16l-232 -258c-12 -13.333 -20.333 -21.833 -25 -25.5s-12 -5.5 -22 -5.5h-110
c-12.667 0 -19 4.66699 -19 14c0 8.66699 2.66699 15.667 8 21l201 254c12.667 14 21.334 22.5 26.001 25.5s12.334 4.5 23.001 4.5h135c15.333 0 23 -4.66699 23 -14z" />
    <glyph glyph-name="Acircumflex" unicode="&#xc2;" horiz-adv-x="1319" 
d="M1159 41c0 -11.333 -3.49902 -20.999 -10.499 -28.999s-15.833 -12 -26.5 -12h-112c-10.667 0 -19.5 3.83301 -26.5 11.5s-10.5 17.5 -10.5 29.5v606h-627v-606c0 -12 -3.33301 -21.833 -10 -29.5s-15.667 -11.5 -27 -11.5h-112c-10.667 0 -19.5 4 -26.5 12
s-10.5 17.667 -10.5 29v1071c0 103.333 16 186 48 248s80.167 106.833 144.5 134.5s146.833 41.5 247.5 41.5h119c100 0 182.167 -13.833 246.5 -41.5s112.666 -72.334 144.999 -134.001s48.5 -144.5 48.5 -248.5v-1071zM973.001 811.001v301c0 71.333 -8 125.333 -24 162
s-41.833 62.167 -77.5 76.5s-86.5 21.5 -152.5 21.5h-119c-95.333 0 -161.5 -17.333 -198.5 -52s-55.5 -104 -55.5 -208v-301h627zM999.001 1641c0 -9.33301 -5.99902 -13.999 -17.999 -13.999h-107c-10 0 -17.333 1.83301 -22 5.5s-13 12.167 -25 25.5l-168 198l-170 -198
c-12 -13.333 -20.5 -21.833 -25.5 -25.5s-12.167 -5.5 -21.5 -5.5h-107c-12 0 -18 4.66699 -18 14c0 8.66699 2.66699 15.667 8 21l197 254c10.667 13.333 18.667 21.666 24 24.999s13.666 5 24.999 5h174c17.333 0 34.333 -10 51 -30l195 -254
c5.33301 -5.33301 8 -12.333 8 -21z" />
    <glyph glyph-name="Atilde" unicode="&#xc3;" horiz-adv-x="1319" 
d="M1159 41c0 -11.333 -3.49902 -20.999 -10.499 -28.999s-15.833 -12 -26.5 -12h-112c-10.667 0 -19.5 3.83301 -26.5 11.5s-10.5 17.5 -10.5 29.5v606h-627v-606c0 -12 -3.33301 -21.833 -10 -29.5s-15.667 -11.5 -27 -11.5h-112c-10.667 0 -19.5 4 -26.5 12
s-10.5 17.667 -10.5 29v1071c0 103.333 16 186 48 248s80.167 106.833 144.5 134.5s146.833 41.5 247.5 41.5h119c100 0 182.167 -13.833 246.5 -41.5s112.666 -72.334 144.999 -134.001s48.5 -144.5 48.5 -248.5v-1071zM973.001 811.001v301c0 71.333 -8 125.333 -24 162
s-41.833 62.167 -77.5 76.5s-86.5 21.5 -152.5 21.5h-119c-95.333 0 -161.5 -17.333 -198.5 -52s-55.5 -104 -55.5 -208v-301h627zM1018 1831c0 -72 -15.166 -125.831 -45.499 -161.498s-79.166 -53.5 -146.499 -53.5c-52 0 -95.667 14.333 -131 43l-125 100
c-24.667 19.333 -41.667 31.666 -51 36.999s-20.333 8 -33 8c-24 0 -40.667 -7.66699 -50 -23s-14 -39 -14 -71v-43c0 -9.33301 -3.5 -17.5 -10.5 -24.5s-15.167 -10.5 -24.5 -10.5h-63c-10 0 -18 3.66699 -24 11s-9 15.333 -9 24v43c0 72.667 17.167 128 51.5 166
s82.166 57 143.499 57c40 0 81 -16.333 123 -49l145 -114c11.333 -9.33301 23.833 -16.5 37.5 -21.5s25.167 -7.5 34.5 -7.5c21.333 0 36.833 6.66699 46.5 20s14.5 36.666 14.5 69.999v47c0 8.66699 3.66699 16.667 11 24s15.333 11 24 11h63
c9.33301 0 17.166 -3.33301 23.499 -10s9.5 -15 9.5 -25v-47z" />
    <glyph glyph-name="Adieresis" unicode="&#xc4;" horiz-adv-x="1319" 
d="M1159 41c0 -11.333 -3.49902 -20.999 -10.499 -28.999s-15.833 -12 -26.5 -12h-112c-10.667 0 -19.5 3.83301 -26.5 11.5s-10.5 17.5 -10.5 29.5v606h-627v-606c0 -12 -3.33301 -21.833 -10 -29.5s-15.667 -11.5 -27 -11.5h-112c-10.667 0 -19.5 4 -26.5 12
s-10.5 17.667 -10.5 29v1071c0 103.333 16 186 48 248s80.167 106.833 144.5 134.5s146.833 41.5 247.5 41.5h119c100 0 182.167 -13.833 246.5 -41.5s112.666 -72.334 144.999 -134.001s48.5 -144.5 48.5 -248.5v-1071zM973.001 811.001v301c0 71.333 -8 125.333 -24 162
s-41.833 62.167 -77.5 76.5s-86.5 21.5 -152.5 21.5h-119c-95.333 0 -161.5 -17.333 -198.5 -52s-55.5 -104 -55.5 -208v-301h627zM921.001 1694c0 -11.333 -4 -20.666 -12 -27.999s-17.667 -11 -29 -11h-80c-10 0 -19.333 3.66699 -28 11s-13 16.666 -13 27.999v166
c0 10 4.33301 19.333 13 28s18 13 28 13h80c11.333 0 21 -4.33301 29 -13s12 -18 12 -28v-166zM563.001 1694c0 -11.333 -4.33301 -20.666 -13 -27.999s-18 -11 -28 -11h-80c-11.333 0 -21 3.66699 -29 11s-12 16.666 -12 27.999v166c0 10 4 19.333 12 28s17.667 13 29 13
h80c10 0 19.333 -4.33301 28 -13s13 -18 13 -28v-166z" />
    <glyph glyph-name="Aring" unicode="&#xc5;" horiz-adv-x="1319" 
d="M1159 41c0 -11.333 -3.49902 -20.999 -10.499 -28.999s-15.833 -12 -26.5 -12h-112c-10.667 0 -19.5 3.83301 -26.5 11.5s-10.5 17.5 -10.5 29.5v606h-627v-606c0 -12 -3.33301 -21.833 -10 -29.5s-15.667 -11.5 -27 -11.5h-112c-10.667 0 -19.5 4 -26.5 12
s-10.5 17.667 -10.5 29v1071c0 103.333 16 186 48 248s80.167 106.833 144.5 134.5s146.833 41.5 247.5 41.5h119c100 0 182.167 -13.833 246.5 -41.5s112.666 -72.334 144.999 -134.001s48.5 -144.5 48.5 -248.5v-1071zM973.001 811.001v301c0 71.333 -8 125.333 -24 162
s-41.833 62.167 -77.5 76.5s-86.5 21.5 -152.5 21.5h-119c-95.333 0 -161.5 -17.333 -198.5 -52s-55.5 -104 -55.5 -208v-301h627zM874.001 1798c0 -56.667 -20.334 -105.333 -61.001 -146s-89.334 -61 -146.001 -61c-38 0 -73 9.33301 -105 28s-57.333 43.667 -76 75
s-28 66 -28 104s9.33301 72.833 28 104.5s43.834 57 75.501 76s66.834 28.5 105.501 28.5s73.5 -9.33301 104.5 -28s55.833 -44 74.5 -76s28 -67 28 -105zM776 1800c0 30 -10.833 55.167 -32.5 75.5s-47.167 30.5 -76.5 30.5c-28.667 0 -53.667 -10.333 -75 -31
s-32 -45.667 -32 -75s10.5 -54.833 31.5 -76.5s46.167 -32.5 75.5 -32.5c30 0 55.667 10.667 77 32s32 47 32 77z" />
    <glyph glyph-name="AE" unicode="&#xc6;" horiz-adv-x="1942" 
d="M1829 35c0 -6.66699 -1.83203 -12.999 -5.49902 -18.999s-8.83398 -9.33301 -15.501 -10c-79.333 -12 -212.333 -18 -399 -18c-146 0 -255.167 30 -327.5 90s-108.5 157 -108.5 291v278h-627v-606c0 -12 -3.33301 -21.833 -10 -29.5s-15.667 -11.5 -27 -11.5h-112
c-10.667 0 -19.5 4 -26.5 12s-10.5 17.667 -10.5 29v1071c0 103.333 16 186 48 248s80.167 106.833 144.5 134.5s146.833 41.5 247.5 41.5h119c158 0 272 -34.667 342 -104c69.333 72 185.333 108 348 108c99.333 0 182.166 -1.66699 248.499 -5
s116.5 -7.66602 150.5 -12.999c6.66699 -0.666992 11.834 -3.83398 15.501 -9.50098s5.5 -12.167 5.5 -19.5v-96c0 -16.667 -7.66699 -25 -23 -25h-395c-70 0 -122.5 -5.83301 -157.5 -17.5s-59.5 -34 -73.5 -67s-21 -82.5 -21 -148.5v-265h629c11.333 0 21 -4 29 -12
s12 -17.333 12 -28v-78c0 -11.333 -4.33301 -21 -13 -29s-18 -12 -28 -12h-629v-346c0 -55.333 6 -97.833 18 -127.5s36 -51.334 72 -65.001s90 -20.5 162 -20.5h395c15.333 0 23 -8.33301 23 -25v-96zM973.001 811.001v328c0 91.333 -19 153 -57 185s-103.667 48 -197 48
h-119c-95.333 0 -161.5 -17.333 -198.5 -52s-55.5 -104 -55.5 -208v-301h627z" />
    <glyph glyph-name="Ccedilla" unicode="&#xc7;" horiz-adv-x="1116" 
d="M1044 53c0 -22.667 -13.3359 -36.3311 -40.0029 -40.998c-93.333 -17.333 -206.666 -26 -339.999 -26c-66.667 0 -132.167 10.667 -196.5 32s-122.166 55.666 -173.499 102.999s-92.666 112.5 -123.999 195.5s-47 183.5 -47 301.5v285c0 156 26.167 281.333 78.5 376
s118.833 161.167 199.5 199.5s168.334 57.5 263.001 57.5c97.333 0 212 -11 344 -33c21.333 -2.66699 32 -11.334 32 -26.001v-105c0 -14.667 -8 -22 -24 -22h-6c-148 12 -262.667 18 -344 18c-110 0 -197 -36.5 -261 -109.5s-96 -191.5 -96 -355.5v-285
c0 -162.667 32.167 -280.667 96.5 -354s151.166 -110 260.499 -110c94 0 206.667 5.33301 338 16h8c21.333 0 32 -11 32 -33v-84zM779.997 -79.9971c0 -5.33301 -2.66797 -10.667 -8.00098 -16l-231 -258c-11.333 -12.667 -19.666 -21 -24.999 -25s-12.666 -6 -21.999 -6
h-111c-12 0 -18 4.66699 -18 14c0 6 2.66699 13 8 21l198 254c17.333 20 34.666 30 51.999 30h135c14.667 0 22 -4.66699 22 -14z" />
    <glyph glyph-name="Egrave" unicode="&#xc8;" horiz-adv-x="1128" 
d="M1016 25c0 -17.333 -7.00098 -26.9961 -21.001 -28.9961c-64 -6.66699 -197 -10 -399 -10c-146 0 -255.167 30 -327.5 90s-108.5 157 -108.5 291v788c0 133.333 36 230.166 108 290.499s181.333 90.5 328 90.5c58.667 0 107 -0.333008 145 -1s84.333 -2.16699 139 -4.5
s93 -4.5 115 -6.5c6.66699 -0.666992 11.834 -3.83398 15.501 -9.50098s5.5 -12.167 5.5 -19.5v-102c0 -16.667 -7.66699 -25 -23 -25h-395c-72 0 -126 -6.83301 -162 -20.5s-60 -35.334 -72 -65.001s-18 -72.167 -18 -127.5v-285h629c11.333 0 21 -4 29 -12
s12 -17.667 12 -29v-77c0 -11.333 -4.33301 -21 -13 -29s-18 -12 -28 -12h-629v-344c0 -55.333 6 -97.833 18 -127.5s36 -51.334 72 -65.001s90 -20.5 162 -20.5h395c15.333 0 23 -8.33301 23 -25v-104zM735.999 1639c0 -9.33301 -6.33203 -13.998 -18.999 -13.998h-110
c-10 0 -17.333 1.83301 -22 5.5s-13 12.167 -25 25.5l-232 258c-5.33301 5.33301 -8 10.666 -8 15.999c0 9.33301 7.33301 14 22 14h136c11.333 0 20.166 -1.83301 26.499 -5.5s14.5 -11.834 24.5 -24.501l198 -254c6 -5.33301 9 -12.333 9 -21z" />
    <glyph glyph-name="Eacute" unicode="&#xc9;" horiz-adv-x="1128" 
d="M1016 25c0 -17.333 -7.00098 -26.9961 -21.001 -28.9961c-64 -6.66699 -197 -10 -399 -10c-146 0 -255.167 30 -327.5 90s-108.5 157 -108.5 291v788c0 133.333 36 230.166 108 290.499s181.333 90.5 328 90.5c58.667 0 107 -0.333008 145 -1s84.333 -2.16699 139 -4.5
s93 -4.5 115 -6.5c6.66699 -0.666992 11.834 -3.83398 15.501 -9.50098s5.5 -12.167 5.5 -19.5v-102c0 -16.667 -7.66699 -25 -23 -25h-395c-72 0 -126 -6.83301 -162 -20.5s-60 -35.334 -72 -65.001s-18 -72.167 -18 -127.5v-285h629c11.333 0 21 -4 29 -12
s12 -17.667 12 -29v-77c0 -11.333 -4.33301 -21 -13 -29s-18 -12 -28 -12h-629v-344c0 -55.333 6 -97.833 18 -127.5s36 -51.334 72 -65.001s90 -20.5 162 -20.5h395c15.333 0 23 -8.33301 23 -25v-104zM891.999 1932c0 -5.33301 -2.66895 -10.667 -8.00195 -16l-232 -258
c-12 -13.333 -20.333 -21.833 -25 -25.5s-12 -5.5 -22 -5.5h-110c-12.667 0 -19 4.66699 -19 14c0 8.66699 2.66699 15.667 8 21l201 254c12.667 14 21.334 22.5 26.001 25.5s12.334 4.5 23.001 4.5h135c15.333 0 23 -4.66699 23 -14z" />
    <glyph glyph-name="Ecircumflex" unicode="&#xca;" horiz-adv-x="1128" 
d="M1016 25c0 -17.333 -7.00098 -26.9961 -21.001 -28.9961c-64 -6.66699 -197 -10 -399 -10c-146 0 -255.167 30 -327.5 90s-108.5 157 -108.5 291v788c0 133.333 36 230.166 108 290.499s181.333 90.5 328 90.5c58.667 0 107 -0.333008 145 -1s84.333 -2.16699 139 -4.5
s93 -4.5 115 -6.5c6.66699 -0.666992 11.834 -3.83398 15.501 -9.50098s5.5 -12.167 5.5 -19.5v-102c0 -16.667 -7.66699 -25 -23 -25h-395c-72 0 -126 -6.83301 -162 -20.5s-60 -35.334 -72 -65.001s-18 -72.167 -18 -127.5v-285h629c11.333 0 21 -4 29 -12
s12 -17.667 12 -29v-77c0 -11.333 -4.33301 -21 -13 -29s-18 -12 -28 -12h-629v-344c0 -55.333 6 -97.833 18 -127.5s36 -51.334 72 -65.001s90 -20.5 162 -20.5h395c15.333 0 23 -8.33301 23 -25v-104zM933.999 1641c0 -9.33301 -5.99902 -13.999 -17.999 -13.999h-107
c-10 0 -17.333 1.83301 -22 5.5s-13 12.167 -25 25.5l-168 198l-170 -198c-12 -13.333 -20.5 -21.833 -25.5 -25.5s-12.167 -5.5 -21.5 -5.5h-107c-12 0 -18 4.66699 -18 14c0 8.66699 2.66699 15.667 8 21l197 254c10.667 13.333 18.667 21.666 24 24.999
s13.666 5 24.999 5h174c17.333 0 34.333 -10 51 -30l195 -254c5.33301 -5.33301 8 -12.333 8 -21z" />
    <glyph glyph-name="Edieresis" unicode="&#xcb;" horiz-adv-x="1128" 
d="M1016 25c0 -17.333 -7.00098 -26.9961 -21.001 -28.9961c-64 -6.66699 -197 -10 -399 -10c-146 0 -255.167 30 -327.5 90s-108.5 157 -108.5 291v788c0 133.333 36 230.166 108 290.499s181.333 90.5 328 90.5c58.667 0 107 -0.333008 145 -1s84.333 -2.16699 139 -4.5
s93 -4.5 115 -6.5c6.66699 -0.666992 11.834 -3.83398 15.501 -9.50098s5.5 -12.167 5.5 -19.5v-102c0 -16.667 -7.66699 -25 -23 -25h-395c-72 0 -126 -6.83301 -162 -20.5s-60 -35.334 -72 -65.001s-18 -72.167 -18 -127.5v-285h629c11.333 0 21 -4 29 -12
s12 -17.667 12 -29v-77c0 -11.333 -4.33301 -21 -13 -29s-18 -12 -28 -12h-629v-344c0 -55.333 6 -97.833 18 -127.5s36 -51.334 72 -65.001s90 -20.5 162 -20.5h395c15.333 0 23 -8.33301 23 -25v-104zM867.999 1698c0 -11.333 -4 -20.666 -12 -27.999s-17.667 -11 -29 -11
h-80c-10 0 -19.333 3.66699 -28 11s-13 16.666 -13 27.999v166c0 10 4.33301 19.333 13 28s18 13 28 13h80c11.333 0 21 -4.33301 29 -13s12 -18 12 -28v-166zM509.999 1698c0 -11.333 -4.33301 -20.666 -13 -27.999s-18 -11 -28 -11h-80c-11.333 0 -21 3.66699 -29 11
s-12 16.666 -12 27.999v166c0 10 4 19.333 12 28s17.667 13 29 13h80c10 0 19.333 -4.33301 28 -13s13 -18 13 -28v-166z" />
    <glyph glyph-name="Igrave" unicode="&#xcc;" horiz-adv-x="547" 
d="M367 41c0 -10.667 -3.5 -20.168 -10.5 -28.501s-15.833 -12.5 -26.5 -12.5h-113c-9.33301 0 -17.833 3.83301 -25.5 11.5s-11.5 17.5 -11.5 29.5v1442c0 10 3.66699 19 11 27s16 12 26 12h113c10 0 18.667 -3.66699 26 -11s11 -16.666 11 -27.999v-1442zM399 1641
c0 -9.33301 -6.33203 -13.998 -18.999 -13.998h-110c-10 0 -17.333 1.83301 -22 5.5s-13 12.167 -25 25.5l-232 258c-5.33301 5.33301 -8 10.666 -8 15.999c0 9.33301 7.33301 14 22 14h136c11.333 0 20.166 -1.83301 26.499 -5.5s14.5 -11.834 24.5 -24.501l198 -254
c6 -5.33301 9 -12.333 9 -21z" />
    <glyph glyph-name="Iacute" unicode="&#xcd;" horiz-adv-x="547" 
d="M367 41c0 -10.667 -3.5 -20.168 -10.5 -28.501s-15.833 -12.5 -26.5 -12.5h-113c-9.33301 0 -17.833 3.83301 -25.5 11.5s-11.5 17.5 -11.5 29.5v1442c0 10 3.66699 19 11 27s16 12 26 12h113c10 0 18.667 -3.66699 26 -11s11 -16.666 11 -27.999v-1442zM545 1932
c0 -5.33301 -2.66895 -10.667 -8.00195 -16l-232 -258c-12 -13.333 -20.333 -21.833 -25 -25.5s-12 -5.5 -22 -5.5h-110c-12.667 0 -19 4.66699 -19 14c0 8.66699 2.66699 15.667 8 21l201 254c12.667 14 21.334 22.5 26.001 25.5s12.334 4.5 23.001 4.5h135
c15.333 0 23 -4.66699 23 -14z" />
    <glyph glyph-name="Icircumflex" unicode="&#xce;" horiz-adv-x="547" 
d="M367 41c0 -10.667 -3.5 -20.168 -10.5 -28.501s-15.833 -12.5 -26.5 -12.5h-113c-9.33301 0 -17.833 3.83301 -25.5 11.5s-11.5 17.5 -11.5 29.5v1442c0 10 3.66699 19 11 27s16 12 26 12h113c10 0 18.667 -3.66699 26 -11s11 -16.666 11 -27.999v-1442zM606 1641
c0 -9.33301 -5.99902 -13.999 -17.999 -13.999h-107c-10 0 -17.333 1.83301 -22 5.5s-13 12.167 -25 25.5l-168 198l-170 -198c-12 -13.333 -20.5 -21.833 -25.5 -25.5s-12.167 -5.5 -21.5 -5.5h-107c-12 0 -18 4.66699 -18 14c0 8.66699 2.66699 15.667 8 21l197 254
c10.667 13.333 18.667 21.666 24 24.999s13.666 5 24.999 5h174c17.333 0 34.333 -10 51 -30l195 -254c5.33301 -5.33301 8 -12.333 8 -21z" />
    <glyph glyph-name="Idieresis" unicode="&#xcf;" horiz-adv-x="547" 
d="M367 41c0 -10.667 -3.5 -20.168 -10.5 -28.501s-15.833 -12.5 -26.5 -12.5h-113c-9.33301 0 -17.833 3.83301 -25.5 11.5s-11.5 17.5 -11.5 29.5v1442c0 10 3.66699 19 11 27s16 12 26 12h113c10 0 18.667 -3.66699 26 -11s11 -16.666 11 -27.999v-1442zM534 1696
c0 -11.333 -4 -20.666 -12 -27.999s-17.667 -11 -29 -11h-80c-10 0 -19.333 3.66699 -28 11s-13 16.666 -13 27.999v166c0 10 4.33301 19.333 13 28s18 13 28 13h80c11.333 0 21 -4.33301 29 -13s12 -18 12 -28v-166zM176 1696c0 -11.333 -4.33301 -20.666 -13 -27.999
s-18 -11 -28 -11h-80c-11.333 0 -21 3.66699 -29 11s-12 16.666 -12 27.999v166c0 10 4 19.333 12 28s17.667 13 29 13h80c10 0 19.333 -4.33301 28 -13s13 -18 13 -28v-166z" />
    <glyph glyph-name="Eth" unicode="&#xd0;" horiz-adv-x="1313" 
d="M1196 623c0 -214 -54.668 -373.663 -164.001 -478.996s-261.666 -158 -456.999 -158c-52 0 -105.5 1.16699 -160.5 3.5s-96.833 4.66602 -125.5 6.99902s-57.334 5.5 -86.001 9.5s-43 21 -43 51v654h-78c-11.333 0 -21 4 -29 12s-12 17.667 -12 29v77
c0 11.333 3.83301 21 11.5 29s17.5 12 29.5 12h78v594c0 29.333 14.333 46.666 43 51.999c28.667 4 57.334 7.16699 86.001 9.5s70.5 4.66602 125.5 6.99902s108.5 3.5 160.5 3.5c130 0 241 -22.667 333 -68s163 -115.833 213 -211.5s75 -214.834 75 -357.501v-276z
M1010 623.004l-0.000976562 276c0 118 -18.5 212.333 -55.5 283s-87.667 120.667 -152 150s-140.166 44 -227.499 44c-83.333 0 -159 -2 -227 -6v-500h211c12.667 0 22.667 -3.66699 30 -11s11 -17.333 11 -30v-77c0 -12 -4 -21.833 -12 -29.5s-17.667 -11.5 -29 -11.5h-211
v-561c44 -3.33301 119.667 -5 227 -5c136 0 242.5 36.333 319.5 109s115.5 195.667 115.5 369z" />
    <glyph glyph-name="Ntilde" unicode="&#xd1;" horiz-adv-x="1393" 
d="M1233 160c0 -68.667 -13.833 -113.834 -41.5 -135.501s-66.5 -32.5 -116.5 -32.5h-45c-35.333 0 -64 7.33301 -86 22s-43 44.667 -63 90l-521 1211c-6.66699 14.667 -11.334 22 -14.001 22c-5.33301 0 -8 -7.33301 -8 -22v-1280c0 -10.667 -3.5 -19.167 -10.5 -25.5
s-15.167 -9.5 -24.5 -9.5h-108c-23.333 0 -35 13.667 -35 41v1317c0 68 13.833 113 41.5 135s66.167 33 115.5 33h45c33.333 0 62.333 -8.16699 87 -24.5s46.334 -47.166 65.001 -92.499l514 -1208c2.66699 -6 5.5 -11.333 8.5 -16s6.5 -7 10.5 -7c5.33301 0 8 10.333 8 31
v1278c0 10 3.66699 18.333 11 25s15.333 10 24 10h108c23.333 0 35 -13.667 35 -41v-1321zM1071 1827c0 -72 -15.166 -125.831 -45.499 -161.498s-79.166 -53.5 -146.499 -53.5c-52 0 -95.667 14.333 -131 43l-125 100c-24.667 19.333 -41.667 31.666 -51 36.999
s-20.333 8 -33 8c-24 0 -40.667 -7.66699 -50 -23s-14 -39 -14 -71v-43c0 -9.33301 -3.5 -17.5 -10.5 -24.5s-15.167 -10.5 -24.5 -10.5h-63c-10 0 -18 3.66699 -24 11s-9 15.333 -9 24v43c0 72.667 17.167 128 51.5 166s82.166 57 143.499 57c40 0 81 -16.333 123 -49
l145 -114c11.333 -9.33301 23.833 -16.5 37.5 -21.5s25.167 -7.5 34.5 -7.5c21.333 0 36.833 6.66699 46.5 20s14.5 36.666 14.5 69.999v47c0 8.66699 3.66699 16.667 11 24s15.333 11 24 11h63c9.33301 0 17.166 -3.33301 23.499 -10s9.5 -15 9.5 -25v-47z" />
    <glyph glyph-name="Ograve" unicode="&#xd2;" horiz-adv-x="1354" 
d="M1231 629c0 -111.333 -13.332 -207.834 -39.999 -289.501s-64.667 -148.667 -114 -201s-107.833 -90.833 -175.5 -115.5s-142.167 -37 -223.5 -37c-80.667 0 -155.167 12.333 -223.5 37s-127.333 63.5 -177 116.5s-87.834 120.667 -114.501 203s-40 177.833 -40 286.5
v264c0 109.333 13.333 205 40 287s65 149.5 115 202.5s108.833 91.833 176.5 116.5s142.167 37 223.5 37c82 0 156.5 -12.333 223.5 -37s125.167 -63.167 174.5 -115.5s87.5 -119.166 114.5 -200.499s40.5 -178 40.5 -290v-264zM1042 628.999l0.00195312 264
c0 83.333 -8.5 156 -25.5 218s-40.833 111.5 -71.5 148.5s-68.167 64.333 -112.5 82s-95.833 26.5 -154.5 26.5c-244.667 0 -367 -158.333 -367 -475v-264c0 -110.667 14.667 -201.5 44 -272.5s71.166 -122.5 125.499 -154.5s120.166 -48 197.499 -48
c242.667 0 364 158.333 364 475zM812.003 1641c0 -9.33301 -6.33203 -13.998 -18.999 -13.998h-110c-10 0 -17.333 1.83301 -22 5.5s-13 12.167 -25 25.5l-232 258c-5.33301 5.33301 -8 10.666 -8 15.999c0 9.33301 7.33301 14 22 14h136
c11.333 0 20.166 -1.83301 26.499 -5.5s14.5 -11.834 24.5 -24.501l198 -254c6 -5.33301 9 -12.333 9 -21z" />
    <glyph glyph-name="Oacute" unicode="&#xd3;" horiz-adv-x="1354" 
d="M1231 629c0 -111.333 -13.332 -207.834 -39.999 -289.501s-64.667 -148.667 -114 -201s-107.833 -90.833 -175.5 -115.5s-142.167 -37 -223.5 -37c-80.667 0 -155.167 12.333 -223.5 37s-127.333 63.5 -177 116.5s-87.834 120.667 -114.501 203s-40 177.833 -40 286.5
v264c0 109.333 13.333 205 40 287s65 149.5 115 202.5s108.833 91.833 176.5 116.5s142.167 37 223.5 37c82 0 156.5 -12.333 223.5 -37s125.167 -63.167 174.5 -115.5s87.5 -119.166 114.5 -200.499s40.5 -178 40.5 -290v-264zM1042 628.999l0.00195312 264
c0 83.333 -8.5 156 -25.5 218s-40.833 111.5 -71.5 148.5s-68.167 64.333 -112.5 82s-95.833 26.5 -154.5 26.5c-244.667 0 -367 -158.333 -367 -475v-264c0 -110.667 14.667 -201.5 44 -272.5s71.166 -122.5 125.499 -154.5s120.166 -48 197.499 -48
c242.667 0 364 158.333 364 475zM936.003 1932c0 -5.33301 -2.66895 -10.667 -8.00195 -16l-232 -258c-12 -13.333 -20.333 -21.833 -25 -25.5s-12 -5.5 -22 -5.5h-110c-12.667 0 -19 4.66699 -19 14c0 8.66699 2.66699 15.667 8 21l201 254
c12.667 14 21.334 22.5 26.001 25.5s12.334 4.5 23.001 4.5h135c15.333 0 23 -4.66699 23 -14z" />
    <glyph glyph-name="Ocircumflex" unicode="&#xd4;" horiz-adv-x="1354" 
d="M1231 629c0 -111.333 -13.332 -207.834 -39.999 -289.501s-64.667 -148.667 -114 -201s-107.833 -90.833 -175.5 -115.5s-142.167 -37 -223.5 -37c-80.667 0 -155.167 12.333 -223.5 37s-127.333 63.5 -177 116.5s-87.834 120.667 -114.501 203s-40 177.833 -40 286.5
v264c0 109.333 13.333 205 40 287s65 149.5 115 202.5s108.833 91.833 176.5 116.5s142.167 37 223.5 37c82 0 156.5 -12.333 223.5 -37s125.167 -63.167 174.5 -115.5s87.5 -119.166 114.5 -200.499s40.5 -178 40.5 -290v-264zM1042 628.999l0.00195312 264
c0 83.333 -8.5 156 -25.5 218s-40.833 111.5 -71.5 148.5s-68.167 64.333 -112.5 82s-95.833 26.5 -154.5 26.5c-244.667 0 -367 -158.333 -367 -475v-264c0 -110.667 14.667 -201.5 44 -272.5s71.166 -122.5 125.499 -154.5s120.166 -48 197.499 -48
c242.667 0 364 158.333 364 475zM1018 1643c0 -9.33301 -5.99902 -13.999 -17.999 -13.999h-107c-10 0 -17.333 1.83301 -22 5.5s-13 12.167 -25 25.5l-168 198l-170 -198c-12 -13.333 -20.5 -21.833 -25.5 -25.5s-12.167 -5.5 -21.5 -5.5h-107c-12 0 -18 4.66699 -18 14
c0 8.66699 2.66699 15.667 8 21l197 254c10.667 13.333 18.667 21.666 24 24.999s13.666 5 24.999 5h174c17.333 0 34.333 -10 51 -30l195 -254c5.33301 -5.33301 8 -12.333 8 -21z" />
    <glyph glyph-name="Otilde" unicode="&#xd5;" horiz-adv-x="1354" 
d="M1231 629c0 -111.333 -13.332 -207.834 -39.999 -289.501s-64.667 -148.667 -114 -201s-107.833 -90.833 -175.5 -115.5s-142.167 -37 -223.5 -37c-80.667 0 -155.167 12.333 -223.5 37s-127.333 63.5 -177 116.5s-87.834 120.667 -114.501 203s-40 177.833 -40 286.5
v264c0 109.333 13.333 205 40 287s65 149.5 115 202.5s108.833 91.833 176.5 116.5s142.167 37 223.5 37c82 0 156.5 -12.333 223.5 -37s125.167 -63.167 174.5 -115.5s87.5 -119.166 114.5 -200.499s40.5 -178 40.5 -290v-264zM1042 628.999l0.00195312 264
c0 83.333 -8.5 156 -25.5 218s-40.833 111.5 -71.5 148.5s-68.167 64.333 -112.5 82s-95.833 26.5 -154.5 26.5c-244.667 0 -367 -158.333 -367 -475v-264c0 -110.667 14.667 -201.5 44 -272.5s71.166 -122.5 125.499 -154.5s120.166 -48 197.499 -48
c242.667 0 364 158.333 364 475zM1047 1831c0 -72 -15.166 -125.831 -45.499 -161.498s-79.166 -53.5 -146.499 -53.5c-52 0 -95.667 14.333 -131 43l-125 100c-24.667 19.333 -41.667 31.666 -51 36.999s-20.333 8 -33 8c-24 0 -40.667 -7.66699 -50 -23s-14 -39 -14 -71
v-43c0 -9.33301 -3.5 -17.5 -10.5 -24.5s-15.167 -10.5 -24.5 -10.5h-63c-10 0 -18 3.66699 -24 11s-9 15.333 -9 24v43c0 72.667 17.167 128 51.5 166s82.166 57 143.499 57c40 0 81 -16.333 123 -49l145 -114c11.333 -9.33301 23.833 -16.5 37.5 -21.5
s25.167 -7.5 34.5 -7.5c21.333 0 36.833 6.66699 46.5 20s14.5 36.666 14.5 69.999v47c0 8.66699 3.66699 16.667 11 24s15.333 11 24 11h63c9.33301 0 17.166 -3.33301 23.499 -10s9.5 -15 9.5 -25v-47z" />
    <glyph glyph-name="Odieresis" unicode="&#xd6;" horiz-adv-x="1354" 
d="M1231 629c0 -111.333 -13.332 -207.834 -39.999 -289.501s-64.667 -148.667 -114 -201s-107.833 -90.833 -175.5 -115.5s-142.167 -37 -223.5 -37c-80.667 0 -155.167 12.333 -223.5 37s-127.333 63.5 -177 116.5s-87.834 120.667 -114.501 203s-40 177.833 -40 286.5
v264c0 109.333 13.333 205 40 287s65 149.5 115 202.5s108.833 91.833 176.5 116.5s142.167 37 223.5 37c82 0 156.5 -12.333 223.5 -37s125.167 -63.167 174.5 -115.5s87.5 -119.166 114.5 -200.499s40.5 -178 40.5 -290v-264zM1042 628.999l0.00195312 264
c0 83.333 -8.5 156 -25.5 218s-40.833 111.5 -71.5 148.5s-68.167 64.333 -112.5 82s-95.833 26.5 -154.5 26.5c-244.667 0 -367 -158.333 -367 -475v-264c0 -110.667 14.667 -201.5 44 -272.5s71.166 -122.5 125.499 -154.5s120.166 -48 197.499 -48
c242.667 0 364 158.333 364 475zM938.003 1698c0 -11.333 -4 -20.666 -12 -27.999s-17.667 -11 -29 -11h-80c-10 0 -19.333 3.66699 -28 11s-13 16.666 -13 27.999v166c0 10 4.33301 19.333 13 28s18 13 28 13h80c11.333 0 21 -4.33301 29 -13s12 -18 12 -28v-166z
M580.003 1698c0 -11.333 -4.33301 -20.666 -13 -27.999s-18 -11 -28 -11h-80c-11.333 0 -21 3.66699 -29 11s-12 16.666 -12 27.999v166c0 10 4 19.333 12 28s17.667 13 29 13h80c10 0 19.333 -4.33301 28 -13s13 -18 13 -28v-166z" />
    <glyph glyph-name="multiply" unicode="&#xd7;" 
d="M999 498c0 -7.33301 -3.33105 -14.332 -9.99805 -20.999l-57 -57c-6.66699 -6.66699 -13.667 -10 -21 -10c-10.667 0 -21.334 5.33301 -32.001 16l-271 270l-268 -268c-10.667 -10.667 -21.667 -16 -33 -16c-6.66699 0 -13.334 3.33301 -20.001 10l-58 57
c-6.66699 6.66699 -10 13.667 -10 21c0 11.333 5.66699 22 17 32l268 269l-268 270c-11.333 10 -17 20.333 -17 31c0 6.66699 3.33301 13.334 10 20.001l58 58c6.66699 6.66699 14 10 22 10c11.333 0 21.666 -4.66699 30.999 -14l268 -271l271 271
c10.667 10.667 21.334 16 32.001 16c7.33301 0 14.333 -3.33301 21 -10l57 -58c6.66699 -6.66699 10 -13.334 10 -20.001c0 -11.333 -5.33301 -22.333 -16 -33l-270 -270l270 -271c10.667 -10.667 16 -21.334 16 -32.001z" />
    <glyph glyph-name="Oslash" unicode="&#xd8;" horiz-adv-x="1354" 
d="M1296 1505c0 -4.66699 -2 -10.002 -6 -16.002l-145 -201c57.333 -102 86 -233.667 86 -395v-264c0 -111.333 -13.333 -207.833 -40 -289.5s-64.667 -148.667 -114 -201s-107.833 -90.833 -175.5 -115.5s-142.167 -37 -223.5 -37c-76 0 -146 10.833 -210 32.5
s-119 53.834 -165 96.501l-63 -90c-20 -26 -37.333 -39 -52 -39h-108c-15.333 0 -23 7.33301 -23 22c0 4.66699 2 10.334 6 17.001l148 204c-58.667 102 -88 235.333 -88 400v264c0 109.333 13.333 205 40 287s65 149.5 115 202.5s108.833 91.833 176.5 116.5
s142.167 37 223.5 37c157.333 0 283 -43.667 377 -131l59 84c19.333 26 37 39 53 39h107c14.667 0 22 -7.66699 22 -23zM946 1255c-60.667 75.333 -150 113.001 -268 113.001c-244.667 0 -367 -158.333 -367 -475v-264c0 -78.667 9 -152.334 27 -221.001zM1042 628.999v264
c0 86 -8 158.333 -24 217l-608 -848c60 -72 149.333 -108 268 -108c58.667 0 110 8.83301 154 26.5s81.5 45 112.5 82s55 86.5 72 148.5s25.5 134.667 25.5 218z" />
    <glyph glyph-name="Ugrave" unicode="&#xd9;" horiz-adv-x="1356" 
d="M1196 74c0 -24 -3.99902 -40.166 -11.999 -48.499s-23 -14.166 -45 -17.499c-49.333 -7.33301 -118.833 -13.166 -208.5 -17.499s-165.834 -6.5 -228.501 -6.5c-94 0 -175.667 10 -245 30s-127.5 53 -174.5 99s-82 106.667 -105 182s-34.5 168.666 -34.5 279.999v906
c0 10 3.5 19.333 10.5 28s15.833 13 26.5 13h115c10 0 18.333 -4.16699 25 -12.5s10 -17.833 10 -28.5v-906c0 -114.667 13.333 -203.334 40 -266.001s67 -105.334 121 -128.001s126 -34 216 -34c89.333 0 190.333 4.33301 303 13v1321c0 10 3.33301 19.333 10 28
s15.667 13 27 13h112c11.333 0 20.333 -3.83301 27 -11.5s10 -17.5 10 -29.5v-1407zM797.001 1641c0 -9.33301 -6.33203 -13.998 -18.999 -13.998h-110c-10 0 -17.333 1.83301 -22 5.5s-13 12.167 -25 25.5l-232 258c-5.33301 5.33301 -8 10.666 -8 15.999
c0 9.33301 7.33301 14 22 14h136c11.333 0 20.166 -1.83301 26.499 -5.5s14.5 -11.834 24.5 -24.501l198 -254c6 -5.33301 9 -12.333 9 -21z" />
    <glyph glyph-name="Uacute" unicode="&#xda;" horiz-adv-x="1356" 
d="M1196 74c0 -24 -3.99902 -40.166 -11.999 -48.499s-23 -14.166 -45 -17.499c-49.333 -7.33301 -118.833 -13.166 -208.5 -17.499s-165.834 -6.5 -228.501 -6.5c-94 0 -175.667 10 -245 30s-127.5 53 -174.5 99s-82 106.667 -105 182s-34.5 168.666 -34.5 279.999v906
c0 10 3.5 19.333 10.5 28s15.833 13 26.5 13h115c10 0 18.333 -4.16699 25 -12.5s10 -17.833 10 -28.5v-906c0 -114.667 13.333 -203.334 40 -266.001s67 -105.334 121 -128.001s126 -34 216 -34c89.333 0 190.333 4.33301 303 13v1321c0 10 3.33301 19.333 10 28
s15.667 13 27 13h112c11.333 0 20.333 -3.83301 27 -11.5s10 -17.5 10 -29.5v-1407zM980.001 1932c0 -5.33301 -2.66895 -10.667 -8.00195 -16l-232 -258c-12 -13.333 -20.333 -21.833 -25 -25.5s-12 -5.5 -22 -5.5h-110c-12.667 0 -19 4.66699 -19 14
c0 8.66699 2.66699 15.667 8 21l201 254c12.667 14 21.334 22.5 26.001 25.5s12.334 4.5 23.001 4.5h135c15.333 0 23 -4.66699 23 -14z" />
    <glyph glyph-name="Ucircumflex" unicode="&#xdb;" horiz-adv-x="1356" 
d="M1196 74c0 -24 -3.99902 -40.166 -11.999 -48.499s-23 -14.166 -45 -17.499c-49.333 -7.33301 -118.833 -13.166 -208.5 -17.499s-165.834 -6.5 -228.501 -6.5c-94 0 -175.667 10 -245 30s-127.5 53 -174.5 99s-82 106.667 -105 182s-34.5 168.666 -34.5 279.999v906
c0 10 3.5 19.333 10.5 28s15.833 13 26.5 13h115c10 0 18.333 -4.16699 25 -12.5s10 -17.833 10 -28.5v-906c0 -114.667 13.333 -203.334 40 -266.001s67 -105.334 121 -128.001s126 -34 216 -34c89.333 0 190.333 4.33301 303 13v1321c0 10 3.33301 19.333 10 28
s15.667 13 27 13h112c11.333 0 20.333 -3.83301 27 -11.5s10 -17.5 10 -29.5v-1407zM1012 1641c0 -9.33301 -5.99902 -13.999 -17.999 -13.999h-107c-10 0 -17.333 1.83301 -22 5.5s-13 12.167 -25 25.5l-168 198l-170 -198c-12 -13.333 -20.5 -21.833 -25.5 -25.5
s-12.167 -5.5 -21.5 -5.5h-107c-12 0 -18 4.66699 -18 14c0 8.66699 2.66699 15.667 8 21l197 254c10.667 13.333 18.667 21.666 24 24.999s13.666 5 24.999 5h174c17.333 0 34.333 -10 51 -30l195 -254c5.33301 -5.33301 8 -12.333 8 -21z" />
    <glyph glyph-name="Udieresis" unicode="&#xdc;" horiz-adv-x="1356" 
d="M1196 74c0 -24 -3.99902 -40.166 -11.999 -48.499s-23 -14.166 -45 -17.499c-49.333 -7.33301 -118.833 -13.166 -208.5 -17.499s-165.834 -6.5 -228.501 -6.5c-94 0 -175.667 10 -245 30s-127.5 53 -174.5 99s-82 106.667 -105 182s-34.5 168.666 -34.5 279.999v906
c0 10 3.5 19.333 10.5 28s15.833 13 26.5 13h115c10 0 18.333 -4.16699 25 -12.5s10 -17.833 10 -28.5v-906c0 -114.667 13.333 -203.334 40 -266.001s67 -105.334 121 -128.001s126 -34 216 -34c89.333 0 190.333 4.33301 303 13v1321c0 10 3.33301 19.333 10 28
s15.667 13 27 13h112c11.333 0 20.333 -3.83301 27 -11.5s10 -17.5 10 -29.5v-1407zM934.001 1698c0 -11.333 -4 -20.666 -12 -27.999s-17.667 -11 -29 -11h-80c-10 0 -19.333 3.66699 -28 11s-13 16.666 -13 27.999v166c0 10 4.33301 19.333 13 28s18 13 28 13h80
c11.333 0 21 -4.33301 29 -13s12 -18 12 -28v-166zM576.001 1698c0 -11.333 -4.33301 -20.666 -13 -27.999s-18 -11 -28 -11h-80c-11.333 0 -21 3.66699 -29 11s-12 16.666 -12 27.999v166c0 10 4 19.333 12 28s17.667 13 29 13h80c10 0 19.333 -4.33301 28 -13
s13 -18 13 -28v-166z" />
    <glyph glyph-name="Yacute" unicode="&#xdd;" horiz-adv-x="1221" 
d="M1139 1493c0 -6 -2 -13.666 -6 -22.999l-428 -852v-577c0 -10.667 -3.5 -20.167 -10.5 -28.5s-15.833 -12.5 -26.5 -12.5h-117c-10 0 -18.333 4 -25 12s-10 17.667 -10 29v577l-428 852c-4 11.333 -6 19.666 -6 24.999c0 18 11 27 33 27h129c14 0 25.667 -9.66699 35 -29
l331 -694l332 694c8 19.333 19.667 29 35 29h127c23.333 0 35 -9.66699 35 -29zM897 1932c0 -5.33301 -2.66895 -10.667 -8.00195 -16l-232 -258c-12 -13.333 -20.333 -21.833 -25 -25.5s-12 -5.5 -22 -5.5h-110c-12.667 0 -19 4.66699 -19 14
c0 8.66699 2.66699 15.667 8 21l201 254c12.667 14 21.334 22.5 26.001 25.5s12.334 4.5 23.001 4.5h135c15.333 0 23 -4.66699 23 -14z" />
    <glyph glyph-name="Thorn" unicode="&#xde;" horiz-adv-x="1214" 
d="M1122 872c0 -308 -191.664 -462.002 -574.997 -462.002c-78 0 -145.667 2 -203 6v-375c0 -11.333 -2.83301 -21 -8.5 -29s-13.834 -12 -24.501 -12h-114c-10.667 0 -19.5 4 -26.5 12s-10.5 17.667 -10.5 29v1442c0 10.667 3.5 19.834 10.5 27.501s15.833 11.5 26.5 11.5
h114c10 0 18.333 -3.66699 25 -11s10 -16.666 10 -27.999v-142c13.333 0.666992 31.166 1.5 53.499 2.5s46.666 2 72.999 3s49.833 1.5 70.5 1.5c386 0 579 -149 579 -447v-29zM936.003 871.998v29.002c0 103.333 -31.833 176.666 -95.5 219.999s-161.5 65 -293.5 65
c-105.333 0 -173 -1.33301 -203 -4v-607c94 -4 161.667 -6 203 -6c133.333 0 231.5 23.667 294.5 71s94.5 124.666 94.5 231.999z" />
    <glyph glyph-name="germandbls" unicode="&#xdf;" horiz-adv-x="1190" 
d="M1079 440c0 -102.667 -21.6641 -188.165 -64.9971 -256.498s-101.333 -118.333 -174 -150s-154.667 -47.5 -246 -47.5c-24 0 -56.667 2 -98 6c-27.333 2.66699 -41 15.667 -41 39v84c0 14.667 7.33301 22 22 22c20.667 0 37.167 -0.166992 49.5 -0.5
s25.166 -0.833008 38.499 -1.5c107.333 0 189.5 22.667 246.5 68s85.5 124.333 85.5 237v29c0 78 -27.667 141.167 -83 189.5s-133.333 72.5 -234 72.5h-76c-11.333 0 -21 4.33301 -29 13s-12 18 -12 28v59c0 11.333 3.83301 21 11.5 29s17.5 12 29.5 12h76
c66 0 120.333 11.5 163 34.5s73.834 53.5 93.501 91.5s29.5 79.333 29.5 124v25c0 50 -9.33301 93.667 -28 131s-48.167 66.166 -88.5 86.499s-90.833 30.5 -151.5 30.5c-62.667 0 -115.167 -12 -157.5 -36s-73.833 -61.167 -94.5 -111.5s-31 -115.166 -31 -194.499v-1010
c0 -12.667 -3.33301 -23 -10 -31s-15.334 -12 -26.001 -12h-109c-11.333 0 -20.333 4.33301 -27 13s-10 18.667 -10 30v1010c0 86 10.667 159.833 32 221.5s52.166 113.167 92.499 154.5s89.333 72.166 147 92.499s122.167 30.5 193.5 30.5c90 0 168.5 -14.5 235.5 -43.5
s119.333 -73.833 157 -134.5s56.5 -136.334 56.5 -227.001v-25c0 -69.333 -20.333 -132.333 -61 -189s-92.334 -98.667 -155.001 -126c74 -25.333 133.833 -68 179.5 -128s68.5 -130 68.5 -210v-29z" />
    <glyph glyph-name="agrave" unicode="&#xe0;" horiz-adv-x="1063" 
d="M924 78c0 -25.333 -10.332 -40.3369 -30.999 -45.0039c-106.667 -31.333 -222 -47 -346 -47c-108 0 -194.833 11.833 -260.5 35.5s-113.5 60.334 -143.5 110.001s-45 113.834 -45 192.501v18c0 76.667 16.167 139.334 48.5 188.001s84.833 84.834 157.5 108.501
s168.667 35.5 288 35.5h151v82c0 85.333 -16.333 144.5 -49 177.5s-89.334 49.5 -170.001 49.5c-126.667 0 -231 -4 -313 -12c-31.333 -2.66699 -47 8.33301 -47 33v71c0 22 14.333 35 43 39c108 18 213.667 27 317 27c266.667 0 400 -128.333 400 -385v-678z
M743.001 153.996v388.999h-151c-82 0 -145.5 -6.5 -190.5 -19.5s-76.333 -33.833 -94 -62.5s-26.5 -67.667 -26.5 -117v-18c0 -48 7.33301 -85.667 22 -113s41.5 -47.166 80.5 -59.499s93.5 -18.5 163.5 -18.5c30 0 65.333 2 106 6s70.667 8.33301 90 13zM684.001 1290
c0 -9.33301 -6.33203 -13.998 -18.999 -13.998h-110c-10 0 -17.333 1.83301 -22 5.5s-13 12.167 -25 25.5l-232 258c-5.33301 5.33301 -8 10.666 -8 15.999c0 9.33301 7.33301 14 22 14h136c11.333 0 20.166 -1.83301 26.499 -5.5s14.5 -11.834 24.5 -24.501l198 -254
c6 -5.33301 9 -12.333 9 -21z" />
    <glyph glyph-name="aacute" unicode="&#xe1;" horiz-adv-x="1063" 
d="M924 78c0 -25.333 -10.332 -40.3369 -30.999 -45.0039c-106.667 -31.333 -222 -47 -346 -47c-108 0 -194.833 11.833 -260.5 35.5s-113.5 60.334 -143.5 110.001s-45 113.834 -45 192.501v18c0 76.667 16.167 139.334 48.5 188.001s84.833 84.834 157.5 108.501
s168.667 35.5 288 35.5h151v82c0 85.333 -16.333 144.5 -49 177.5s-89.334 49.5 -170.001 49.5c-126.667 0 -231 -4 -313 -12c-31.333 -2.66699 -47 8.33301 -47 33v71c0 22 14.333 35 43 39c108 18 213.667 27 317 27c266.667 0 400 -128.333 400 -385v-678z
M743.001 153.996v388.999h-151c-82 0 -145.5 -6.5 -190.5 -19.5s-76.333 -33.833 -94 -62.5s-26.5 -67.667 -26.5 -117v-18c0 -48 7.33301 -85.667 22 -113s41.5 -47.166 80.5 -59.499s93.5 -18.5 163.5 -18.5c30 0 65.333 2 106 6s70.667 8.33301 90 13zM762.001 1581
c0 -5.33301 -2.66895 -10.667 -8.00195 -16l-232 -258c-12 -13.333 -20.333 -21.833 -25 -25.5s-12 -5.5 -22 -5.5h-110c-12.667 0 -19 4.66699 -19 14c0 8.66699 2.66699 15.667 8 21l201 254c12.667 14 21.334 22.5 26.001 25.5s12.334 4.5 23.001 4.5h135
c15.333 0 23 -4.66699 23 -14z" />
    <glyph glyph-name="acircumflex" unicode="&#xe2;" horiz-adv-x="1063" 
d="M924 78c0 -25.333 -10.332 -40.3369 -30.999 -45.0039c-106.667 -31.333 -222 -47 -346 -47c-108 0 -194.833 11.833 -260.5 35.5s-113.5 60.334 -143.5 110.001s-45 113.834 -45 192.501v18c0 76.667 16.167 139.334 48.5 188.001s84.833 84.834 157.5 108.501
s168.667 35.5 288 35.5h151v82c0 85.333 -16.333 144.5 -49 177.5s-89.334 49.5 -170.001 49.5c-126.667 0 -231 -4 -313 -12c-31.333 -2.66699 -47 8.33301 -47 33v71c0 22 14.333 35 43 39c108 18 213.667 27 317 27c266.667 0 400 -128.333 400 -385v-678z
M743.001 153.996v388.999h-151c-82 0 -145.5 -6.5 -190.5 -19.5s-76.333 -33.833 -94 -62.5s-26.5 -67.667 -26.5 -117v-18c0 -48 7.33301 -85.667 22 -113s41.5 -47.166 80.5 -59.499s93.5 -18.5 163.5 -18.5c30 0 65.333 2 106 6s70.667 8.33301 90 13zM862.001 1290
c0 -9.33301 -5.99902 -13.999 -17.999 -13.999h-107c-10 0 -17.333 1.83301 -22 5.5s-13 12.167 -25 25.5l-168 198l-170 -198c-12 -13.333 -20.5 -21.833 -25.5 -25.5s-12.167 -5.5 -21.5 -5.5h-107c-12 0 -18 4.66699 -18 14c0 8.66699 2.66699 15.667 8 21l197 254
c10.667 13.333 18.667 21.666 24 24.999s13.666 5 24.999 5h174c17.333 0 34.333 -10 51 -30l195 -254c5.33301 -5.33301 8 -12.333 8 -21z" />
    <glyph glyph-name="atilde" unicode="&#xe3;" horiz-adv-x="1063" 
d="M924 78c0 -25.333 -10.332 -40.3369 -30.999 -45.0039c-106.667 -31.333 -222 -47 -346 -47c-108 0 -194.833 11.833 -260.5 35.5s-113.5 60.334 -143.5 110.001s-45 113.834 -45 192.501v18c0 76.667 16.167 139.334 48.5 188.001s84.833 84.834 157.5 108.501
s168.667 35.5 288 35.5h151v82c0 85.333 -16.333 144.5 -49 177.5s-89.334 49.5 -170.001 49.5c-126.667 0 -231 -4 -313 -12c-31.333 -2.66699 -47 8.33301 -47 33v71c0 22 14.333 35 43 39c108 18 213.667 27 317 27c266.667 0 400 -128.333 400 -385v-678z
M743.001 153.996v388.999h-151c-82 0 -145.5 -6.5 -190.5 -19.5s-76.333 -33.833 -94 -62.5s-26.5 -67.667 -26.5 -117v-18c0 -48 7.33301 -85.667 22 -113s41.5 -47.166 80.5 -59.499s93.5 -18.5 163.5 -18.5c30 0 65.333 2 106 6s70.667 8.33301 90 13zM874.001 1497
c0 -72 -15.166 -125.831 -45.499 -161.498s-79.166 -53.5 -146.499 -53.5c-52 0 -95.667 14.333 -131 43l-125 100c-24.667 19.333 -41.667 31.666 -51 36.999s-20.333 8 -33 8c-24 0 -40.667 -7.66699 -50 -23s-14 -39 -14 -71v-43c0 -9.33301 -3.5 -17.5 -10.5 -24.5
s-15.167 -10.5 -24.5 -10.5h-63c-10 0 -18 3.66699 -24 11s-9 15.333 -9 24v43c0 72.667 17.167 128 51.5 166s82.166 57 143.499 57c40 0 81 -16.333 123 -49l145 -114c11.333 -9.33301 23.833 -16.5 37.5 -21.5s25.167 -7.5 34.5 -7.5c21.333 0 36.833 6.66699 46.5 20
s14.5 36.666 14.5 69.999v47c0 8.66699 3.66699 16.667 11 24s15.333 11 24 11h63c9.33301 0 17.166 -3.33301 23.499 -10s9.5 -15 9.5 -25v-47z" />
    <glyph glyph-name="adieresis" unicode="&#xe4;" horiz-adv-x="1063" 
d="M924 78c0 -25.333 -10.332 -40.3369 -30.999 -45.0039c-106.667 -31.333 -222 -47 -346 -47c-108 0 -194.833 11.833 -260.5 35.5s-113.5 60.334 -143.5 110.001s-45 113.834 -45 192.501v18c0 76.667 16.167 139.334 48.5 188.001s84.833 84.834 157.5 108.501
s168.667 35.5 288 35.5h151v82c0 85.333 -16.333 144.5 -49 177.5s-89.334 49.5 -170.001 49.5c-126.667 0 -231 -4 -313 -12c-31.333 -2.66699 -47 8.33301 -47 33v71c0 22 14.333 35 43 39c108 18 213.667 27 317 27c266.667 0 400 -128.333 400 -385v-678z
M743.001 153.996v388.999h-151c-82 0 -145.5 -6.5 -190.5 -19.5s-76.333 -33.833 -94 -62.5s-26.5 -67.667 -26.5 -117v-18c0 -48 7.33301 -85.667 22 -113s41.5 -47.166 80.5 -59.499s93.5 -18.5 163.5 -18.5c30 0 65.333 2 106 6s70.667 8.33301 90 13zM772.001 1352
c0 -11.333 -4 -20.666 -12 -27.999s-17.667 -11 -29 -11h-80c-10 0 -19.333 3.66699 -28 11s-13 16.666 -13 27.999v166c0 10 4.33301 19.333 13 28s18 13 28 13h80c11.333 0 21 -4.33301 29 -13s12 -18 12 -28v-166zM414.001 1352c0 -11.333 -4.33301 -20.666 -13 -27.999
s-18 -11 -28 -11h-80c-11.333 0 -21 3.66699 -29 11s-12 16.666 -12 27.999v166c0 10 4 19.333 12 28s17.667 13 29 13h80c10 0 19.333 -4.33301 28 -13s13 -18 13 -28v-166z" />
    <glyph glyph-name="aring" unicode="&#xe5;" horiz-adv-x="1063" 
d="M924 78c0 -25.333 -10.332 -40.3369 -30.999 -45.0039c-106.667 -31.333 -222 -47 -346 -47c-108 0 -194.833 11.833 -260.5 35.5s-113.5 60.334 -143.5 110.001s-45 113.834 -45 192.501v18c0 76.667 16.167 139.334 48.5 188.001s84.833 84.834 157.5 108.501
s168.667 35.5 288 35.5h151v82c0 85.333 -16.333 144.5 -49 177.5s-89.334 49.5 -170.001 49.5c-126.667 0 -231 -4 -313 -12c-31.333 -2.66699 -47 8.33301 -47 33v71c0 22 14.333 35 43 39c108 18 213.667 27 317 27c266.667 0 400 -128.333 400 -385v-678z
M743.001 153.996v388.999h-151c-82 0 -145.5 -6.5 -190.5 -19.5s-76.333 -33.833 -94 -62.5s-26.5 -67.667 -26.5 -117v-18c0 -48 7.33301 -85.667 22 -113s41.5 -47.166 80.5 -59.499s93.5 -18.5 163.5 -18.5c30 0 65.333 2 106 6s70.667 8.33301 90 13zM729.001 1440
c0 -56.667 -20.334 -105.333 -61.001 -146s-89.334 -61 -146.001 -61c-38 0 -73 9.33301 -105 28s-57.333 43.667 -76 75s-28 66 -28 104s9.33301 72.833 28 104.5s43.834 57 75.501 76s66.834 28.5 105.501 28.5s73.5 -9.33301 104.5 -28s55.833 -44 74.5 -76
s28 -67 28 -105zM631 1442c0 30 -10.833 55.167 -32.5 75.5s-47.167 30.5 -76.5 30.5c-28.667 0 -53.667 -10.333 -75 -31s-32 -45.667 -32 -75s10.5 -54.833 31.5 -76.5s46.167 -32.5 75.5 -32.5c30 0 55.667 10.667 77 32s32 47 32 77z" />
    <glyph glyph-name="ae" unicode="&#xe6;" horiz-adv-x="1747" 
d="M1645 551c0 -30 -13.001 -45.0049 -39.001 -45.0049h-682v-66c0 -104 24.333 -180.5 73 -229.5s124 -73.5 226 -73.5c49.333 0 107.833 3 175.5 9s125.834 12.667 174.501 20h4h6c22 0 33 -9.66699 33 -29v-69c0 -14 -2.83301 -24.5 -8.5 -31.5s-16.5 -12.5 -32.5 -16.5
c-55.333 -10.667 -112.666 -19 -171.999 -25s-123 -9 -191 -9c-55.333 0 -104 3.83301 -146 11.5s-80.333 20.334 -115 38.001s-65.667 41.167 -93 70.5c-46 -39.333 -101.333 -69.166 -166 -89.499s-132.334 -30.5 -203.001 -30.5c-110.667 0 -203.5 28.167 -278.5 84.5
s-112.5 140.833 -112.5 253.5v18c0 76.667 16.167 139.334 48.5 188.001s84.833 84.834 157.5 108.501s168.667 35.5 288 35.5h153v82c0 57.333 -7.16699 102.833 -21.5 136.5s-38 57.834 -71 72.501s-75.833 22 -128.5 22c-99.333 0 -203.666 -5.33301 -312.999 -16h-4h-6
c-24.667 0 -37 11 -37 33v71c0 22 14.333 35 43 39c108 18 213.667 27 317 27c164 0 277.333 -48 340 -144c81.333 96 192.666 144 333.999 144c74 0 139 -12.333 195 -37s102.833 -59.5 140.5 -104.5s65.667 -98 84 -159s27.5 -128.833 27.5 -203.5v-86zM1466 642.995v10
c0 110 -22.333 193.167 -67 249.5s-111.667 84.5 -201 84.5c-86.667 0 -154 -29.333 -202 -88s-72 -140.667 -72 -246v-10h542zM744.999 192.995v350.002h-153c-120.667 0 -202.667 -14.833 -246 -44.5s-65 -81.834 -65 -156.501v-18c0 -68.667 21.333 -118.334 64 -149.001
s99 -46 169 -46c97.333 0 174.333 21.333 231 64z" />
    <glyph glyph-name="ccedilla" unicode="&#xe7;" horiz-adv-x="926" 
d="M836 53c0 -24.667 -13.668 -39.6689 -41.001 -45.002c-83.333 -14.667 -168.666 -22 -255.999 -22c-90 0 -168.333 20.333 -235 61s-117 98.334 -151 173.001s-51 162.334 -51 263.001v160c0 100 16.833 187.5 50.5 262.5s83.5 133 149.5 174s145 61.5 237 61.5
c84 0 169.333 -7.66699 256 -23c16 -2.66699 26.833 -7.16699 32.5 -13.5s8.5 -16.833 8.5 -31.5v-74c0 -20 -11.667 -30 -35 -30h-8c-84.667 9.33301 -169.334 14 -254.001 14c-170.667 0 -256 -113.333 -256 -340v-160c0 -112.667 21.833 -197.5 65.5 -254.5
s107.167 -85.5 190.5 -85.5c86.667 0 171.334 5 254.001 15h8c23.333 0 35 -10.333 35 -31v-74zM658.999 -80.002c0 -5.33301 -2.66895 -10.667 -8.00195 -16l-231 -258c-11.333 -12.667 -19.666 -21 -24.999 -25s-12.666 -6 -21.999 -6h-111c-12 0 -18 4.66699 -18 14
c0 8.66699 2.66699 15.667 8 21l199 254c16.667 20 33.667 30 51 30h135c14.667 0 22 -4.66699 22 -14z" />
    <glyph glyph-name="egrave" unicode="&#xe8;" horiz-adv-x="1114" 
d="M1012 551c0 -30 -13 -44.9971 -39 -44.9971h-686v-25c0 -76.667 11.667 -140.834 35 -192.501s57.166 -89.834 101.499 -114.501s98.5 -37 162.5 -37c50.667 0 109.5 3 176.5 9s124.833 12.667 173.5 20h10c22 0 33 -9.66699 33 -29v-69c0 -14 -2.83301 -24.5 -8.5 -31.5
s-16.5 -12.5 -32.5 -16.5c-56.667 -10.667 -113 -19 -169 -25s-117 -9 -183 -9c-87.333 0 -166.666 15.667 -237.999 47s-129.5 84.666 -174.5 159.999s-67.5 175 -67.5 299v143c0 96.667 17.667 183.5 53 260.5s87.5 137.167 156.5 180.5s150.833 65 245.5 65
c97.333 0 179.833 -21.5 247.5 -64.5s118.5 -102.5 152.5 -178.5s51 -163 51 -261v-86zM829 643.003v10c0 110 -22.333 192.5 -67 247.5s-111.667 82.5 -201 82.5c-58 0 -107.5 -12.667 -148.5 -38s-72.167 -63 -93.5 -113s-32 -109.667 -32 -179v-10h542zM650 1290
c0 -9.33301 -6.33203 -13.998 -18.999 -13.998h-110c-10 0 -17.333 1.83301 -22 5.5s-13 12.167 -25 25.5l-232 258c-5.33301 5.33301 -8 10.666 -8 15.999c0 9.33301 7.33301 14 22 14h136c11.333 0 20.166 -1.83301 26.499 -5.5s14.5 -11.834 24.5 -24.501l198 -254
c6 -5.33301 9 -12.333 9 -21z" />
    <glyph glyph-name="eacute" unicode="&#xe9;" horiz-adv-x="1114" 
d="M1012 551c0 -30 -13 -44.9971 -39 -44.9971h-686v-25c0 -76.667 11.667 -140.834 35 -192.501s57.166 -89.834 101.499 -114.501s98.5 -37 162.5 -37c50.667 0 109.5 3 176.5 9s124.833 12.667 173.5 20h10c22 0 33 -9.66699 33 -29v-69c0 -14 -2.83301 -24.5 -8.5 -31.5
s-16.5 -12.5 -32.5 -16.5c-56.667 -10.667 -113 -19 -169 -25s-117 -9 -183 -9c-87.333 0 -166.666 15.667 -237.999 47s-129.5 84.666 -174.5 159.999s-67.5 175 -67.5 299v143c0 96.667 17.667 183.5 53 260.5s87.5 137.167 156.5 180.5s150.833 65 245.5 65
c97.333 0 179.833 -21.5 247.5 -64.5s118.5 -102.5 152.5 -178.5s51 -163 51 -261v-86zM829 643.003v10c0 110 -22.333 192.5 -67 247.5s-111.667 82.5 -201 82.5c-58 0 -107.5 -12.667 -148.5 -38s-72.167 -63 -93.5 -113s-32 -109.667 -32 -179v-10h542zM889 1581
c0 -5.33301 -2.66895 -10.667 -8.00195 -16l-232 -258c-12 -13.333 -20.333 -21.833 -25 -25.5s-12 -5.5 -22 -5.5h-110c-12.667 0 -19 4.66699 -19 14c0 8.66699 2.66699 15.667 8 21l201 254c12.667 14 21.334 22.5 26.001 25.5s12.334 4.5 23.001 4.5h135
c15.333 0 23 -4.66699 23 -14z" />
    <glyph glyph-name="ecircumflex" unicode="&#xea;" horiz-adv-x="1114" 
d="M1012 551c0 -30 -13 -44.9971 -39 -44.9971h-686v-25c0 -76.667 11.667 -140.834 35 -192.501s57.166 -89.834 101.499 -114.501s98.5 -37 162.5 -37c50.667 0 109.5 3 176.5 9s124.833 12.667 173.5 20h10c22 0 33 -9.66699 33 -29v-69c0 -14 -2.83301 -24.5 -8.5 -31.5
s-16.5 -12.5 -32.5 -16.5c-56.667 -10.667 -113 -19 -169 -25s-117 -9 -183 -9c-87.333 0 -166.666 15.667 -237.999 47s-129.5 84.666 -174.5 159.999s-67.5 175 -67.5 299v143c0 96.667 17.667 183.5 53 260.5s87.5 137.167 156.5 180.5s150.833 65 245.5 65
c97.333 0 179.833 -21.5 247.5 -64.5s118.5 -102.5 152.5 -178.5s51 -163 51 -261v-86zM829 643.003v10c0 110 -22.333 192.5 -67 247.5s-111.667 82.5 -201 82.5c-58 0 -107.5 -12.667 -148.5 -38s-72.167 -63 -93.5 -113s-32 -109.667 -32 -179v-10h542zM899 1290
c0 -9.33301 -5.99902 -13.999 -17.999 -13.999h-107c-10 0 -17.333 1.83301 -22 5.5s-13 12.167 -25 25.5l-168 198l-170 -198c-12 -13.333 -20.5 -21.833 -25.5 -25.5s-12.167 -5.5 -21.5 -5.5h-107c-12 0 -18 4.66699 -18 14c0 8.66699 2.66699 15.667 8 21l197 254
c10.667 13.333 18.667 21.666 24 24.999s13.666 5 24.999 5h174c17.333 0 34.333 -10 51 -30l195 -254c5.33301 -5.33301 8 -12.333 8 -21z" />
    <glyph glyph-name="edieresis" unicode="&#xeb;" horiz-adv-x="1114" 
d="M1012 551c0 -30 -13 -44.9971 -39 -44.9971h-686v-25c0 -76.667 11.667 -140.834 35 -192.501s57.166 -89.834 101.499 -114.501s98.5 -37 162.5 -37c50.667 0 109.5 3 176.5 9s124.833 12.667 173.5 20h10c22 0 33 -9.66699 33 -29v-69c0 -14 -2.83301 -24.5 -8.5 -31.5
s-16.5 -12.5 -32.5 -16.5c-56.667 -10.667 -113 -19 -169 -25s-117 -9 -183 -9c-87.333 0 -166.666 15.667 -237.999 47s-129.5 84.666 -174.5 159.999s-67.5 175 -67.5 299v143c0 96.667 17.667 183.5 53 260.5s87.5 137.167 156.5 180.5s150.833 65 245.5 65
c97.333 0 179.833 -21.5 247.5 -64.5s118.5 -102.5 152.5 -178.5s51 -163 51 -261v-86zM829 643.003v10c0 110 -22.333 192.5 -67 247.5s-111.667 82.5 -201 82.5c-58 0 -107.5 -12.667 -148.5 -38s-72.167 -63 -93.5 -113s-32 -109.667 -32 -179v-10h542zM825 1352
c0 -11.333 -4 -20.666 -12 -27.999s-17.667 -11 -29 -11h-80c-10 0 -19.333 3.66699 -28 11s-13 16.666 -13 27.999v166c0 10 4.33301 19.333 13 28s18 13 28 13h80c11.333 0 21 -4.33301 29 -13s12 -18 12 -28v-166zM467 1352c0 -11.333 -4.33301 -20.666 -13 -27.999
s-18 -11 -28 -11h-80c-11.333 0 -21 3.66699 -29 11s-12 16.666 -12 27.999v166c0 10 4 19.333 12 28s17.667 13 29 13h80c10 0 19.333 -4.33301 28 -13s13 -18 13 -28v-166z" />
    <glyph glyph-name="igrave" unicode="&#xec;" horiz-adv-x="506" 
d="M344 41c0 -12 -4 -21.833 -12 -29.5s-17.667 -11.5 -29 -11.5h-98c-11.333 0 -21.333 4 -30 12s-13 17.667 -13 29v1044c0 11.333 3.83301 21 11.5 29s17.5 12 29.5 12h98c12.667 0 23 -3.66699 31 -11s12 -17.333 12 -30v-1044zM378 1290
c0 -9.33301 -6.33203 -13.998 -18.999 -13.998h-110c-10 0 -17.333 1.83301 -22 5.5s-13 12.167 -25 25.5l-232 258c-5.33301 5.33301 -8 10.666 -8 15.999c0 9.33301 7.33301 14 22 14h136c11.333 0 20.166 -1.83301 26.499 -5.5s14.5 -11.834 24.5 -24.501l198 -254
c6 -5.33301 9 -12.333 9 -21z" />
    <glyph glyph-name="iacute" unicode="&#xed;" horiz-adv-x="506" 
d="M344 41c0 -12 -4 -21.833 -12 -29.5s-17.667 -11.5 -29 -11.5h-98c-11.333 0 -21.333 4 -30 12s-13 17.667 -13 29v1044c0 11.333 3.83301 21 11.5 29s17.5 12 29.5 12h98c12.667 0 23 -3.66699 31 -11s12 -17.333 12 -30v-1044zM555 1581
c0 -5.33301 -2.66895 -10.667 -8.00195 -16l-232 -258c-12 -13.333 -20.333 -21.833 -25 -25.5s-12 -5.5 -22 -5.5h-110c-12.667 0 -19 4.66699 -19 14c0 8.66699 2.66699 15.667 8 21l201 254c12.667 14 21.334 22.5 26.001 25.5s12.334 4.5 23.001 4.5h135
c15.333 0 23 -4.66699 23 -14z" />
    <glyph glyph-name="icircumflex" unicode="&#xee;" horiz-adv-x="506" 
d="M344 41c0 -12 -4 -21.833 -12 -29.5s-17.667 -11.5 -29 -11.5h-98c-11.333 0 -21.333 4 -30 12s-13 17.667 -13 29v1044c0 11.333 3.83301 21 11.5 29s17.5 12 29.5 12h98c12.667 0 23 -3.66699 31 -11s12 -17.333 12 -30v-1044zM592 1290
c0 -9.33301 -5.99902 -13.999 -17.999 -13.999h-107c-10 0 -17.333 1.83301 -22 5.5s-13 12.167 -25 25.5l-168 198l-170 -198c-12 -13.333 -20.5 -21.833 -25.5 -25.5s-12.167 -5.5 -21.5 -5.5h-107c-12 0 -18 4.66699 -18 14c0 8.66699 2.66699 15.667 8 21l197 254
c10.667 13.333 18.667 21.666 24 24.999s13.666 5 24.999 5h174c17.333 0 34.333 -10 51 -30l195 -254c5.33301 -5.33301 8 -12.333 8 -21z" />
    <glyph glyph-name="idieresis" unicode="&#xef;" horiz-adv-x="506" 
d="M344 41c0 -12 -4 -21.833 -12 -29.5s-17.667 -11.5 -29 -11.5h-98c-11.333 0 -21.333 4 -30 12s-13 17.667 -13 29v1044c0 11.333 3.83301 21 11.5 29s17.5 12 29.5 12h98c12.667 0 23 -3.66699 31 -11s12 -17.333 12 -30v-1044zM512 1352
c0 -11.333 -4 -20.666 -12 -27.999s-17.667 -11 -29 -11h-80c-10 0 -19.333 3.66699 -28 11s-13 16.666 -13 27.999v166c0 10 4.33301 19.333 13 28s18 13 28 13h80c11.333 0 21 -4.33301 29 -13s12 -18 12 -28v-166zM154 1352c0 -11.333 -4.33301 -20.666 -13 -27.999
s-18 -11 -28 -11h-80c-11.333 0 -21 3.66699 -29 11s-12 16.666 -12 27.999v166c0 10 4 19.333 12 28s17.667 13 29 13h80c10 0 19.333 -4.33301 28 -13s13 -18 13 -28v-166z" />
    <glyph glyph-name="eth" unicode="&#xf0;" horiz-adv-x="1116" 
d="M1014 498c0 -166 -38.4971 -292.836 -115.497 -380.503s-189.5 -131.5 -337.5 -131.5c-103.333 0 -188.833 20.333 -256.5 61s-118.334 99 -152.001 175s-50.5 168 -50.5 276v112c0 83.333 9.66699 156.333 29 219s48.5 116.167 87.5 160.5s87 77.5 144 99.5
s122.5 33 196.5 33c98 0 174.333 -24.333 229 -73c-20.667 54 -55.834 104.667 -105.501 152s-114.834 90 -195.501 128l-176 -135c-10 -8 -18.667 -12 -26 -12s-15 4 -23 12l-35 39c-4 4 -6 8.66699 -6 14c0 13.333 7 25 21 35l125 96c-58.667 20 -112.667 35 -162 45
c-22 5.33301 -33 15.666 -33 30.999c0 4 0.666992 7.33301 2 10l25 70c4.66699 14.667 14 22 28 22c7.33301 0 13 -0.666992 17 -2c92 -21.333 176.667 -46.333 254 -75l192 145c7.33301 5.33301 16.333 8 27 8c9.33301 0 17.333 -3.33301 24 -10l35 -37
c5.33301 -5.33301 8 -10.666 8 -15.999c0 -8 -6.66699 -17.667 -20 -29l-150 -115c77.333 -43.333 142.333 -91.666 195 -144.999s93.667 -111.166 123 -173.499s50.333 -133.666 63 -213.999s19 -174.5 19 -282.5v-112zM834.003 497.997l-0.00195312 112.002
c0 58 -5 109.5 -15 154.5s-26.167 82.667 -48.5 113s-50.833 53.166 -85.5 68.499s-76.667 23 -126 23c-65.333 0 -118.166 -13.833 -158.499 -41.5s-69.666 -67.5 -87.999 -119.5s-27.5 -118 -27.5 -198v-112c0 -118 22 -207 66 -267s114 -90 210 -90
c64 0 116.333 13.5 157 40.5s70.167 66.667 88.5 119s27.5 118.166 27.5 197.499z" />
    <glyph glyph-name="ntilde" unicode="&#xf1;" horiz-adv-x="1141" 
d="M1001 41c0 -12.667 -3.33496 -22.667 -10.002 -30s-15.334 -11 -26.001 -11h-107c-10 0 -18.667 4 -26 12s-11 17.667 -11 29v731c0 54 -5.16699 96 -15.5 126s-28.666 52 -54.999 66s-62.166 21 -107.499 21h-145c-68.667 0 -115.667 -16 -141 -48s-38 -87 -38 -165
v-731c0 -12.667 -3.33301 -22.667 -10 -30s-15.334 -11 -26.001 -11h-107c-10 0 -18.667 4 -26 12s-11 17.667 -11 29v731c0 96.667 18.833 172.5 56.5 227.5s83.334 92.333 137.001 112s108.834 29.5 165.501 29.5h145c94 0 177.167 -26.5 249.5 -79.5
s108.5 -149.5 108.5 -289.5v-731zM941.998 1497c0 -72 -15.166 -125.831 -45.499 -161.498s-79.166 -53.5 -146.499 -53.5c-52 0 -95.667 14.333 -131 43l-125 100c-24.667 19.333 -41.667 31.666 -51 36.999s-20.333 8 -33 8c-24 0 -40.667 -7.66699 -50 -23
s-14 -39 -14 -71v-43c0 -9.33301 -3.5 -17.5 -10.5 -24.5s-15.167 -10.5 -24.5 -10.5h-63c-10 0 -18 3.66699 -24 11s-9 15.333 -9 24v43c0 72.667 17.167 128 51.5 166s82.166 57 143.499 57c40 0 81 -16.333 123 -49l145 -114c11.333 -9.33301 23.833 -16.5 37.5 -21.5
s25.167 -7.5 34.5 -7.5c21.333 0 36.833 6.66699 46.5 20s14.5 36.666 14.5 69.999v47c0 8.66699 3.66699 16.667 11 24s15.333 11 24 11h63c9.33301 0 17.166 -3.33301 23.499 -10s9.5 -15 9.5 -25v-47z" />
    <glyph glyph-name="ograve" unicode="&#xf2;" horiz-adv-x="1116" 
d="M1014 485c0 -101.333 -17.332 -189.333 -51.999 -264s-86.334 -132.5 -155.001 -173.5s-152 -61.5 -250 -61.5c-146.667 0 -259.167 44.833 -337.5 134.5s-117.5 211.167 -117.5 364.5v156c0 154 39.167 275.833 117.5 365.5s190.833 134.5 337.5 134.5
c76 0 142.167 -11.667 198.5 -35s103.833 -56.833 142.5 -100.5s67.667 -96.5 87 -158.5s29 -130.667 29 -206v-156zM834.001 485v156.002c0 108 -22.667 192 -68 252s-115 90 -209 90c-92 0 -160.667 -29.833 -206 -89.5s-68 -143.834 -68 -252.501v-156
c0 -228 91.333 -342 274 -342c93.333 0 162.833 29.667 208.5 89s68.5 143.666 68.5 252.999zM676.001 1290c0 -9.33301 -6.33203 -13.998 -18.999 -13.998h-110c-10 0 -17.333 1.83301 -22 5.5s-13 12.167 -25 25.5l-232 258c-5.33301 5.33301 -8 10.666 -8 15.999
c0 9.33301 7.33301 14 22 14h136c11.333 0 20.166 -1.83301 26.499 -5.5s14.5 -11.834 24.5 -24.501l198 -254c6 -5.33301 9 -12.333 9 -21z" />
    <glyph glyph-name="oacute" unicode="&#xf3;" horiz-adv-x="1116" 
d="M1014 485c0 -101.333 -17.332 -189.333 -51.999 -264s-86.334 -132.5 -155.001 -173.5s-152 -61.5 -250 -61.5c-146.667 0 -259.167 44.833 -337.5 134.5s-117.5 211.167 -117.5 364.5v156c0 154 39.167 275.833 117.5 365.5s190.833 134.5 337.5 134.5
c76 0 142.167 -11.667 198.5 -35s103.833 -56.833 142.5 -100.5s67.667 -96.5 87 -158.5s29 -130.667 29 -206v-156zM834.001 485v156.002c0 108 -22.667 192 -68 252s-115 90 -209 90c-92 0 -160.667 -29.833 -206 -89.5s-68 -143.834 -68 -252.501v-156
c0 -228 91.333 -342 274 -342c93.333 0 162.833 29.667 208.5 89s68.5 143.666 68.5 252.999zM871.001 1581c0 -5.33301 -2.66895 -10.667 -8.00195 -16l-232 -258c-12 -13.333 -20.333 -21.833 -25 -25.5s-12 -5.5 -22 -5.5h-110c-12.667 0 -19 4.66699 -19 14
c0 8.66699 2.66699 15.667 8 21l201 254c12.667 14 21.334 22.5 26.001 25.5s12.334 4.5 23.001 4.5h135c15.333 0 23 -4.66699 23 -14z" />
    <glyph glyph-name="ocircumflex" unicode="&#xf4;" horiz-adv-x="1116" 
d="M1014 485c0 -101.333 -17.332 -189.333 -51.999 -264s-86.334 -132.5 -155.001 -173.5s-152 -61.5 -250 -61.5c-146.667 0 -259.167 44.833 -337.5 134.5s-117.5 211.167 -117.5 364.5v156c0 154 39.167 275.833 117.5 365.5s190.833 134.5 337.5 134.5
c76 0 142.167 -11.667 198.5 -35s103.833 -56.833 142.5 -100.5s67.667 -96.5 87 -158.5s29 -130.667 29 -206v-156zM834.001 485v156.002c0 108 -22.667 192 -68 252s-115 90 -209 90c-92 0 -160.667 -29.833 -206 -89.5s-68 -143.834 -68 -252.501v-156
c0 -228 91.333 -342 274 -342c93.333 0 162.833 29.667 208.5 89s68.5 143.666 68.5 252.999zM901.001 1290c0 -9.33301 -5.99902 -13.999 -17.999 -13.999h-107c-10 0 -17.333 1.83301 -22 5.5s-13 12.167 -25 25.5l-168 198l-170 -198
c-12 -13.333 -20.5 -21.833 -25.5 -25.5s-12.167 -5.5 -21.5 -5.5h-107c-12 0 -18 4.66699 -18 14c0 8.66699 2.66699 15.667 8 21l197 254c10.667 13.333 18.667 21.666 24 24.999s13.666 5 24.999 5h174c17.333 0 34.333 -10 51 -30l195 -254
c5.33301 -5.33301 8 -12.333 8 -21z" />
    <glyph glyph-name="otilde" unicode="&#xf5;" horiz-adv-x="1116" 
d="M1014 485c0 -101.333 -17.332 -189.333 -51.999 -264s-86.334 -132.5 -155.001 -173.5s-152 -61.5 -250 -61.5c-146.667 0 -259.167 44.833 -337.5 134.5s-117.5 211.167 -117.5 364.5v156c0 154 39.167 275.833 117.5 365.5s190.833 134.5 337.5 134.5
c76 0 142.167 -11.667 198.5 -35s103.833 -56.833 142.5 -100.5s67.667 -96.5 87 -158.5s29 -130.667 29 -206v-156zM834.001 485v156.002c0 108 -22.667 192 -68 252s-115 90 -209 90c-92 0 -160.667 -29.833 -206 -89.5s-68 -143.834 -68 -252.501v-156
c0 -228 91.333 -342 274 -342c93.333 0 162.833 29.667 208.5 89s68.5 143.666 68.5 252.999zM934.001 1497c0 -72 -15.166 -125.831 -45.499 -161.498s-79.166 -53.5 -146.499 -53.5c-52 0 -95.667 14.333 -131 43l-125 100c-24.667 19.333 -41.667 31.666 -51 36.999
s-20.333 8 -33 8c-24 0 -40.667 -7.66699 -50 -23s-14 -39 -14 -71v-43c0 -9.33301 -3.5 -17.5 -10.5 -24.5s-15.167 -10.5 -24.5 -10.5h-63c-10 0 -18 3.66699 -24 11s-9 15.333 -9 24v43c0 72.667 17.167 128 51.5 166s82.166 57 143.499 57c40 0 81 -16.333 123 -49
l145 -114c11.333 -9.33301 23.833 -16.5 37.5 -21.5s25.167 -7.5 34.5 -7.5c21.333 0 36.833 6.66699 46.5 20s14.5 36.666 14.5 69.999v47c0 8.66699 3.66699 16.667 11 24s15.333 11 24 11h63c9.33301 0 17.166 -3.33301 23.499 -10s9.5 -15 9.5 -25v-47z" />
    <glyph glyph-name="odieresis" unicode="&#xf6;" horiz-adv-x="1116" 
d="M1014 485c0 -101.333 -17.332 -189.333 -51.999 -264s-86.334 -132.5 -155.001 -173.5s-152 -61.5 -250 -61.5c-146.667 0 -259.167 44.833 -337.5 134.5s-117.5 211.167 -117.5 364.5v156c0 154 39.167 275.833 117.5 365.5s190.833 134.5 337.5 134.5
c76 0 142.167 -11.667 198.5 -35s103.833 -56.833 142.5 -100.5s67.667 -96.5 87 -158.5s29 -130.667 29 -206v-156zM834.001 485v156.002c0 108 -22.667 192 -68 252s-115 90 -209 90c-92 0 -160.667 -29.833 -206 -89.5s-68 -143.834 -68 -252.501v-156
c0 -228 91.333 -342 274 -342c93.333 0 162.833 29.667 208.5 89s68.5 143.666 68.5 252.999zM815.001 1352c0 -11.333 -4 -20.666 -12 -27.999s-17.667 -11 -29 -11h-80c-10 0 -19.333 3.66699 -28 11s-13 16.666 -13 27.999v166c0 10 4.33301 19.333 13 28s18 13 28 13h80
c11.333 0 21 -4.33301 29 -13s12 -18 12 -28v-166zM457.001 1352c0 -11.333 -4.33301 -20.666 -13 -27.999s-18 -11 -28 -11h-80c-11.333 0 -21 3.66699 -29 11s-12 16.666 -12 27.999v166c0 10 4 19.333 12 28s17.667 13 29 13h80c10 0 19.333 -4.33301 28 -13
s13 -18 13 -28v-166z" />
    <glyph glyph-name="divide" unicode="&#xf7;" 
d="M707 1079c0 -10 -4.00098 -19.333 -12.001 -28s-17 -13 -27 -13h-99c-9.33301 0 -18.5 4.16699 -27.5 12.5s-13.5 17.833 -13.5 28.5v181c0 10.667 4.33301 19.667 13 27s18 11 28 11h99c10.667 0 19.834 -3.83301 27.501 -11.5s11.5 -16.5 11.5 -26.5v-181zM1055 760
c0 -22 -13.667 -33 -41 -33h-789c-27.333 0 -41 11 -41 33v82c0 21.333 13.667 32 41 32h789c27.333 0 41 -10.667 41 -32v-82zM706.999 332c0 -10.667 -3.83105 -19.833 -11.498 -27.5s-16.834 -11.5 -27.501 -11.5h-99c-10 0 -19.333 3.66699 -28 11
s-13 16.666 -13 27.999v182c0 10.667 4.16699 19.834 12.5 27.501s17.833 11.5 28.5 11.5h99c11.333 0 20.666 -4 27.999 -12s11 -17 11 -27v-182z" />
    <glyph glyph-name="oslash" unicode="&#xf8;" horiz-adv-x="1116" 
d="M1081 1178c0 -10 -2.66699 -17.665 -8 -22.998l-143 -192c56 -85.333 84 -192.666 84 -321.999v-156c0 -101.333 -17.333 -189.333 -52 -264s-86.334 -132.5 -155.001 -173.5s-152 -61.5 -250 -61.5c-116 0 -211 28.667 -285 86l-90 -123c-10 -14 -20.667 -21 -32 -21
h-101c-10.667 0 -16 5.66699 -16 17c0 9.33301 2.66699 16.666 8 21.999l145 197c-56 85.333 -84 192.333 -84 321v156c0 154 39.167 275.833 117.5 365.5s190.833 134.5 337.5 134.5c40.667 0 77.667 -3.33301 111 -10s64.833 -16.334 94.5 -29.001
s56.834 -28.334 81.501 -47.001l86 119c10.667 13.333 21.667 20 33 20h102c10.667 0 16 -5.33301 16 -16zM741 920.002c-46 42 -107.333 63.001 -184 63.001c-182.667 0 -274 -114 -274 -342v-156c0 -62.667 6.66699 -116.334 20 -161.001zM834 485.003v156.001
c0 55.333 -7.66699 108.666 -23 159.999l-438 -594c44.667 -42.667 106 -64 184 -64c184.667 0 277 114 277 342z" />
    <glyph glyph-name="ugrave" unicode="&#xf9;" horiz-adv-x="1141" 
d="M1001 467c0 -95.333 -14.165 -174.833 -42.498 -238.5s-64.5 -113 -108.5 -148s-89.833 -59.5 -137.5 -73.5s-91.834 -21 -132.501 -21h-19c-60 0 -121.667 13.5 -185 40.5s-118.666 76.333 -165.999 148s-71 169.167 -71 292.5v618c0 11.333 3.5 21 10.5 29
s15.833 12 26.5 12h107c11.333 0 20.166 -3.66699 26.499 -11s9.5 -17.333 9.5 -30v-618c0 -116 21.667 -199 65 -249s102.333 -75 177 -75h19c74.667 0 133.5 25 176.5 75s64.5 133 64.5 249v618c0 11.333 3.5 21 10.5 29s15.833 12 26.5 12h107
c11.333 0 20.166 -3.66699 26.499 -11s9.5 -17.333 9.5 -30v-618zM688.002 1290c0 -9.33301 -6.33203 -13.998 -18.999 -13.998h-110c-10 0 -17.333 1.83301 -22 5.5s-13 12.167 -25 25.5l-232 258c-5.33301 5.33301 -8 10.666 -8 15.999c0 9.33301 7.33301 14 22 14h136
c11.333 0 20.166 -1.83301 26.499 -5.5s14.5 -11.834 24.5 -24.501l198 -254c6 -5.33301 9 -12.333 9 -21z" />
    <glyph glyph-name="uacute" unicode="&#xfa;" horiz-adv-x="1141" 
d="M1001 467c0 -95.333 -14.165 -174.833 -42.498 -238.5s-64.5 -113 -108.5 -148s-89.833 -59.5 -137.5 -73.5s-91.834 -21 -132.501 -21h-19c-60 0 -121.667 13.5 -185 40.5s-118.666 76.333 -165.999 148s-71 169.167 -71 292.5v618c0 11.333 3.5 21 10.5 29
s15.833 12 26.5 12h107c11.333 0 20.166 -3.66699 26.499 -11s9.5 -17.333 9.5 -30v-618c0 -116 21.667 -199 65 -249s102.333 -75 177 -75h19c74.667 0 133.5 25 176.5 75s64.5 133 64.5 249v618c0 11.333 3.5 21 10.5 29s15.833 12 26.5 12h107
c11.333 0 20.166 -3.66699 26.499 -11s9.5 -17.333 9.5 -30v-618zM889.002 1581c0 -5.33301 -2.66895 -10.667 -8.00195 -16l-232 -258c-12 -13.333 -20.333 -21.833 -25 -25.5s-12 -5.5 -22 -5.5h-110c-12.667 0 -19 4.66699 -19 14c0 8.66699 2.66699 15.667 8 21l201 254
c12.667 14 21.334 22.5 26.001 25.5s12.334 4.5 23.001 4.5h135c15.333 0 23 -4.66699 23 -14z" />
    <glyph glyph-name="ucircumflex" unicode="&#xfb;" horiz-adv-x="1141" 
d="M1001 467c0 -95.333 -14.165 -174.833 -42.498 -238.5s-64.5 -113 -108.5 -148s-89.833 -59.5 -137.5 -73.5s-91.834 -21 -132.501 -21h-19c-60 0 -121.667 13.5 -185 40.5s-118.666 76.333 -165.999 148s-71 169.167 -71 292.5v618c0 11.333 3.5 21 10.5 29
s15.833 12 26.5 12h107c11.333 0 20.166 -3.66699 26.499 -11s9.5 -17.333 9.5 -30v-618c0 -116 21.667 -199 65 -249s102.333 -75 177 -75h19c74.667 0 133.5 25 176.5 75s64.5 133 64.5 249v618c0 11.333 3.5 21 10.5 29s15.833 12 26.5 12h107
c11.333 0 20.166 -3.66699 26.499 -11s9.5 -17.333 9.5 -30v-618zM913.002 1290c0 -9.33301 -5.99902 -13.999 -17.999 -13.999h-107c-10 0 -17.333 1.83301 -22 5.5s-13 12.167 -25 25.5l-168 198l-170 -198c-12 -13.333 -20.5 -21.833 -25.5 -25.5
s-12.167 -5.5 -21.5 -5.5h-107c-12 0 -18 4.66699 -18 14c0 8.66699 2.66699 15.667 8 21l197 254c10.667 13.333 18.667 21.666 24 24.999s13.666 5 24.999 5h174c17.333 0 34.333 -10 51 -30l195 -254c5.33301 -5.33301 8 -12.333 8 -21z" />
    <glyph glyph-name="udieresis" unicode="&#xfc;" horiz-adv-x="1141" 
d="M1001 467c0 -95.333 -14.165 -174.833 -42.498 -238.5s-64.5 -113 -108.5 -148s-89.833 -59.5 -137.5 -73.5s-91.834 -21 -132.501 -21h-19c-60 0 -121.667 13.5 -185 40.5s-118.666 76.333 -165.999 148s-71 169.167 -71 292.5v618c0 11.333 3.5 21 10.5 29
s15.833 12 26.5 12h107c11.333 0 20.166 -3.66699 26.499 -11s9.5 -17.333 9.5 -30v-618c0 -116 21.667 -199 65 -249s102.333 -75 177 -75h19c74.667 0 133.5 25 176.5 75s64.5 133 64.5 249v618c0 11.333 3.5 21 10.5 29s15.833 12 26.5 12h107
c11.333 0 20.166 -3.66699 26.499 -11s9.5 -17.333 9.5 -30v-618zM829.002 1352c0 -11.333 -4 -20.666 -12 -27.999s-17.667 -11 -29 -11h-80c-10 0 -19.333 3.66699 -28 11s-13 16.666 -13 27.999v166c0 10 4.33301 19.333 13 28s18 13 28 13h80
c11.333 0 21 -4.33301 29 -13s12 -18 12 -28v-166zM471.002 1352c0 -11.333 -4.33301 -20.666 -13 -27.999s-18 -11 -28 -11h-80c-11.333 0 -21 3.66699 -29 11s-12 16.666 -12 27.999v166c0 10 4 19.333 12 28s17.667 13 29 13h80c10 0 19.333 -4.33301 28 -13
s13 -18 13 -28v-166z" />
    <glyph glyph-name="yacute" unicode="&#xfd;" horiz-adv-x="1141" 
d="M1001 0c0 -78.667 -8.50098 -144.499 -25.501 -197.499s-43 -94.833 -78 -125.5s-77.667 -52.167 -128 -64.5s-112.166 -18.5 -185.499 -18.5c-134 0 -246.667 11.667 -338 35c-15.333 5.33301 -25.666 11 -30.999 17s-8 14.667 -8 26v58c0 10.667 3.33301 19 10 25
s15.667 9 27 9h6l75 -8c44 -4.66699 91.333 -8.5 142 -11.5s89.667 -4.5 117 -4.5c63.333 0 112.166 6.83301 146.499 20.5s58.666 39 72.999 76s21.5 91.5 21.5 163.5v10c-23.333 -6.66699 -59.166 -12.334 -107.499 -17.001s-88.166 -7 -119.499 -7
c-306 0 -459 141.333 -459 424v675c0 11.333 4 21 12 29s17.667 12 29 12h99c12 0 21.667 -3.66699 29 -11s11 -17.333 11 -30v-675c0 -103.333 23.167 -174.333 69.5 -213s116.166 -58 209.499 -58c72.667 0 147 9 223 27v919c0 11.333 4 21 12 29s17.667 12 29 12h99
c12 0 21.667 -3.66699 29 -11s11 -17.333 11 -30v-1085zM912.999 1581c0 -5.33301 -2.66895 -10.667 -8.00195 -16l-232 -258c-12 -13.333 -20.333 -21.833 -25 -25.5s-12 -5.5 -22 -5.5h-110c-12.667 0 -19 4.66699 -19 14c0 8.66699 2.66699 15.667 8 21l201 254
c12.667 14 21.334 22.5 26.001 25.5s12.334 4.5 23.001 4.5h135c15.333 0 23 -4.66699 23 -14z" />
    <glyph glyph-name="thorn" unicode="&#xfe;" horiz-adv-x="1108" 
d="M1006 487c0 -162 -37.668 -285.998 -113.001 -371.998s-186.666 -129 -333.999 -129c-76 0 -156 7.33301 -240 22v-370c0 -10.667 -3.5 -19.834 -10.5 -27.501s-16.167 -11.5 -27.5 -11.5h-105c-10 0 -18.667 3.66699 -26 11s-11 16.666 -11 27.999v1861
c0 11.333 4 21 12 29s17.667 12 29 12h99c12 0 21.667 -3.66699 29 -11s11 -17.333 11 -30v-379c86 14 166 21 240 21c76.667 0 142.667 -11.5 198 -34.5s102 -57 140 -102s65.667 -98.5 83 -160.5s26 -131.667 26 -209v-148zM824.999 487.002v147.999
c0 114.667 -20.333 202.334 -61 263.001s-109 91 -205 91c-82.667 0 -162.667 -6.66699 -240 -20v-811c73.333 -14 153.333 -21 240 -21c96 0 164.333 29.333 205 88s61 146 61 262z" />
    <glyph glyph-name="ydieresis" unicode="&#xff;" horiz-adv-x="1141" 
d="M1001 0c0 -78.667 -8.50098 -144.499 -25.501 -197.499s-43 -94.833 -78 -125.5s-77.667 -52.167 -128 -64.5s-112.166 -18.5 -185.499 -18.5c-134 0 -246.667 11.667 -338 35c-15.333 5.33301 -25.666 11 -30.999 17s-8 14.667 -8 26v58c0 10.667 3.33301 19 10 25
s15.667 9 27 9h6l75 -8c44 -4.66699 91.333 -8.5 142 -11.5s89.667 -4.5 117 -4.5c63.333 0 112.166 6.83301 146.499 20.5s58.666 39 72.999 76s21.5 91.5 21.5 163.5v10c-23.333 -6.66699 -59.166 -12.334 -107.499 -17.001s-88.166 -7 -119.499 -7
c-306 0 -459 141.333 -459 424v675c0 11.333 4 21 12 29s17.667 12 29 12h99c12 0 21.667 -3.66699 29 -11s11 -17.333 11 -30v-675c0 -103.333 23.167 -174.333 69.5 -213s116.166 -58 209.499 -58c72.667 0 147 9 223 27v919c0 11.333 4 21 12 29s17.667 12 29 12h99
c12 0 21.667 -3.66699 29 -11s11 -17.333 11 -30v-1085zM826.999 1352c0 -11.333 -4 -20.666 -12 -27.999s-17.667 -11 -29 -11h-80c-10 0 -19.333 3.66699 -28 11s-13 16.666 -13 27.999v166c0 10 4.33301 19.333 13 28s18 13 28 13h80c11.333 0 21 -4.33301 29 -13
s12 -18 12 -28v-166zM468.999 1352c0 -11.333 -4.33301 -20.666 -13 -27.999s-18 -11 -28 -11h-80c-11.333 0 -21 3.66699 -29 11s-12 16.666 -12 27.999v166c0 10 4 19.333 12 28s17.667 13 29 13h80c10 0 19.333 -4.33301 28 -13s13 -18 13 -28v-166z" />
    <glyph glyph-name="dotlessi" unicode="&#x131;" horiz-adv-x="506" 
d="M344 41c0 -12 -4 -21.833 -12 -29.5s-17.667 -11.5 -29 -11.5h-98c-11.333 0 -21.333 4 -30 12s-13 17.667 -13 29v1044c0 11.333 3.83301 21 11.5 29s17.5 12 29.5 12h98c12.667 0 23 -3.66699 31 -11s12 -17.333 12 -30v-1044z" />
    <glyph glyph-name="Lslash" unicode="&#x141;" horiz-adv-x="1053" 
d="M1016 33c0 -17.333 -7 -26.998 -21 -28.998c-24 -4 -77.5 -8 -160.5 -12s-162.5 -6 -238.5 -6c-146 0 -255.167 30 -327.5 90s-108.5 157 -108.5 291v239l-125 -153c-6 -8.66699 -13.667 -13 -23 -13s-14 4.33301 -14 13v129v2c0 17.333 4.66699 32.333 14 45l148 182
v670c0 10 4 19.333 12 28s17.667 13 29 13h104c11.333 0 21 -4 29 -12s12 -17.667 12 -29v-443l139 172c8 10 15.667 15 23 15c9.33301 0 14 -5 14 -15v-133c0 -16.667 -5.33301 -32.334 -16 -47.001l-160 -196v-467c0 -55.333 6 -97.833 18 -127.5s36 -51.334 72 -65.001
s90 -20.5 162 -20.5h395c15.333 0 23 -8.33301 23 -25v-96z" />
    <glyph glyph-name="lslash" unicode="&#x142;" horiz-adv-x="500" 
d="M508 1069c0 -11.333 -4 -22.334 -12 -33.001l-156 -192v-803c0 -12.667 -3.33301 -22.667 -10 -30s-15.667 -11 -27 -11h-106c-10.667 0 -19.5 3.83301 -26.5 11.5s-10.5 17.5 -10.5 29.5v582l-140 -170c-4.66699 -7.33301 -10.667 -11 -18 -11c-12 0 -18 5.66699 -18 17
v123v2c0 18.667 4.66699 33.667 14 45l162 198v674c0 10 3.16699 19 9.5 27s15.5 12 27.5 12h106c11.333 0 20.333 -3.66699 27 -11s10 -16.666 10 -27.999v-452l131 161c4.66699 7.33301 10.667 11 18 11c12.667 0 19 -6.33301 19 -19v-133z" />
    <glyph glyph-name="OE" unicode="&#x152;" horiz-adv-x="2013" 
d="M1901 31c0 -6.66699 -2.16602 -12.9971 -6.49902 -18.9971s-9.16602 -9.33301 -14.499 -10c-24 -4 -77.5 -8 -160.5 -12s-162.5 -6 -238.5 -6c-200.667 0 -331 56.667 -391 170c-48 -56 -107 -98 -177 -126s-148.333 -42 -235 -42c-80.667 0 -155.167 12.333 -223.5 37
s-127.333 63.5 -177 116.5s-87.834 120.667 -114.501 203s-40 177.833 -40 286.5v264c0 109.333 13.333 205 40 287s65 149.5 115 202.5s108.833 91.833 176.5 116.5s142.167 37 223.5 37c86.667 0 165 -13.833 235 -41.5s129 -69.834 177 -126.501
c60 112 190.333 168 391 168c99.333 0 182.166 -1.66699 248.499 -5s116.5 -7.66602 150.5 -12.999c6 -0.666992 11 -3.83398 15 -9.50098s6 -12.167 6 -19.5v-96c0 -16.667 -7.66699 -25 -23 -25h-395c-72 0 -126 -6.83301 -162 -20.5s-60 -35.334 -72 -65.001
s-18 -72.167 -18 -127.5v-285h629c11.333 0 21 -4 29 -12s12 -17.667 12 -29v-77c0 -11.333 -4.33301 -21 -13 -29s-18 -12 -28 -12h-629v-346c0 -55.333 6 -97.833 18 -127.5s36 -51.334 72 -65.001s90 -20.5 162 -20.5h395c15.333 0 23 -8.33301 23 -25v-96zM1044 627.003
l-0.000976562 274c0 92 -11 172.5 -33 241.5s-60.167 123.833 -114.5 164.5s-127.166 61 -218.499 61c-77.333 0 -143.166 -16 -197.499 -48s-96.166 -83.5 -125.499 -154.5s-44 -161.833 -44 -272.5v-264c0 -110.667 14.667 -201.5 44 -272.5s71.166 -122.5 125.499 -154.5
s120.166 -48 197.499 -48c244 0 366 157.667 366 473z" />
    <glyph glyph-name="oe" unicode="&#x153;" horiz-adv-x="1845" 
d="M1739 551c0 -30 -13 -44.998 -39 -44.998h-682v-25c0 -76.667 11.667 -140.834 35 -192.501s57.166 -89.834 101.499 -114.501s98.5 -37 162.5 -37c50.667 0 109.5 3 176.5 9s124.833 12.667 173.5 20h10c22 0 33 -9.66699 33 -29v-69c0 -14 -2.83301 -24.5 -8.5 -31.5
s-16.5 -12.5 -32.5 -16.5c-56.667 -10.667 -113 -19 -169 -25s-117 -9 -183 -9c-37.333 0 -73.666 3 -108.999 9s-70.5 16 -105.5 30s-67 32 -96 54s-54.5 48.333 -76.5 79c-80 -114.667 -203 -172 -369 -172c-146.667 0 -259.167 44.833 -337.5 134.5
s-117.5 211.167 -117.5 364.5v156c0 154 39.167 275.833 117.5 365.5s190.833 134.5 337.5 134.5c166 0 289.667 -58.667 371 -176c38.667 55.333 88.667 98.5 150 129.5s131.333 46.5 210 46.5c74 0 139 -12.333 195 -37s102.833 -59.5 140.5 -104.5s65.667 -98 84 -159
s27.5 -128.833 27.5 -203.5v-86zM1561 643.002v10c0 110.667 -22.333 194 -67 250s-112 84 -202 84c-86.667 0 -154 -29.333 -202 -88s-72 -140.667 -72 -246v-10h543zM840 485.002l-0.000976562 155.999c0 108.667 -23 192.834 -69 252.501s-116 89.5 -210 89.5
c-92 0 -160.667 -29.833 -206 -89.5s-68 -143.834 -68 -252.501v-156c0 -228 91.333 -342 274 -342c92.667 0 162.334 29.833 209.001 89.5s70 143.834 70 252.501z" />
    <glyph glyph-name="Scaron" unicode="&#x160;" horiz-adv-x="1126" 
d="M1024 395c0 -116 -38.166 -213.168 -114.499 -291.501s-206.833 -117.5 -391.5 -117.5c-106.667 0 -220 9.33301 -340 28c-16 2.66699 -26.5 6.5 -31.5 11.5s-7.5 13.5 -7.5 25.5v82c0 22 11.667 33 35 33h6c94 -8 206.667 -12 338 -12c115.333 0 196 20.5 242 61.5
s69 100.833 69 179.5c0 50.667 -17 94.667 -51 132s-98.667 85 -194 143l-199 121c-98.667 60 -170.5 119.167 -215.5 177.5s-67.5 126.833 -67.5 205.5c0 120.667 42.167 211.167 126.5 271.5s205.5 90.5 363.5 90.5c46 0 90.833 -1.16699 134.5 -3.5s82.167 -5 115.5 -8
s68.666 -7.5 105.999 -13.5c23.333 -4.66699 35 -16 35 -34v-88c0 -22 -11.667 -33 -35 -33h-4c-120 8 -237.333 12 -352 12c-108.667 0 -186 -14.167 -232 -42.5s-69 -78.833 -69 -151.5c0 -46 16.333 -86.333 49 -121s90.667 -77 174 -127l188 -113
c78 -46.667 140.667 -91.5 188 -134.5s81.5 -87.167 102.5 -132.5s31.5 -95.666 31.5 -150.999zM934.001 1932c0 -8 -2.66504 -14.667 -7.99805 -20l-199 -254c-10.667 -13.333 -18.834 -21.833 -24.501 -25.5s-14.5 -5.5 -26.5 -5.5h-174
c-11.333 0 -19.666 1.83301 -24.999 5.5s-13.333 12.167 -24 25.5l-201 254c-5.33301 5.33301 -8 12 -8 20c0 9.33301 6 14 18 14h111c9.33301 0 16.166 -1.5 20.499 -4.5s13.166 -12.167 26.499 -27.5l170 -197l168 197c13.333 15.333 22 24.5 26 27.5s11 4.5 21 4.5h111
c12 0 18 -4.66699 18 -14z" />
    <glyph glyph-name="scaron" unicode="&#x161;" horiz-adv-x="954" 
d="M852 283c0 -101.333 -34 -176.166 -102 -224.499s-161.667 -72.5 -281 -72.5c-46.667 0 -101.667 2.66699 -165 8s-116.333 12.666 -159 21.999c-28.667 8 -43 21.667 -43 41v72c0 9.33301 3.66699 16.833 11 22.5s16 8.5 26 8.5h8c116.667 -15.333 224 -23 322 -23
c68.667 0 119.667 10.833 153 32.5s50 59.5 50 113.5c0 30.667 -11 58 -33 82s-62.333 53.333 -121 88l-207 122c-68.667 42 -120.667 86 -156 132s-53 99.667 -53 161c0 100 32.833 170.5 98.5 211.5s156.5 61.5 272.5 61.5c104 0 210.667 -9 320 -27
c25.333 -4 38 -17.667 38 -41v-67c0 -23.333 -11.333 -35 -34 -35h-6c-128 10.667 -234 16 -318 16c-66 0 -114.167 -7.83301 -144.5 -23.5s-45.5 -47.5 -45.5 -95.5c0 -28 10.667 -53.167 32 -75.5s57.666 -48.833 108.999 -79.5l203 -121
c82.667 -48.667 140.834 -97 174.501 -145s50.5 -102.667 50.5 -164zM811 1581c0 -8 -2.66504 -14.667 -7.99805 -20l-199 -254c-10.667 -13.333 -18.834 -21.833 -24.501 -25.5s-14.5 -5.5 -26.5 -5.5h-174c-11.333 0 -19.666 1.83301 -24.999 5.5s-13.333 12.167 -24 25.5
l-201 254c-5.33301 5.33301 -8 12 -8 20c0 9.33301 6 14 18 14h111c9.33301 0 16.166 -1.5 20.499 -4.5s13.166 -12.167 26.499 -27.5l170 -197l168 197c13.333 15.333 22 24.5 26 27.5s11 4.5 21 4.5h111c12 0 18 -4.66699 18 -14z" />
    <glyph glyph-name="Ydieresis" unicode="&#x178;" horiz-adv-x="1221" 
d="M1139 1493c0 -6 -2 -13.666 -6 -22.999l-428 -852v-577c0 -10.667 -3.5 -20.167 -10.5 -28.5s-15.833 -12.5 -26.5 -12.5h-117c-10 0 -18.333 4 -25 12s-10 17.667 -10 29v577l-428 852c-4 11.333 -6 19.666 -6 24.999c0 18 11 27 33 27h129c14 0 25.667 -9.66699 35 -29
l331 -694l332 694c8 19.333 19.667 29 35 29h127c23.333 0 35 -9.66699 35 -29zM868 1681c0 -11.333 -4 -20.666 -12 -27.999s-17.667 -11 -29 -11h-80c-10 0 -19.333 3.66699 -28 11s-13 16.666 -13 27.999v166c0 10 4.33301 19.333 13 28s18 13 28 13h80
c11.333 0 21 -4.33301 29 -13s12 -18 12 -28v-166zM510 1681c0 -11.333 -4.33301 -20.666 -13 -27.999s-18 -11 -28 -11h-80c-11.333 0 -21 3.66699 -29 11s-12 16.666 -12 27.999v166c0 10 4 19.333 12 28s17.667 13 29 13h80c10 0 19.333 -4.33301 28 -13s13 -18 13 -28
v-166z" />
    <glyph glyph-name="Zcaron" unicode="&#x17d;" horiz-adv-x="1214" 
d="M1112 37c0 -11.333 -3.83301 -20.333 -11.5 -27s-17.5 -10 -29.5 -10h-788c-55.333 0 -97.5 14.5 -126.5 43.5s-43.5 65.167 -43.5 108.5c0 40 10 75.333 30 106l734 1067c4 6 6 11.333 6 16c0 10 -7 15 -21 15h-680c-10.667 0 -20.167 3.16699 -28.5 9.5
s-12.5 14.833 -12.5 25.5v96c0 10 4.16699 18.333 12.5 25s17.833 10 28.5 10h729c38 0 70.167 -6.66699 96.5 -20s45.833 -31.333 58.5 -54s19 -47.334 19 -74.001c0 -40 -10.667 -76 -32 -108l-731 -1067c-4.66699 -5.33301 -7 -11.666 -7 -18.999c0 -8 7 -12 21 -12h735
c27.333 0 41 -11.667 41 -35v-96zM962 1932c0 -8 -2.66504 -14.667 -7.99805 -20l-199 -254c-10.667 -13.333 -18.834 -21.833 -24.501 -25.5s-14.5 -5.5 -26.5 -5.5h-174c-11.333 0 -19.666 1.83301 -24.999 5.5s-13.333 12.167 -24 25.5l-201 254
c-5.33301 5.33301 -8 12 -8 20c0 9.33301 6 14 18 14h111c9.33301 0 16.166 -1.5 20.499 -4.5s13.166 -12.167 26.499 -27.5l170 -197l168 197c13.333 15.333 22 24.5 26 27.5s11 4.5 21 4.5h111c12 0 18 -4.66699 18 -14z" />
    <glyph glyph-name="zcaron" unicode="&#x17e;" horiz-adv-x="987" 
d="M885 41c0 -11.333 -4.33301 -21 -13 -29s-18 -12 -28 -12h-541c-64 0 -113.833 10.667 -149.5 32s-53.5 60.666 -53.5 117.999c0 52 15.667 97 47 135l529 657c5.33301 8 8 14.333 8 19c0 9.33301 -6.66699 14 -20 14h-498c-11.333 0 -21 4 -29 12s-12 17.667 -12 29v69
c0 11.333 3.83301 21 11.5 29s17.5 12 29.5 12h506c46 0 84.167 -4.5 114.5 -13.5s53 -23.667 68 -44s22.5 -48.166 22.5 -83.499c0 -48.667 -15.333 -91 -46 -127l-534 -668c-6.66699 -6.66699 -10 -14 -10 -22c0 -10.667 6.66699 -16 20 -16h537
c10 0 19.333 -4.33301 28 -13s13 -18 13 -28v-70zM846 1581c0 -8 -2.66504 -14.667 -7.99805 -20l-199 -254c-10.667 -13.333 -18.834 -21.833 -24.501 -25.5s-14.5 -5.5 -26.5 -5.5h-174c-11.333 0 -19.666 1.83301 -24.999 5.5s-13.333 12.167 -24 25.5l-201 254
c-5.33301 5.33301 -8 12 -8 20c0 9.33301 6 14 18 14h111c9.33301 0 16.166 -1.5 20.499 -4.5s13.166 -12.167 26.499 -27.5l170 -197l168 197c13.333 15.333 22 24.5 26 27.5s11 4.5 21 4.5h111c12 0 18 -4.66699 18 -14z" />
    <glyph glyph-name="florin" unicode="&#x192;" 
d="M1122 1520l0.000976562 -7.00098l-8 -65c-2 -20.667 -18.333 -31 -49 -31h-113c-49.333 0 -85 -9.83301 -107 -29.5s-36.667 -56.167 -44 -109.5l-56 -401h293c23.333 0 35 -10.333 35 -31v-6l-10 -76c-1.33301 -10.667 -6.33301 -19.5 -15 -26.5
s-18.667 -10.5 -30 -10.5h-293l-102 -731c-9.33301 -68 -29 -123 -59 -165s-67.167 -71.833 -111.5 -89.5s-96.833 -26.5 -157.5 -26.5c-50 0 -97 3.66699 -141 11c-23.333 3.33301 -35 12.666 -35 27.999v6l8 66c2 20.667 18.333 31 49 31h113
c49.333 0 85.166 10 107.499 30s36.833 56.333 43.5 109l103 731h-262c-11.333 0 -20.333 2.83301 -27 8.5s-10 13.834 -10 24.501v4l10 76c0.666992 10 5.83398 18.667 15.501 26s20.167 11 31.5 11h262l55 401c25.333 187.333 134.666 281 327.999 281
c39.333 0 86.333 -3.66699 141 -11c23.333 -3.33301 35 -12.666 35 -27.999z" />
    <glyph glyph-name="circumflex" unicode="&#x2c6;" horiz-adv-x="764" 
d="M723 1290c0 -9.33301 -5.99902 -13.999 -17.999 -13.999h-107c-10 0 -17.333 1.83301 -22 5.5s-13 12.167 -25 25.5l-168 198l-170 -198c-12 -13.333 -20.5 -21.833 -25.5 -25.5s-12.167 -5.5 -21.5 -5.5h-107c-12 0 -18 4.66699 -18 14c0 8.66699 2.66699 15.667 8 21
l197 254c10.667 13.333 18.667 21.666 24 24.999s13.666 5 24.999 5h174c17.333 0 34.333 -10 51 -30l195 -254c5.33301 -5.33301 8 -12.333 8 -21z" />
    <glyph glyph-name="caron" unicode="&#x2c7;" horiz-adv-x="764" 
d="M727 1581c0 -8 -2.66504 -14.667 -7.99805 -20l-199 -254c-10.667 -13.333 -18.834 -21.833 -24.501 -25.5s-14.5 -5.5 -26.5 -5.5h-174c-11.333 0 -19.666 1.83301 -24.999 5.5s-13.333 12.167 -24 25.5l-201 254c-5.33301 5.33301 -8 12 -8 20c0 9.33301 6 14 18 14
h111c9.33301 0 16.166 -1.5 20.499 -4.5s13.166 -12.167 26.499 -27.5l170 -197l168 197c13.333 15.333 22 24.5 26 27.5s11 4.5 21 4.5h111c12 0 18 -4.66699 18 -14z" />
    <glyph glyph-name="macron" unicode="&#x2c9;" horiz-adv-x="764" 
d="M719 1417c0 -10.667 -4 -19.167 -12 -25.5s-17.667 -9.5 -29 -9.5h-590c-11.333 0 -21 3.16699 -29 9.5s-12 14.833 -12 25.5v70c0 10.667 4 19.167 12 25.5s17.667 9.5 29 9.5h590c11.333 0 21 -3.16699 29 -9.5s12 -14.833 12 -25.5v-70z" />
    <glyph glyph-name="breve" unicode="&#x2d8;" horiz-adv-x="764" 
d="M717 1569l0.000976562 -8c-4.66699 -61.333 -23.334 -113.833 -56.001 -157.5s-73.667 -76.5 -123 -98.5s-101 -33 -155 -33s-105.833 11 -155.5 33s-90.667 54.5 -123 97.5s-50.833 95.833 -55.5 158.5v8c0 17.333 7.66699 26 23 26h75c18.667 0 29 -10.667 31 -32
c6 -52 28.667 -92.333 68 -121s85 -43 137 -43s97.833 14.5 137.5 43.5s62.167 69.167 67.5 120.5c2 21.333 12 32 30 32h76c15.333 0 23 -8.66699 23 -26z" />
    <glyph glyph-name="dotaccent" unicode="&#x2d9;" horiz-adv-x="764" 
d="M471 1348c0 -12 -4 -21.835 -12 -29.502s-17 -11.5 -27 -11.5h-98c-10.667 0 -20.167 3.83301 -28.5 11.5s-12.5 17.5 -12.5 29.5v172c0 10.667 4.16699 19.834 12.5 27.501s17.833 11.5 28.5 11.5h98c10 0 19 -3.66699 27 -11s12 -16.666 12 -27.999v-172z" />
    <glyph glyph-name="ring" unicode="&#x2da;" horiz-adv-x="764" 
d="M590 1440c0 -56.667 -20.334 -105.333 -61.001 -146s-89.334 -61 -146.001 -61c-38 0 -73 9.33301 -105 28s-57.333 43.667 -76 75s-28 66 -28 104s9.33301 72.833 28 104.5s43.834 57 75.501 76s66.834 28.5 105.501 28.5s73.5 -9.33301 104.5 -28s55.833 -44 74.5 -76
s28 -67 28 -105zM491.999 1442c0 30 -10.833 55.167 -32.5 75.5s-47.167 30.5 -76.5 30.5c-28.667 0 -53.667 -10.333 -75 -31s-32 -45.667 -32 -75s10.5 -54.833 31.5 -76.5s46.167 -32.5 75.5 -32.5c30 0 55.667 10.667 77 32s32 47 32 77z" />
    <glyph glyph-name="ogonek" unicode="&#x2db;" horiz-adv-x="750" 
d="M621 -350c0 -6.66699 -1.66797 -11.667 -5.00098 -15s-9.33301 -6 -18 -8c-67.333 -17.333 -123.333 -26 -168 -26c-94 0 -162.167 25.333 -204.5 76s-63.5 117.334 -63.5 200.001c0 56 8.66699 116 26 180c2.66699 8.66699 5.66699 14 9 16s10 3 20 3h82
c12 0 18 -4.33301 18 -13c0 -2.66699 -0.166992 -4.83398 -0.5 -6.50098s-0.833008 -3.5 -1.5 -5.5c-13.333 -65.333 -20 -119.333 -20 -162c0 -52 11.833 -93.333 35.5 -124s64.5 -46 122.5 -46c36.667 0 82.334 6.33301 137.001 19c4 1.33301 9.33301 2 16 2
c10 0 15 -4.66699 15 -14v-76z" />
    <glyph glyph-name="tilde" unicode="&#x2dc;" horiz-adv-x="1010" 
d="M858 1497c0 -72 -15.166 -125.831 -45.499 -161.498s-79.166 -53.5 -146.499 -53.5c-52 0 -95.667 14.333 -131 43l-125 100c-24.667 19.333 -41.667 31.666 -51 36.999s-20.333 8 -33 8c-24 0 -40.667 -7.66699 -50 -23s-14 -39 -14 -71v-43
c0 -9.33301 -3.5 -17.5 -10.5 -24.5s-15.167 -10.5 -24.5 -10.5h-63c-10 0 -18 3.66699 -24 11s-9 15.333 -9 24v43c0 72.667 17.167 128 51.5 166s82.166 57 143.499 57c40 0 81 -16.333 123 -49l145 -114c11.333 -9.33301 23.833 -16.5 37.5 -21.5s25.167 -7.5 34.5 -7.5
c21.333 0 36.833 6.66699 46.5 20s14.5 36.666 14.5 69.999v47c0 8.66699 3.66699 16.667 11 24s15.333 11 24 11h63c9.33301 0 17.166 -3.33301 23.499 -10s9.5 -15 9.5 -25v-47z" />
    <glyph glyph-name="hungarumlaut" unicode="&#x2dd;" horiz-adv-x="764" 
d="M844 1581c0 -5.33301 -2.66699 -10.667 -8 -16l-230 -258c-12 -13.333 -20.333 -21.833 -25 -25.5s-12 -5.5 -22 -5.5h-110c-12.667 0 -19 4.66699 -19 14c0 8.66699 2.66699 15.667 8 21l199 254c16.667 20 33.667 30 51 30h133c15.333 0 23 -4.66699 23 -14zM485 1581
c0 -5.33301 -2.66895 -10.667 -8.00195 -16l-229 -258c-11.333 -12.667 -19.666 -21 -24.999 -25s-12.666 -6 -21.999 -6h-111c-12 0 -18 4.66699 -18 14c0 8.66699 2.66699 15.667 8 21l199 254c16.667 20 33.667 30 51 30h133c14.667 0 22 -4.66699 22 -14z" />
    <glyph glyph-name="endash" unicode="&#x2013;" horiz-adv-x="870" 
d="M784 539c0 -23.333 -12.998 -35 -38.998 -35h-618c-26 0 -39 11.667 -39 35v79c0 11.333 3.66699 20.333 11 27s16.666 10 27.999 10h618c11.333 0 20.666 -3.33301 27.999 -10s11 -15.667 11 -27v-79z" />
    <glyph glyph-name="emdash" unicode="&#x2014;" horiz-adv-x="1139" 
d="M1051 539c0 -23.333 -12.998 -35 -38.998 -35h-885c-26 0 -39 11.667 -39 35v79c0 11.333 3.66699 20.333 11 27s16.666 10 27.999 10h885c11.333 0 20.666 -3.33301 27.999 -10s11 -15.667 11 -27v-79z" />
    <glyph glyph-name="quoteleft" unicode="&#x2018;" horiz-adv-x="381" 
d="M322 1520c0 -8.66699 -1 -15 -3 -19l-75 -387c-5.33301 -26 -19 -39 -41 -39h-121c-15.333 0 -23 7.66699 -23 23c0 6.66699 0.666992 12 2 16l125 387c8 26 21 39 39 39h78c12.667 0 19 -6.66699 19 -20z" />
    <glyph glyph-name="quoteright" unicode="&#x2019;" horiz-adv-x="381" 
d="M322 1518c0 -7.33301 -1 -13 -3 -17l-124 -387c-8 -26 -21 -39 -39 -39h-78c-12.667 0 -19 7 -19 21c0 8 0.666992 14 2 18l76 387c5.33301 26 19 39 41 39h121c15.333 0 23 -7.33301 23 -22z" />
    <glyph glyph-name="quotesinglbase" unicode="&#x201a;" horiz-adv-x="381" 
d="M346 242c0 -3.33301 -1.33301 -9.00195 -4 -17.002l-154 -387c-6 -15.333 -11.333 -25.666 -16 -30.999s-12 -8 -22 -8h-84c-16.667 0 -25 8.33301 -25 25c0 6.66699 0.666992 11.334 2 14.001l117 387c8 26 21.667 39 41 39h118c18 0 27 -7.33301 27 -22z" />
    <glyph glyph-name="quotedblleft" unicode="&#x201c;" horiz-adv-x="688" 
d="M629 1520c0 -8.66699 -0.666992 -15 -2 -19l-76 -387c-5.33301 -26 -19 -39 -41 -39h-121c-14.667 0 -22 7.66699 -22 23c0 6.66699 0.666992 12 2 16l125 387c7.33301 26 20 39 38 39h78c12.667 0 19 -6.66699 19 -20zM322 1520c0 -8.66699 -1 -15 -3 -19l-75 -387
c-5.33301 -26 -19 -39 -41 -39h-121c-15.333 0 -23 7.66699 -23 23c0 6.66699 0.666992 12 2 16l125 387c8 26 21 39 39 39h78c12.667 0 19 -6.66699 19 -20z" />
    <glyph glyph-name="quotedblright" unicode="&#x201d;" horiz-adv-x="688" 
d="M629 1520c0 -7.33301 -0.666992 -13 -2 -17l-125 -387c-7.33301 -26 -20.333 -39 -39 -39h-78c-12 0 -18 7 -18 21c0 8 0.666992 14 2 18l75 387c6 26 19.667 39 41 39h121c15.333 0 23 -7.33301 23 -22zM322 1520c0 -7.33301 -1 -13 -3 -17l-124 -387
c-8 -26 -21 -39 -39 -39h-78c-12.667 0 -19 7 -19 21c0 8 0.666992 14 2 18l76 387c5.33301 26 19 39 41 39h121c15.333 0 23 -7.33301 23 -22z" />
    <glyph glyph-name="quotedblbase" unicode="&#x201e;" horiz-adv-x="688" 
d="M715 242c0 -3.33301 -1.33496 -9.00195 -4.00195 -17.002l-154 -387c-6 -15.333 -11.167 -25.666 -15.5 -30.999s-12.166 -8 -23.499 -8h-84c-16 0 -24 8.33301 -24 25c0 6.66699 0.666992 11.334 2 14.001l116 387c8.66699 26 22.334 39 41.001 39h119
c18 0 27 -7.33301 27 -22zM345.998 241.998c0 -3.33301 -1.33301 -9.00195 -4 -17.002l-154 -387c-6 -15.333 -11.333 -25.666 -16 -30.999s-12 -8 -22 -8h-84c-16.667 0 -25 8.33301 -25 25c0 6.66699 0.666992 11.334 2 14.001l117 387c8 26 21.667 39 41 39h118
c18 0 27 -7.33301 27 -22z" />
    <glyph glyph-name="dagger" unicode="&#x2020;" horiz-adv-x="827" 
d="M752 1014c0 -22 -13 -32.999 -39 -32.999h-224v-940c0 -27.333 -10.667 -41 -32 -41h-117c-22 0 -33 13.667 -33 41v940h-192c-26 0 -39 11 -39 33v92c0 20.667 13 31 39 31h192v364c0 26 11.667 39 35 39h115c10 0 17.833 -3.83301 23.5 -11.5s8.5 -16.834 8.5 -27.501
v-364h224c26 0 39 -10.333 39 -31v-92z" />
    <glyph glyph-name="daggerdbl" unicode="&#x2021;" horiz-adv-x="827" 
d="M752 584c0 -22 -13 -32.999 -39 -32.999h-224v-510c0 -27.333 -10.667 -41 -32 -41h-117c-22 0 -33 13.667 -33 41v510h-192c-26 0 -39 11 -39 33v92c0 20.667 13 31 39 31h192v274h-192c-26 0 -39 11 -39 33v92c0 20.667 13 31 39 31h192v364c0 26 11.667 39 35 39h115
c10 0 17.833 -3.83301 23.5 -11.5s8.5 -16.834 8.5 -27.501v-364h224c26 0 39 -10.333 39 -31v-92c0 -22 -13 -33 -39 -33h-224v-274h224c26 0 39 -10.333 39 -31v-92z" />
    <glyph glyph-name="bullet" unicode="&#x2022;" horiz-adv-x="856" 
d="M754 752c0 -59.333 -14.667 -114.001 -44 -164.001s-68.833 -89.5 -118.5 -118.5s-104.167 -43.5 -163.5 -43.5s-113.833 14.5 -163.5 43.5s-89.167 68.5 -118.5 118.5s-44 104.667 -44 164s14.667 113.833 44 163.5s68.833 89 118.5 118s104.167 43.5 163.5 43.5
c44 0 86.667 -8.66699 128 -26s76 -40.166 104 -68.499s50.667 -62.833 68 -103.5s26 -83 26 -127z" />
    <glyph glyph-name="ellipsis" unicode="&#x2026;" horiz-adv-x="1241" 
d="M1122 39c0 -11.333 -3.83105 -20.668 -11.498 -28.001s-16.834 -11 -27.501 -11h-98c-10 0 -19.333 3.66699 -28 11s-13 16.666 -13 27.999v192c0 10.667 4.16699 19.834 12.5 27.501s17.833 11.5 28.5 11.5h98c11.333 0 20.666 -3.66699 27.999 -11
s11 -16.666 11 -27.999v-192zM711.002 38.998c0 -11.333 -4.33301 -20.667 -13 -28s-18 -11 -28 -11h-99c-10.667 0 -19.834 3.83301 -27.501 11.5s-11.5 16.834 -11.5 27.501v192c0 10 3.83301 19 11.5 27s16.834 12 27.501 12h99c10.667 0 20.167 -3.83301 28.5 -11.5
s12.5 -16.834 12.5 -27.501v-192zM297.002 38.9971c0 -11.333 -3.83105 -20.668 -11.498 -28.001s-16.834 -11 -27.501 -11h-98c-11.333 0 -21 3.66699 -29 11s-12 16.666 -12 27.999v192c0 10.667 4 19.834 12 27.501s17.667 11.5 29 11.5h98
c11.333 0 20.666 -3.66699 27.999 -11s11 -16.666 11 -27.999v-192z" />
    <glyph glyph-name="perthousand" unicode="&#x2030;" horiz-adv-x="2322" 
d="M2230 317c0 -110 -23.667 -192.665 -71 -247.998s-115 -83 -203 -83c-57.333 0 -106.833 12.167 -148.5 36.5s-73.5 61.666 -95.5 111.999s-33 111.166 -33 182.499v191c0 111.333 24.333 194.5 73 249.5s116.667 82.5 204 82.5c58 0 107.5 -12.167 148.5 -36.5
s72.167 -61 93.5 -110s32 -110.833 32 -185.5v-191zM1534 317.002c0 -110 -23.667 -192.667 -71 -248s-115 -83 -203 -83c-57.333 0 -106.833 12 -148.5 36s-73.5 60.833 -95.5 110.5s-33 111.167 -33 184.5v191c0 74.667 11 136.667 33 186s53.833 86 95.5 110
s91.167 36 148.5 36c58 0 107.5 -12.167 148.5 -36.5s72.167 -61 93.5 -110s32 -110.833 32 -185.5v-191zM1331 1509c0 -4 -3.33398 -12.666 -10.001 -25.999l-856 -1450c-10 -16.667 -17.667 -27.667 -23 -33s-12.666 -8 -21.999 -8h-107c-10.667 0 -16 4 -16 12
s3.33301 17.667 10 29l856 1450c12 17.333 20.333 28.166 25 32.499s12 6.5 22 6.5h105c10.667 0 16 -4.33301 16 -13zM642.999 1016c0 -109.333 -23.667 -192 -71 -248s-115 -84 -203 -84c-57.333 0 -106.833 12.333 -148.5 37s-73.5 62 -95.5 112s-33 111 -33 183v190
c0 111.333 24.167 194.166 72.5 248.499s116.5 81.5 204.5 81.5s155.667 -27.167 203 -81.5s71 -137.166 71 -248.499v-190zM2103 317.003v191c0 143.333 -49 215 -147 215c-100 0 -150 -71.667 -150 -215v-191c0 -143.333 50 -215 150 -215c98 0 147 71.667 147 215z
M1407 317.003v191c0 143.333 -49 215 -147 215c-100 0 -150 -71.667 -150 -215v-191c0 -143.333 50 -215 150 -215c98 0 147 71.667 147 215zM515.999 1016v190c0 143.333 -49 215 -147 215c-100 0 -150 -71.667 -150 -215v-190c0 -143.333 50 -215 150 -215
c98 0 147 71.667 147 215z" />
    <glyph glyph-name="guilsinglleft" unicode="&#x2039;" horiz-adv-x="725" 
d="M614 162c0 -12.667 -7.33301 -19 -22 -19h-119c-15.333 0 -29.666 7 -42.999 21l-346 346c-15.333 15.333 -23 34.333 -23 57c0 22 7.66699 41.333 23 58l346 346c13.333 13.333 27.666 20 42.999 20h119c7.33301 0 12.833 -1.5 16.5 -4.5s5.5 -7.5 5.5 -13.5
c0 -10 -4 -19 -12 -27l-364 -379l364 -379c8 -8 12 -16.667 12 -26z" />
    <glyph glyph-name="guilsinglright" unicode="&#x203a;" horiz-adv-x="725" 
d="M664 567c0 -22.667 -7.66699 -41.667 -23 -57l-346 -346c-13.333 -14 -27.666 -21 -42.999 -21h-119c-14.667 0 -22 6.33301 -22 19c0 9.33301 4 18 12 26l364 379l-364 379c-8 8 -12 17 -12 27c0 12 7.33301 18 22 18h119c15.333 0 29.666 -6.66699 42.999 -20l346 -346
c15.333 -16.667 23 -36 23 -58z" />
    <glyph glyph-name="uni2044" unicode="&#x2044;" horiz-adv-x="522" 
d="M778 1509c0 -4 -3.33398 -12.665 -10.001 -25.998l-856 -1450c-10 -16.667 -17.667 -27.667 -23 -33s-12.666 -8 -21.999 -8h-100c-14 0 -21 5.33301 -21 16c0 9.33301 2.66699 17.666 8 24.999l856 1450c12 17.333 20.333 28.166 25 32.499s12 6.5 22 6.5h105
c10.667 0 16 -4.33301 16 -13z" />
    <glyph glyph-name="Euro" unicode="&#x20ac;" 
d="M1135 53c0 -22.667 -13.668 -36.333 -41.001 -41c-49.333 -9.33301 -94.666 -16 -135.999 -20s-98.666 -6 -171.999 -6c-63.333 0 -126.833 9.5 -190.5 28.5s-123 49.833 -178 92.5s-100.5 100 -136.5 172s-58 160 -66 264h-68c-10 0 -19.333 4 -28 12s-13 17.667 -13 29
v57c0 11.333 4 21 12 29s17.667 12 29 12h66v166h-66c-10 0 -19.333 4 -28 12s-13 17.667 -13 29v57c0 11.333 4 21 12 29s17.667 12 29 12h68c7.33301 102 29.333 188.833 66 260.5s82.334 128.667 137.001 171s113.5 72.5 176.5 90.5s126.833 27 191.5 27
c60.667 0 113.167 -2.83301 157.5 -8.5s95.833 -13.834 154.5 -24.501c21.333 -2.66699 32 -11.334 32 -26.001v-105c0 -14.667 -8 -22 -24 -22h-6c-148 12 -252 18 -312 18c-102.667 0 -189.167 -29.833 -259.5 -89.5s-112.166 -156.834 -125.499 -291.501h594
c10.667 0 19.167 -3 25.5 -9s9.5 -14 9.5 -24c0 -1.33301 -0.166992 -2.66602 -0.5 -3.99902s-0.833008 -2.66602 -1.5 -3.99902l-14 -57c-7.33301 -27.333 -21 -41 -41 -41h-576v-166h527c20 0 30 -10.333 30 -31c0 -1.33301 -0.166992 -2.83301 -0.5 -4.5
s-0.833008 -3.5 -1.5 -5.5l-14 -57c-7.33301 -27.333 -21 -41 -41 -41h-498c7.33301 -92 29.666 -167.167 66.999 -225.5s83.666 -100.166 138.999 -125.499s115.666 -38 180.999 -38c72.667 0 174.667 5.33301 306 16h8c22 0 33 -11 33 -33v-84z" />
    <glyph glyph-name="trademark" unicode="&#x2122;" horiz-adv-x="1618" 
d="M1530 709c0 -14 -6.99902 -20.9941 -20.999 -20.9941h-84c-13.333 0 -20 7 -20 21v491c0 59.333 -4.5 103.166 -13.5 131.499s-28.167 48.666 -57.5 60.999s-77.333 18.5 -144 18.5v-702c0 -14 -7 -21 -21 -21h-86c-13.333 0 -20 7 -20 21v702
c-68.667 0 -141 -4 -217 -12v-690c0 -14 -6.33301 -21 -19 -21h-84c-13.333 0 -20 7 -20 21v759c0 14 2.33301 23.667 7 29s12.667 8.66602 24 9.99902c127.333 14 251.333 21 372 21c76.667 0 139.667 -4.33301 189 -13s89.666 -24.334 120.999 -47.001
s54.833 -55.334 70.5 -98.001s23.5 -99.334 23.5 -170.001v-491zM649.001 1440.01c0 -19.333 -11.666 -29.001 -34.999 -29.001h-198v-690c0 -7.33301 -3.33301 -14.666 -10 -21.999s-14.334 -11 -23.001 -11h-66c-8 0 -15 3.5 -21 10.5s-9 14.5 -9 22.5v690h-203
c-22 0 -33 9.66699 -33 29v51c0 9.33301 3.5 16.833 10.5 22.5s14.5 8.5 22.5 8.5h530c9.33301 0 17.5 -2.83301 24.5 -8.5s10.5 -13.167 10.5 -22.5v-51z" />
    <glyph glyph-name="uni2126" unicode="&#x2126;" horiz-adv-x="1573" 
d="M496 160c-72 44.667 -127 88 -165 130c-58 64 -102.667 139.167 -134 225.5s-47 181.833 -47 286.5c0 130.667 26.5 250.834 79.5 360.501s130 193.834 231 252.501s216.833 88 347.5 88c224 0 396 -84.667 516 -254c87.333 -124 131 -273.333 131 -448
c0 -112 -18 -211.167 -54 -297.5s-83 -160.5 -141 -222.5c-35.333 -38.667 -85 -79 -149 -121l364 6v-166h-575v177c53.333 26.667 94.666 52.667 123.999 78c48 40.667 88.667 89 122 145s58.5 115.667 75.5 179s25.5 129.333 25.5 198c0 92 -16.5 184.5 -49.5 277.5
s-83 163.833 -150 212.5s-148.167 73 -243.5 73c-127.333 0 -226 -40 -296 -120c-97.333 -112.667 -146 -259.334 -146 -440.001c0 -144.667 30.333 -268.834 91 -372.501s144.334 -179.5 251.001 -227.5v-180h-577v168z" />
    <glyph glyph-name="partialdiff" unicode="&#x2202;" horiz-adv-x="1012" 
d="M426 1138l-135.001 59.999c46.667 104.667 102.667 179.667 168 225s129.333 68 192 68c50.667 0 96.5 -13.167 137.5 -39.5s71.833 -56.5 92.5 -90.5c31.333 -52.667 54.5 -115 69.5 -187s22.5 -154.667 22.5 -248c0 -192 -28.833 -362.833 -86.5 -512.5
s-135.5 -260.167 -233.5 -331.5s-194.333 -107 -289 -107c-91.333 0 -165.5 30.333 -222.5 91s-85.5 146 -85.5 256c0 150.667 51 279.667 153 387c131.333 138 347.666 209.667 648.999 215c-2.66699 112 -10.667 197.333 -24 256s-36 103.834 -68 135.501
s-69.667 47.5 -113 47.5c-41.333 0 -81.666 -16.5 -120.999 -49.5s-74.666 -91.5 -105.999 -175.5zM853.999 795.999c-162.667 -9.33301 -281.833 -32.001 -357.5 -68.001s-138 -94.833 -187 -176.5s-73.5 -164.5 -73.5 -248.5c0 -55.333 17 -101 51 -137
s73.667 -54 119 -54c50 0 103.333 18.333 160 55c78 50.667 141.5 128.834 190.5 234.501s81.5 237.167 97.5 394.5z" />
    <glyph glyph-name="uni2206" unicode="&#x2206;" horiz-adv-x="1253" 
d="M1227 0h-1200l628 1386zM991 82l-399 967l-440 -967h839z" />
    <glyph glyph-name="product" unicode="&#x220f;" horiz-adv-x="1686" 
d="M161 1491h1362v-1922h-191v1748h-978v-1748h-193v1922z" />
    <glyph glyph-name="summation" unicode="&#x2211;" horiz-adv-x="1460" 
d="M139 1491h1237v-164h-988l607 -775l-649 -822h1040v-161h-1264v187l620 788l-603 772v175z" />
    <glyph glyph-name="minus" unicode="&#x2212;" 
d="M1077 760c0 -22 -13.667 -33 -41 -33h-850c-27.333 0 -41 11 -41 33v82c0 21.333 13.667 32 41 32h850c27.333 0 41 -10.667 41 -32v-82z" />
    <glyph glyph-name="fraction" unicode="&#x2215;" horiz-adv-x="522" 
d="M778 1509c0 -4 -3.33398 -12.665 -10.001 -25.998l-856 -1450c-10 -16.667 -17.667 -27.667 -23 -33s-12.666 -8 -21.999 -8h-100c-14 0 -21 5.33301 -21 16c0 9.33301 2.66699 17.666 8 24.999l856 1450c12 17.333 20.333 28.166 25 32.499s12 6.5 22 6.5h105
c10.667 0 16 -4.33301 16 -13z" />
    <glyph glyph-name="periodcentered" unicode="&#x2219;" horiz-adv-x="438" 
d="M307 707c0 -12 -3.83203 -21.834 -11.499 -29.501s-16.834 -11.5 -27.501 -11.5h-98c-10 0 -19 4 -27 12s-12 17.667 -12 29v190c0 10.667 3.66699 19.834 11 27.501s16.666 11.5 27.999 11.5h98c10.667 0 19.834 -3.5 27.501 -10.5s11.5 -16.5 11.5 -28.5v-190z" />
    <glyph glyph-name="radical" unicode="&#x221a;" horiz-adv-x="1124" 
d="M1124 1870l-311 -1948l-496 1022l-198 -92l-35 63l301 152l403 -823h5l258 1626h73z" />
    <glyph glyph-name="infinity" unicode="&#x221e;" horiz-adv-x="1460" 
d="M689 812c70 88 124.667 146.002 164 174.002c53.333 38.667 109.666 58 168.999 58c70 0 135.5 -25.333 196.5 -76s91.5 -132.334 91.5 -245.001c0 -78.667 -11.333 -140.5 -34 -185.5s-58 -81.167 -106 -108.5s-97.333 -41 -148 -41c-59.333 0 -115.666 19 -168.999 57
c-39.333 28.667 -94 87 -164 175c-90.667 -114 -187 -171 -289 -171c-67.333 0 -125.166 25.5 -173.499 76.5s-72.5 114.5 -72.5 190.5c0 75.333 24.167 138.666 72.5 189.999s106.166 77 173.499 77c102 0 198.333 -57 289 -171zM758 717.002
c58 -90 111.001 -151.667 159.001 -185c30.667 -22 65 -33 103 -33c50.667 0 93.167 18.667 127.5 56s51.5 90 51.5 158c0 70.667 -17.5 124.667 -52.5 162s-78.5 56 -130.5 56c-32.667 0 -63.334 -9.33301 -92.001 -28c-38.667 -26 -94 -88 -166 -186zM620.001 716.002
c-53.333 66.667 -95.999 109.499 -127.999 128.499s-62.667 28.5 -92 28.5c-38.667 0 -70.834 -13.667 -96.501 -41s-38.5 -65 -38.5 -113c0 -47.333 13.333 -85.166 40 -113.499s59 -42.5 97 -42.5c67.333 0 140 51 218 153z" />
    <glyph glyph-name="integral" unicode="&#x222b;" horiz-adv-x="561" 
d="M561 1755c0 -19.333 -4.16992 -36.999 -12.5029 -52.999s-19.666 -28.167 -33.999 -36.5s-30.166 -12.5 -47.499 -12.5c-24 0 -49.333 11.667 -76 35c-13.333 13.333 -26.333 20 -39 20c-27.333 0 -41 -21 -41 -63c0 -30.667 3.66699 -79.334 11 -146.001
c12 -136 21 -259.667 27 -371s9 -209.333 9 -294l-2 -121l-14 -471c-4 -126.667 -20.333 -233.334 -49 -320.001c-14.667 -44.667 -37.334 -79.334 -68.001 -104.001s-66 -37 -106 -37c-36 0 -64.833 11.167 -86.5 33.5s-32.5 51.5 -32.5 87.5c0 29.333 8.33301 53 25 71
s38.334 27 65.001 27c28 0 51.333 -11 70 -33c8.66699 -9.33301 16.667 -16.666 24 -21.999s15.666 -8 24.999 -8c26 0 39 20.333 39 61c0 24.667 -3.33301 64.334 -10 119.001c-13.333 113.333 -23 245 -29 395c-2 69.333 -4 145.666 -6 228.999
c-1.33301 46.667 -2 98 -2 154l16 553c4 127.333 26 233 66 317c12.667 26.667 33.834 49.834 63.501 69.501s58.834 29.5 87.501 29.5c20.667 0 41.167 -5 61.5 -15s36.333 -23.667 48 -41s17.5 -35 17.5 -53z" />
    <glyph glyph-name="approxequal" unicode="&#x2248;" horiz-adv-x="1124" 
d="M51 738l0.00292969 204.999c70.667 80 163.334 120 278.001 120c40 0 81.833 -5.66699 125.5 -17s106.5 -34.666 188.5 -69.999c46 -20 80.5 -32.833 103.5 -38.5s46.167 -8.5 69.5 -8.5c43.333 0 88.166 13 134.499 39s87.5 58.667 123.5 98v-212
c-42.667 -40 -85.834 -69 -129.501 -87s-92.834 -27 -147.501 -27c-40 0 -78 4.5 -114 13.5s-93.667 31.333 -173 67s-145.333 53.5 -198 53.5c-42.667 0 -82.834 -9.16699 -120.501 -27.5s-84.5 -54.5 -140.5 -108.5zM51.0029 375.999l0.00292969 205
c70.667 80 163.334 120 278.001 120c40 0 81.833 -5.66699 125.5 -17s106.5 -34.666 188.5 -69.999c46 -19.333 80.5 -32 103.5 -38s46.167 -9 69.5 -9c43.333 0 88.166 13 134.499 39s87.5 58.667 123.5 98v-212c-42.667 -40 -85.834 -69 -129.501 -87
s-92.834 -27 -147.501 -27c-40 0 -78 4.66699 -114 14s-93.667 31.666 -173 66.999s-145.333 53 -198 53c-42.667 0 -82.834 -9.16699 -120.501 -27.5s-84.5 -54.5 -140.5 -108.5z" />
    <glyph glyph-name="notequal" unicode="&#x2260;" horiz-adv-x="1124" 
d="M495 417l-194 -445h-136l195 445h-282v168h356l122 277h-478v168h551l196 444h134l-195 -444h282v-168h-356l-121 -277h477v-168h-551z" />
    <glyph glyph-name="lessequal" unicode="&#x2264;" horiz-adv-x="1124" 
d="M77 762v168l971 410v-180l-770 -315l770 -319v-179zM1046 106h-968v167h968v-167z" />
    <glyph glyph-name="greaterequal" unicode="&#x2265;" horiz-adv-x="1124" 
d="M1048 762l-971 -415v179l769 319l-769 315v180l971 -410v-168zM1046 106h-968v167h968v-167z" />
    <glyph glyph-name="lozenge" unicode="&#x25ca;" horiz-adv-x="1012" 
d="M549 1422l418 -713l-418 -709h-111l-391 709l391 713h111zM495 1325l-340 -616l340 -615l359 615z" />
    <glyph glyph-name="uniF001" unicode="&#xf001;" horiz-adv-x="1214" 
d="M1061 1348c0 -11.333 -4.33301 -21 -13 -29s-18 -12 -28 -12h-105c-10 0 -19.333 4 -28 12s-13 17.667 -13 29v163c0 11.333 4 21 12 29s17.667 12 29 12h105c11.333 0 21 -4 29 -12s12 -17.667 12 -29v-163zM1057 41c0 -11.333 -4.33301 -21 -13 -29s-18 -12 -28 -12
h-98c-11.333 0 -21 4 -29 12s-12 17.667 -12 29v1044c0 11.333 3.83301 21 11.5 29s17.5 12 29.5 12h98c11.333 0 21 -4 29 -12s12 -17.667 12 -29v-1044zM672 1020c0 -11.333 -3.66797 -20.334 -11.001 -27.001s-16.666 -10 -27.999 -10h-320v-942
c0 -12 -4 -21.833 -12 -29.5s-17.667 -11.5 -29 -11.5h-98c-10 0 -19.333 4 -28 12s-13 17.667 -13 29v1229c0 104.667 26.833 178.167 80.5 220.5s132.167 63.5 235.5 63.5c68 0 128 -4 180 -12c27.333 -3.33301 41 -15 41 -35v-69c0 -19.333 -14.333 -29 -43 -29h-178
c-39.333 0 -68.333 -3.16699 -87 -9.5s-31.5 -19.5 -38.5 -39.5s-10.5 -50 -10.5 -90v-144h320c12 0 21.5 -3.16699 28.5 -9.5s10.5 -15.166 10.5 -26.499v-70z" />
    <glyph glyph-name="uniF001" unicode="&#xfb01;" horiz-adv-x="1214" 
d="M1061 1348c0 -11.333 -4.33301 -21 -13 -29s-18 -12 -28 -12h-105c-10 0 -19.333 4 -28 12s-13 17.667 -13 29v163c0 11.333 4 21 12 29s17.667 12 29 12h105c11.333 0 21 -4 29 -12s12 -17.667 12 -29v-163zM1057 41c0 -11.333 -4.33301 -21 -13 -29s-18 -12 -28 -12
h-98c-11.333 0 -21 4 -29 12s-12 17.667 -12 29v1044c0 11.333 3.83301 21 11.5 29s17.5 12 29.5 12h98c11.333 0 21 -4 29 -12s12 -17.667 12 -29v-1044zM672 1020c0 -11.333 -3.66797 -20.334 -11.001 -27.001s-16.666 -10 -27.999 -10h-320v-942
c0 -12 -4 -21.833 -12 -29.5s-17.667 -11.5 -29 -11.5h-98c-10 0 -19.333 4 -28 12s-13 17.667 -13 29v1229c0 104.667 26.833 178.167 80.5 220.5s132.167 63.5 235.5 63.5c68 0 128 -4 180 -12c27.333 -3.33301 41 -15 41 -35v-69c0 -19.333 -14.333 -29 -43 -29h-178
c-39.333 0 -68.333 -3.16699 -87 -9.5s-31.5 -19.5 -38.5 -39.5s-10.5 -50 -10.5 -90v-144h320c12 0 21.5 -3.16699 28.5 -9.5s10.5 -15.166 10.5 -26.499v-70z" />
    <glyph glyph-name="uniF002" unicode="&#xf002;" horiz-adv-x="1210" 
d="M1057 41c0 -11.333 -4.33301 -21 -13 -29s-18 -12 -28 -12h-98c-11.333 0 -21 4 -29 12s-12 17.667 -12 29v1458c0 11.333 3.83301 21 11.5 29s17.5 12 29.5 12h98c11.333 0 21 -4 29 -12s12 -17.667 12 -29v-1458zM672 1020c0 -11.333 -3.66797 -20.334 -11.001 -27.001
s-16.666 -10 -27.999 -10h-320v-942c0 -12 -4 -21.833 -12 -29.5s-17.667 -11.5 -29 -11.5h-98c-10 0 -19.333 4 -28 12s-13 17.667 -13 29v1229c0 104.667 26.833 178.167 80.5 220.5s132.167 63.5 235.5 63.5c68 0 128 -4 180 -12c27.333 -3.33301 41 -15 41 -35v-69
c0 -19.333 -14.333 -29 -43 -29h-178c-39.333 0 -68.333 -3.16699 -87 -9.5s-31.5 -19.5 -38.5 -39.5s-10.5 -50 -10.5 -90v-144h320c12 0 21.5 -3.16699 28.5 -9.5s10.5 -15.166 10.5 -26.499v-70z" />
    <glyph glyph-name="uniF002" unicode="&#xfb02;" horiz-adv-x="1210" 
d="M1057 41c0 -11.333 -4.33301 -21 -13 -29s-18 -12 -28 -12h-98c-11.333 0 -21 4 -29 12s-12 17.667 -12 29v1458c0 11.333 3.83301 21 11.5 29s17.5 12 29.5 12h98c11.333 0 21 -4 29 -12s12 -17.667 12 -29v-1458zM672 1020c0 -11.333 -3.66797 -20.334 -11.001 -27.001
s-16.666 -10 -27.999 -10h-320v-942c0 -12 -4 -21.833 -12 -29.5s-17.667 -11.5 -29 -11.5h-98c-10 0 -19.333 4 -28 12s-13 17.667 -13 29v1229c0 104.667 26.833 178.167 80.5 220.5s132.167 63.5 235.5 63.5c68 0 128 -4 180 -12c27.333 -3.33301 41 -15 41 -35v-69
c0 -19.333 -14.333 -29 -43 -29h-178c-39.333 0 -68.333 -3.16699 -87 -9.5s-31.5 -19.5 -38.5 -39.5s-10.5 -50 -10.5 -90v-144h320c12 0 21.5 -3.16699 28.5 -9.5s10.5 -15.166 10.5 -26.499v-70z" />
    <glyph glyph-name="uniF006" unicode="&#xf006;" horiz-adv-x="1413" 
d="M505 916v-916h-180v916h-280v146h1324v-146h-242v-916h-180v916h-442z" />
    <glyph glyph-name=".null" horiz-adv-x="0" 
 />
    <glyph glyph-name="nonmarkingreturn" horiz-adv-x="559" 
 />
    </font>
</defs>
</svg>
